<?xml version="1.0" standalone="no"?>
<!DOCTYPE svg PUBLIC "-//W3C//DTD SVG 1.1//EN" "http://www.w3.org/Graphics/SVG/1.1/DTD/svg11.dtd" >
<svg xmlns="http://www.w3.org/2000/svg">
<metadata></metadata>
<defs>
<font id="BackOutWebMedium" horiz-adv-x="1990" >
<font-face units-per-em="2048" ascent="1638" descent="-410" />
<missing-glyph horiz-adv-x="307" />
<glyph horiz-adv-x="0" />
<glyph horiz-adv-x="2048" />
<glyph unicode=" "  horiz-adv-x="307" />
<glyph unicode="&#x09;" horiz-adv-x="307" />
<glyph unicode="&#xa0;" horiz-adv-x="307" />
<glyph unicode="!" horiz-adv-x="417" d="M97 0l52 417h172v-417h-224zM97 550l47 417v799h172v-1216h-219zM144 1766z" />
<glyph unicode="&#x22;" horiz-adv-x="995" d="M96 1325l128 220l92 225l205 -1l-184 -444h-241zM337 1325zM475 1326l127 221l93 225l204 -2l-184 -444h-240z" />
<glyph unicode="#" horiz-adv-x="1433" d="M92 811v265l284 -32l-22 200h265l-25 -215h246l-25 221h265l-24 -205l279 31v-265l-301 34l-1 -11v-411l2 -19l307 35v-265l-285 32l23 -199h-265l24 214h-245l25 -221h-265l23 205l-279 -31v265l301 -34l2 12v410l-2 19zM572 417l3 -25h283l4 31v411l-3 24h-284l-3 -31 v-410zM575 858z" />
<glyph unicode="$" horiz-adv-x="1024" d="M87 1266q-2 117 30.5 220.5t103 183t166.5 102.5l-7 69h264l-6 -60l196 -1l-19 -174h-197l-20 -182v-456q109 -10 187.5 -79.5t114 -168.5t37.5 -215t-30.5 -219t-103 -181t-166.5 -99l7 -71h-264l7 64l-264 1l20 170h263l20 182v443q-109 12 -187.5 83t-114 171 t-37.5 217zM291 1288q0 -96 32.5 -178.5t88.5 -139.5h14v454l-19 177q-53 -57 -84.5 -138.5t-31.5 -174.5zM598 352l20 -182h1q55 56 86.5 137.5t31.5 174.5t-32 173t-87 137h-20v-440zM598 792z" />
<glyph unicode="%" horiz-adv-x="1466" d="M89 1769h395l-27 -246v-456l27 -244h-394zM195 0l301 521l511 1244h196l-719 -1765h-289zM241 978l64 -1v636h-53l-11 -86v-549zM982 946h395l-27 -246v-455l27 -245h-394zM1007 1765zM1134 155l64 -1v637h-53l-11 -86v-550z" />
<glyph unicode="&#x26;" horiz-adv-x="1556" d="M89 1l47 417v931l-47 418h591l-1 -1030h-371v-558h475l1 1583v250h-42l-417 -52v224h1143v-172h-481l-30 -245l-2 -1767zM308 915h199v436l-29 237h-170v-673zM308 1588z" />
<glyph unicode="'" horiz-adv-x="618" d="M97 1323l128 221l92 225l204 -1l-183 -445h-241zM338 1323z" />
<glyph unicode="(" horiz-adv-x="630" d="M90 0l46 417v934l-46 417h451v-178h-232v-1412h232v-178h-451zM90 1768z" />
<glyph unicode=")" horiz-adv-x="630" d="M90 0v178h232v1412h-232v178h451l-47 -417v-934l47 -417h-451zM541 1768z" />
<glyph unicode="*" horiz-adv-x="1122" d="M89 1192v206l244 -27h111l-38 93l-177 305h223l109 -266l108 266h224l-177 -305l-38 -93h111l245 27v-206l-242 27h-114l38 -92l177 -306h-224l-108 267l-109 -267h-223l177 306l38 92h-114zM229 1769z" />
<glyph unicode="+" horiz-adv-x="1941" d="M87 781v264l416 -46h394v352l-47 417h265l-47 -417v-352h370l417 46v-264l-417 46h-370v-410l47 -417h-265l47 417v410h-394z" />
<glyph unicode="," horiz-adv-x="606" d="M3 -297l210 297l92 225l205 -1l-217 -521h-290zM305 225z" />
<glyph unicode="-" horiz-adv-x="1036" d="M103 728v224h414l417 52v-224h-415zM934 1004z" />
<glyph unicode="." horiz-adv-x="438" d="M107 0l52 417h172v-417h-224zM331 0z" />
<glyph unicode="/" horiz-adv-x="1179" d="M86 0l301 521l511 1244h196l-719 -1765h-289zM898 1765z" />
<glyph unicode="0" horiz-adv-x="843" d="M97 0v1760h650l-47 -417v-926l47 -417h-650zM269 179l259 -1v1404h-230l-29 -237v-1166zM528 178z" />
<glyph unicode="1" horiz-adv-x="446" d="M91 0l47 417v925l-47 416h265l-47 -416v-925l47 -417h-265zM91 1758z" />
<glyph unicode="2" horiz-adv-x="1081" d="M87 0l328 1211h356v378l-325 -10v-150h-172v333h669v-308l51 -417l-421 1l-217 -866h221l416 52v-224h-906zM274 1762z" />
<glyph unicode="3" horiz-adv-x="999" d="M86 0v224l417 -52h141l-224 545l-301 521l502 -3v350h-324v-150h-172v328h668v-284l52 -417l-365 1l363 -891l70 -172h-827zM86 0z" />
<glyph unicode="4" horiz-adv-x="1134" d="M86 505l514 1258h289l-301 -520l-235 -566l392 1v412h223l-51 -412h132v-173h-132l1 -505h-224l52 417v88h-660zM600 1763z" />
<glyph unicode="5" horiz-adv-x="1081" d="M87 1758h906v-224l-416 52h-221l217 -866l421 1l-51 -417v-304h-669v328h172v-150h325v369h-356zM274 0z" />
<glyph unicode="6" horiz-adv-x="782" d="M96 0l46 417v935l-46 417h584v-179h-365v-1411h170l29 236v437h-143v178h315v-1030h-590zM96 1769z" />
<glyph unicode="7" horiz-adv-x="1208" d="M86 1593v172h1037l-724 -1765h-285l301 521l440 1072h-769zM86 1765z" />
<glyph unicode="8" horiz-adv-x="868" d="M92 862v904h591l-47 -418v-308h140v-1040h-590l46 417v445h-140zM264 1041h142v-862h169l29 236v446h-142v726h-168l-30 -237v-309zM294 1587z" />
<glyph unicode="9" horiz-adv-x="782" d="M96 738v1031h590l-46 -418v-934l46 -417h-583v178h364v1412h-170l-29 -237v-436h143v-178zM686 0z" />
<glyph unicode=":" horiz-adv-x="430" d="M103 0l52 417h172v-417h-224zM103 573v417h224l-52 -417h-172zM327 0z" />
<glyph unicode=";" horiz-adv-x="778" d="M90 -521l301 521l93 225l204 -1l-308 -745h-290zM450 829h223v-417h-172zM484 225z" />
<glyph unicode="&#x3c;" horiz-adv-x="819" d="M85 882l360 883h289l-301 -521l-149 -362l149 -361l301 -521h-289zM734 1765z" />
<glyph unicode="=" horiz-adv-x="1462" d="M106 637v265l417 -47h410l417 47v-265l-417 47h-410zM113 0v265l416 -47h411l416 47v-265l-416 47h-411zM1350 902z" />
<glyph unicode="&#x3e;" horiz-adv-x="819" d="M85 0l301 521l149 361l-149 362l-301 521h290l359 -883l-359 -882h-290zM85 1765z" />
<glyph unicode="?" horiz-adv-x="905" d="M92 0l52 417h172v-417h-224zM92 550l47 417v255l450 -1v369h-324v-150h-173v328h669v-304l52 -416l-502 1v-499h-219zM92 1768z" />
<glyph unicode="@" horiz-adv-x="1208" d="M87 0l47 417v1349l865 -1l-46 -417v-319h168v-178h-168v-434l46 -417h-590v1030l371 -1v558h-474v-1587h-219zM581 415l29 -236h170v672h-199v-436zM581 851z" />
<glyph unicode="A" d="M85 0l301 521l511 1244h290l719 -1765h-196l-245 595h-848l-242 -595h-290zM687 768h707l-196 476l-186 322zM1012 1566z" />
<glyph unicode="B" horiz-adv-x="933" d="M87 0l46 421v935l-46 418h353q101 -1 178.5 -50t121.5 -126q43 -78 62 -176q12 -65 12 -128q0 -34 -3 -67q-10 -97 -46.5 -187.5t-96.5 -150.5q68 -51 112.5 -138.5t59.5 -184.5q8 -48 8 -98t-8 -100q-15 -102 -56.5 -182.5t-119.5 -132.5t-180 -53h-397zM296 155h244 q57 57 90.5 141t33.5 180q0 95 -33 178.5t-90 140.5l-245 -1v-639zM296 953h203q59 59 93 145t34 184q0 99 -34.5 185t-93.5 145h-202v-659zM541 795z" />
<glyph unicode="C" horiz-adv-x="1056" d="M92 737q-3 51 -3 102q0 96 10 192q15 147 71 280t133.5 235.5t193.5 163t251 60.5l222 -2l-20 -178h-347q-130 -124 -205.5 -309t-75.5 -396q0 -213 76 -398.5t208 -308.5h344l20 -178l-222 -9q-149 1 -271 63t-198.5 165.5t-127.5 237t-59 280.5zM748 1770z" />
<glyph unicode="D" horiz-adv-x="1175" d="M85 0l47 417v934l-47 417l344 2q135 0 251 -60.5t193.5 -163t133.5 -235.5t71 -280q10 -96 10 -192q0 -51 -3 -102q-8 -147 -59 -280.5t-127.5 -237t-198.5 -165.5t-271 -63zM304 178h267q132 123 208 308.5t76 398.5q0 211 -75.5 396t-205.5 309h-270v-1412zM304 1590z " />
<glyph unicode="E" horiz-adv-x="757" d="M87 0l47 417v934l-47 417h584v-178h-365v-639l365 45l-1 -224h-364v-594h365v-178h-584zM87 1768z" />
<glyph unicode="F" horiz-adv-x="753" d="M85 0l47 417v934l-47 417h584v-178h-365v-639l365 45l-1 -224h-364v-772h-219zM85 1768z" />
<glyph unicode="G" horiz-adv-x="1228" d="M92 746q-3 51 -3 102q0 96 10 192q15 147 71 280t133.5 235.5t193.5 163t251 60.5l394 -2l-20 -178h-518q-130 -124 -205.5 -309t-75.5 -396q0 -213 76 -398.5t207 -308.5h330v575h-417v224l416 -51h174l-1 -698l29 -237h-389q-149 1 -271 63t-198.5 165.5t-127.5 237 t-59 280.5zM748 1779z" />
<glyph unicode="H" horiz-adv-x="950" d="M86 0l47 417v934l-47 417h217l2 -862h339v862h220l-46 -417v-934l46 -417h-221l1 736h-340v-736h-218zM86 1768z" />
<glyph unicode="I" horiz-adv-x="438" d="M87 0l47 417v756l-47 416h264l-46 -416v-756l46 -417h-264zM87 1589zM89 1875h223v-218h-196z" />
<glyph unicode="J" horiz-adv-x="892" d="M86 1120h224v-942h278v1590h219l-47 -417v-1351h-622v704zM588 1768z" />
<glyph unicode="K" horiz-adv-x="1085" d="M86 0l47 417v934l-47 417h264l-46 -417v-934l46 -417h-264zM350 882l360 883h290l-302 -521l-148 -362l148 -361l302 -521h-290zM1000 1765z" />
<glyph unicode="L" horiz-adv-x="872" d="M95 1765h172v-1348l30 -245h481v-172h-682zM95 1765z" />
<glyph unicode="M" horiz-adv-x="1417" d="M86 0l47 417v936l-47 416h217v-11l406 -987l405 985v11h217l-47 -416v-936l47 -417h-217v1276l-305 -747h-200l-306 749v-1276h-217zM86 1769z" />
<glyph unicode="N" horiz-adv-x="1200" d="M86 0l47 417v936l-47 416h218l509 -1251l81 -140v1391h217l-46 -416v-936l49 -419h-290l-520 1278v-1276h-218zM894 1769z" />
<glyph unicode="O" horiz-adv-x="1601" d="M92 746q-3 51 -3 102q0 96 10 192q15 147 71 280t133.5 235.5t193.5 163t251 60.5h106q135 0 251 -60.5t193.5 -163t133.5 -235.5t71 -280q10 -96 10 -192q0 -51 -3 -102q-8 -147 -59 -280.5t-127.5 -237t-198.5 -165.5t-271 -63h-106q-149 1 -271 63t-198.5 165.5 t-127.5 237t-59 280.5zM322 894q0 -213 76 -398.5t208 -308.5h390q131 123 207 308.5t76 398.5q0 212 -75.5 396.5t-205.5 308.5h-395q-131 -124 -206 -308.5t-75 -396.5zM998 1599z" />
<glyph unicode="P" horiz-adv-x="1085" d="M86 0l46 417v934l-46 417h393q107 0 198.5 -47t152.5 -127t105 -184q43 -103 55 -217q7 -73 8 -146q0 -41 -2 -83q-6 -114 -47 -218t-101 -184.5t-156 -128.5t-213 -49h-1l-172 8l44 -392h-264zM305 574h270q92 89 145 221.5t53 284.5q0 151 -53 283t-144 221h-246 l-25 -233v-777zM330 1584z" />
<glyph unicode="Q" horiz-adv-x="1142" d="M86 0l46 417v934l-46 417h882l-47 -417v-934l47 -417h-231l19 -46l301 -520h-289l-235 566h-447zM305 178h223l136 1v-1h84v1412h-443v-1412zM305 1590z" />
<glyph unicode="R" horiz-adv-x="1105" d="M86 0l47 417v936l-47 416h422q113 -1 195.5 -64t121.5 -159t45 -210q1 -20 1 -38q0 -93 -24 -180q-29 -104 -95 -185t-158 -107l125 -305l301 -520h-290l-331 814h-95v-815h-218zM304 970h260q57 57 90 140.5t33 178.5q0 96 -33 180t-90 141h-260v-640zM304 1610z" />
<glyph unicode="S" horiz-adv-x="1024" d="M92 1183q-8 47 -7 94q-1 59 11 117q22 106 65.5 192t124 140.5t180.5 54.5l368 -1l-19 -174h-403q-56 -57 -88.5 -140t-32.5 -178q0 -96 32.5 -178.5t88.5 -139.5h154q83 -1 151 -34.5t111 -90t72 -129.5q29 -74 34 -154q2 -31 2 -61q0 -49 -5 -99q-8 -80 -39 -153 t-74.5 -129t-109 -89t-142.5 -33l-443 2l20 170h476q55 56 86.5 137.5t31.5 174.5t-32 173t-87 137h-152q-108 1 -191 56t-124 142.5t-59 192.5zM466 1781z" />
<glyph unicode="T" horiz-adv-x="1314" d="M86 1542v223h1143v-172h-481l-30 -245v-1348h-173v1593h-42zM86 1765z" />
<glyph unicode="U" horiz-adv-x="892" d="M86 1768h219v-1590h278v1590h224l-51 -417v-1351h-623v1351zM86 1768z" />
<glyph unicode="V" d="M85 1765h290l637 -1566l186 322l512 1244h196l-719 -1765h-290l-511 1244zM897 0z" />
<glyph unicode="W" horiz-adv-x="2760" d="M86 1765h290l637 -1566l186 322l127 308l-171 415l-301 521h290l282 -693l284 693h197l-382 -937l256 -629l186 322l511 1244h197l-719 -1765h-290l-240 585l-238 -585h-290l-511 1244zM86 1765z" />
<glyph unicode="X" horiz-adv-x="1179" d="M86 0l301 521l148 361l-148 362l-301 521h289l260 -639l263 639h196l-359 -883l359 -882h-196l-263 639l-260 -639h-289zM86 1765z" />
<glyph unicode="Y" horiz-adv-x="1179" d="M86 0l301 521l148 361l-148 362l-301 521h289l260 -639l263 639h196l-719 -1765h-289zM86 1765z" />
<glyph unicode="Z" horiz-adv-x="1216" d="M87 1593v172h1036l-649 -1593h656v-172h-1015l301 521l440 1072h-769zM87 1765z" />
<glyph unicode="[" horiz-adv-x="630" d="M90 0l46 417v934l-46 417h451v-178h-232v-1412h232v-178h-451zM90 1768z" />
<glyph unicode="\" horiz-adv-x="1179" d="M86 1765h289l719 -1765h-196l-511 1244zM898 0z" />
<glyph unicode="]" horiz-adv-x="630" d="M90 0v178h232v1412h-232v178h451l-47 -417v-934l47 -417h-451zM541 1768z" />
<glyph unicode="^" horiz-adv-x="745" d="M113 1769v219h520v-219l-260 29z" />
<glyph unicode="_" d="M111 -47v265l417 -47h935l416 47v-265l-416 47h-935zM1879 218z" />
<glyph unicode="`" horiz-adv-x="745" d="M113 1769h520v172h-104l-416 47v-219zM113 1769z" />
<glyph unicode="a" horiz-adv-x="1617" d="M87 0l245 424l390 949h250l559 -1373h-200l-183 446h-603l-182 -446h-276zM617 625h458l-134 324l-112 194zM829 1143z" />
<glyph unicode="b" horiz-adv-x="794" d="M86 0l38 343v696l-38 341h293q108 -3 190 -83.5t106 -200.5q9 -50 9 -100q0 -60 -12 -118q-24 -110 -88 -184q73 -66 104 -176q20 -72 20 -145q0 -38 -5 -76q-18 -125 -90.5 -205.5t-200.5 -91.5h-326zM295 165h147q80 87 80 216q0 128 -80 215h-147v-431zM295 764h116 q82 91 82 222q0 135 -83 223h-115v-445zM442 596z" />
<glyph unicode="c" horiz-adv-x="884" d="M90 572q-2 41 -3 82q-1 72 7 146q12 114 56 217.5t105 183.5t152.5 127t198.5 47l194 -2l-21 -182h-271q-91 -89 -144 -221t-53 -283q0 -152 53.5 -284.5t145.5 -221.5h269l21 -181l-193 -8h-1q-117 1 -213 49t-156 128.5t-100.5 184.5t-46.5 218zM606 1375z" />
<glyph unicode="d" horiz-adv-x="978" d="M86 0l38 336v702l-38 336l286 2q107 0 198.5 -47t152.5 -127t105 -183t56 -217q7 -73 7 -147q-1 -41 -3 -83q-6 -114 -46.5 -217.5t-100.5 -184t-156 -128.5t-213 -49h-1zM303 182h165q92 89 145 221.5t53 284.5q0 151 -53 283t-144 221h-166v-1010zM303 1192z" />
<glyph unicode="e" horiz-adv-x="667" d="M89 0l38 340v695l-38 340h490v-183h-273v-426l273 34l-1 -221h-272v-396h273v-183h-490zM89 1375z" />
<glyph unicode="f" horiz-adv-x="663" d="M87 0l38 340v695l-38 340h490v-183h-274v-426l274 34l-1 -221h-272v-579h-217zM87 1375z" />
<glyph unicode="g" horiz-adv-x="888" d="M86 695q3 105 25.5 204t66.5 187.5t104.5 154.5t144 104.5t180.5 38.5l194 -2l-21 -183h-271q-91 -89 -144 -221t-53 -283q0 -152 53.5 -284t145.5 -221h89v382h-127v182h305v-549l25 -205h-197q-106 1 -194 40.5t-148.5 106t-102 155.5t-59.5 188q-16 88 -16 179v26z M607 1384z" />
<glyph unicode="h" horiz-adv-x="811" d="M86 0l38 337v701l-38 337h215l1 -646h206v646h217l-38 -340v-695l38 -340h-218v552h-205v-552h-216zM86 1375z" />
<glyph unicode="i" horiz-adv-x="430" d="M88 0l39 340v527l-39 340h254l-38 -337v-533l38 -337h-254zM89 1455h221v-212h-195zM89 1455z" />
<glyph unicode="j" horiz-adv-x="770" d="M87 890l220 -1v-706h160v1192h216l-38 -340v-1035h-516v553zM467 1375z" />
<glyph unicode="k" horiz-adv-x="978" d="M86 0l38 340v695l-38 340h254l-38 -340v-695l38 -340h-254zM336 686l280 686h277l-247 -427l-107 -259l107 -260l247 -426h-277zM616 1372z" />
<glyph unicode="l" horiz-adv-x="749" d="M94 1373h178v-1032l20 -163h364v-178h-561zM94 1373z" />
<glyph unicode="m" horiz-adv-x="1163" d="M87 0l38 340v696l-38 340h215l280 -709l279 708h215l-38 -337v-703l38 -336l-215 -1v857l-187 -460h-184l-188 461v-856h-215zM87 1376z" />
<glyph unicode="n" horiz-adv-x="999" d="M87 0l38 340v696l-38 340h207l387 -950l14 -60v1010h216l-38 -340v-696l40 -342h-262l-349 857v-855h-215zM695 1376z" />
<glyph unicode="o" horiz-adv-x="888" d="M86 0l38 337v701l-38 337h716l-38 -340v-695l38 -340h-716zM303 183h283v1009h-283v-1009zM303 1192z" />
<glyph unicode="p" horiz-adv-x="909" d="M86 0l38 340v695l-38 340h322q96 0 175.5 -46.5t130 -122.5t79 -173t31.5 -199v-18q0 -92 -23 -180q-25 -97 -74 -173.5t-131.5 -124t-186.5 -48.5h-102l32 -290h-253zM302 480h167q63 63 99.5 155.5t36.5 198.5q0 105 -36.5 198t-98.5 156h-151l-17 -153v-555zM319 1188 z" />
<glyph unicode="q" horiz-adv-x="970" d="M86 0l38 337v701l-38 337h716l-38 -339v-696l38 -340h-163l246 -425h-276l-176 425h-347zM302 183h284v1009h-284v-1009zM302 1192z" />
<glyph unicode="r" horiz-adv-x="933" d="M87 0l37 334v698q-6 55 -18.5 167t-18.5 167h339q134 -1 214 -108q70 -94 77 -234q1 -13 1 -26q0 -119 -50 -221q-53 -108 -150 -147l87 -213l242 -418h-265q-43 108 -127 313t-122 300h-41v-612h-205zM292 766h166q82 89 82 220q0 134 -82 221h-166v-441zM292 1207z" />
<glyph unicode="s" horiz-adv-x="860" d="M90 926q-2 27 -2 53q0 39 4 77q6 66 32 125t62 104.5t90.5 72.5t118.5 27h1l303 -1l-20 -179h-312q-78 -86 -78 -215q0 -128 78 -214h104q100 -1 171 -59q72 -59 102 -145q29 -81 28 -174v-12q-2 -100 -35 -186.5t-103.5 -144t-163.5 -57.5l-359 2l21 176h366 q76 84 76 209t-76 209h-103q-68 1 -124.5 28.5t-92.5 73t-60 105t-28 125.5zM395 1385z" />
<glyph unicode="t" horiz-adv-x="1077" d="M86 1153v220h906v-178h-364l-20 -162v-1033h-178v1195h-7zM86 1373z" />
<glyph unicode="u" horiz-adv-x="765" d="M85 1375h216v-1192h160v1192h220l-42 -337v-1038h-516v1038zM123 0z" />
<glyph unicode="v" horiz-adv-x="1617" d="M87 1373h276l466 -1143l112 194l390 949h200l-559 -1373h-250l-390 949zM722 0z" />
<glyph unicode="w" horiz-adv-x="2191" d="M85 1373h277l465 -1144l114 199l91 218l-124 300l-247 427h277l195 -479l197 479h200l-296 -727l169 -416l114 196l389 947h200l-559 -1373h-250l-164 399l-162 -399h-250l-389 946zM85 1373z" />
<glyph unicode="x" horiz-adv-x="1007" d="M86 0l246 424l108 263l-108 262l-246 424h276l179 -439l180 439h201l-280 -686l280 -687h-201l-180 439l-179 -439h-276zM86 1373z" />
<glyph unicode="y" horiz-adv-x="1007" d="M86 0l246 424l108 263l-108 262l-246 424h276l179 -439l180 439h200l-559 -1373h-276zM86 1373z" />
<glyph unicode="z" horiz-adv-x="1011" d="M86 1194v179h839l-487 -1195h480v-178h-828l247 428l315 766h-566zM86 1373z" />
<glyph unicode="{" horiz-adv-x="630" d="M90 0l46 417v934l-46 417h451v-178h-232v-1412h232v-178h-451zM90 1768z" />
<glyph unicode="|" horiz-adv-x="438" d="M87 1769h217l1 -1352l47 -417h-218l-1 1353zM87 1769z" />
<glyph unicode="}" horiz-adv-x="630" d="M90 0v178h232v1412h-232v178h451l-47 -417v-934l47 -417h-451zM541 1768z" />
<glyph unicode="~" horiz-adv-x="1052" d="M111 1545v224h414l417 52v-224h-415zM942 1821z" />
<glyph unicode="&#xa2;" horiz-adv-x="1159" d="M87.5 887q2.5 105 25 204t66.5 187.5t104.5 154.5t144 104.5t180.5 38.5h5l-22 192h265l-22 -193l238 -1l-20 -183h-238l-5 -40v-934l4 -35h239l20 -182l-238 -4l22 -196h-265l22 192h-6q-106 1 -194 40.5t-148.5 106t-102 155.5t-59.5 188.5t-15.5 204.5zM313 888 q0 -152 53.5 -284.5t145.5 -221.5h122l4 35v934l-5 40h-123q-91 -89 -144 -220.5t-53 -282.5zM510 1391z" />
<glyph unicode="&#xa3;" horiz-adv-x="1417" d="M87 621v264l281 -31l-1 913h623v-366l51 -417l-224 1l1 603h-279v-749h375l416 46v-264l-416 47h-375v-251l31 -245h480v-172h-682v652zM367 1767z" />
<glyph unicode="&#xa5;" horiz-adv-x="1212" d="M86 1776h290l260 -639l262 639h196l-348 -856l-7 -63l387 44v-265l-407 46l-1 -11v-149l408 46v-264l-400 45l39 -349h-265l39 348l-394 -44v264l402 -45v148l-1 10l-401 -45v265l381 -43l-9 81l-130 316zM86 1776z" />
<glyph unicode="&#xa6;" horiz-adv-x="438" d="M87 1769h217l1 -736h-172v320zM134 0v736h171v-319l47 -417h-218zM134 736z" />
<glyph unicode="&#xa7;" horiz-adv-x="905" d="M92 1160l51 417v187h669v-328h-172v145h-325v-247l451 1v-255l47 -416l-51 -416v-248h-669v328h172v-150h325v313l-451 -1v255zM311 663l283 1v498l-283 -1v-498zM594 1162z" />
<glyph unicode="&#xa8;" horiz-adv-x="733" d="M110 1987h224v-218h-197zM400 1987h223v-218h-196zM400 1987z" />
<glyph unicode="&#xa9;" horiz-adv-x="1564" d="M87 -382l46 417v1744h1293v-1358l51 -421h-534q-149 1 -263 78t-170 198.5t-80 268.5t6.5 293.5t90 267.5t169.5 196.5t247 75.5h194l-21 -184h-271q-91 -89 -144 -220.5t-53 -282.5q0 -152 53.5 -284.5t145.5 -221.5h406v1416h-947v-1805h1172v-178h-1391zM133 1779z " />
<glyph unicode="&#xaa;" horiz-adv-x="1011" d="M90 499v224h415l416 52v-224h-414zM203 820l390 949h139v-949h-529zM441 974h136v389zM921 775z" />
<glyph unicode="&#xab;" horiz-adv-x="901" d="M86 882l359 883h290l-301 -521l-149 -362l149 -361l301 -521h-290zM467 882l148 363l200 -1l-148 -362l147 -359h-201zM735 1765z" />
<glyph unicode="&#xad;" horiz-adv-x="1036" d="M103 728v224h414l417 52v-224h-415zM934 1004z" />
<glyph unicode="&#xae;" horiz-adv-x="1839" d="M86 -383l47 417v2026h1567v-1640l52 -421h-611l-333 816l-99 1v-816h-218l47 417v936l-47 416h422q85 -1 154 -37.5t112 -96t68 -137t28.5 -160t-12 -165t-49 -152t-88.5 -121.5t-124 -73l127 -308l194 -336h205v1698h-1223v-2086h1448v-178h-1667zM709 970h261 q57 57 90 140t33 179t-33.5 180t-90.5 141h-260v-640zM709 1610z" />
<glyph unicode="&#xaf;" horiz-adv-x="1052" d="M111 1545v224h414l417 52v-224h-415zM942 1821z" />
<glyph unicode="&#xb0;" horiz-adv-x="602" d="M104 1159v610h394l-27 -245v-121l27 -244h-394zM256 1314l63 -1v301h-53l-10 -86v-214z" />
<glyph unicode="&#xb2;" horiz-adv-x="716" d="M92 822l181 671h170v123l-96 -3v-76h-152v232h400v-183l30 -245h-222l-92 -367h64l245 30v-182h-528zM195 1769z" />
<glyph unicode="&#xb3;" horiz-adv-x="688" d="M93 1507l275 -2v110h-97v-75h-151v229h400v-174l30 -242l-171 1l216 -532h-494v182l245 -30h18l-93 225zM101 822z" />
<glyph unicode="&#xb4;" horiz-adv-x="745" d="M113 1769v172h103l417 47v-219h-520zM633 1769z" />
<glyph unicode="&#xb5;" horiz-adv-x="1327" d="M86 -744l301 520l180 438v1137l-47 417h219v-1590h278v1590h224l-51 -417v-1351h-506l-308 -744h-290zM520 1768z" />
<glyph unicode="&#xb6;" horiz-adv-x="1060" d="M86 643l52 416v704h533v-1351l47 -417h-219v649zM718 -5zM756 0v1763h172v-1346l47 -417h-219z" />
<glyph unicode="&#xb7;" horiz-adv-x="430" d="M103 644l52 416h172v-416h-224zM327 644z" />
<glyph unicode="&#xb8;" horiz-adv-x="790" d="M96 -521l302 521l92 225l204 -1l-308 -745h-290zM490 225z" />
<glyph unicode="&#xb9;" horiz-adv-x="409" d="M102 820l27 241v463l-27 241h206l-28 -245v-455l28 -245h-206zM102 1765z" />
<glyph unicode="&#xba;" horiz-adv-x="1019" d="M94 771v224h415l417 51v-223h-415zM329 1159v610h395l-28 -245v-121l28 -244h-395zM481 1314l64 -1v301h-54l-10 -86v-214zM926 1046z" />
<glyph unicode="&#xbb;" horiz-adv-x="901" d="M86 1244l200 1l148 -363l-146 -359h-201l147 359zM166 0l301 521l149 361l-149 362l-301 521h290l359 -883l-359 -882h-290zM166 1765z" />
<glyph unicode="&#xbc;" horiz-adv-x="1396" d="M85 0l301 521l511 1244h197l-719 -1765h-290zM110 820l27 241v463l-27 241h205l-27 -245v-455l27 -245h-205zM110 1765zM748 252l284 695h224l-178 -306l-98 -237h114v207h181l-25 -207h61v-151h-65v-253h-182l30 241v11h-346z" />
<glyph unicode="&#xbd;" horiz-adv-x="1384" d="M87 0l301 521l511 1244h196l-719 -1765h-289zM111 820l27 241v463l-27 241h206l-28 -245v-455l28 -245h-206zM111 1765zM764 0l182 671h170v122l-97 -2v-76h-151v232h400v-183l30 -245h-223l-92 -367h65l245 30v-182h-529z" />
<glyph unicode="&#xbe;" horiz-adv-x="1482" d="M85 1510l276 -2v110h-97v-75h-152v229h400v-174l30 -241h-171l217 -532h-495v182l245 -30h18l-93 225zM93 825zM221 0l301 521l511 1244h196l-719 -1765h-289zM834 252l284 695h224l-177 -306l-99 -237h114v207h182l-26 -207h62v-151h-66l1 -253h-182l30 241v11h-347z " />
<glyph unicode="&#xbf;" horiz-adv-x="905" d="M92 720l502 -1v499h219l-47 -417v-255l-450 1v-369h325v150h172v-328h-669v304zM589 1351v417h224l-52 -417h-172zM813 0z" />
<glyph unicode="&#xc0;" d="M85 0l301 521l467 1135h-75v219l417 -47h103v-172h-67l675 -1656h-197l-244 595h-848l-242 -595h-290zM687 768h707l-196 476l-186 322zM1012 1566z" />
<glyph unicode="&#xc1;" d="M85 0l301 521l467 1135h-75v172h103l417 47v-219h-67l675 -1656h-197l-244 595h-848l-242 -595h-290zM687 768h707l-196 476l-186 322zM1012 1566z" />
<glyph unicode="&#xc2;" d="M85 0l301 521l470 1144l-78 -9v219h520v-219l-70 8l678 -1664h-197l-244 595h-848l-242 -595h-290zM687 768h707l-196 476l-186 322zM1012 1566z" />
<glyph unicode="&#xc3;" d="M85 0l301 521l433 1054l-239 -30v224h414l417 52v-224h-156l651 -1597h-197l-244 595h-848l-242 -595h-290zM687 768h707l-196 476l-186 322z" />
<glyph unicode="&#xc4;" d="M85 0l301 521l467 1136h-55l-27 218h223v-110h80l-14 110h224v-218h-53l675 -1657h-197l-244 595h-848l-242 -595h-290zM687 768h707l-196 476l-186 322zM1012 1566z" />
<glyph unicode="&#xc5;" d="M85 0l301 521l465 1131l-1 568h395l-27 -245v-121l25 -228l663 -1626h-197l-244 595h-848l-242 -595h-290zM687 768h707l-196 476l-186 322zM1002 1765h64v300h-53l-11 -86v-214z" />
<glyph unicode="&#xc6;" horiz-adv-x="2383" d="M88 0l301 521l511 1244h290l565 -1387l4 39v934l-47 417h584v-178h-365v-639l365 45v-224h-365v-594h365v-178h-584l-244 595h-849l-242 -595h-289zM690 768h707l-196 476l-186 322zM1015 1566z" />
<glyph unicode="&#xc7;" horiz-adv-x="1056" d="M92 737q-8 147 7 294t71 280t133.5 235.5t193.5 163t251 60.5l222 -2l-20 -178h-347q-130 -124 -205.5 -308.5t-75.5 -396.5q0 -213 76 -398.5t208 -308.5h233v1l111 -1l20 -178l-235 -566h-289l301 520l15 37h-14q-149 1 -271 63t-198.5 165.5t-127.5 237t-59 280.5z M748 1770z" />
<glyph unicode="&#xc8;" horiz-adv-x="757" d="M87 0l47 417v934l-47 417h64v107l416 -47h104v-238h-365v-639l365 45l-1 -224h-364v-594h365v-178h-584zM151 1875z" />
<glyph unicode="&#xc9;" horiz-adv-x="757" d="M87 0l47 417v934l-47 417h64v60h103l416 47l1 -285h-365v-639l365 45l-1 -224h-364v-594h365v-178h-584zM670 1875z" />
<glyph unicode="&#xca;" horiz-adv-x="757" d="M87 0l47 417v934l-47 417h64v107h519l1 -285h-365v-639l365 45l-1 -224h-364v-594h365v-178h-584zM151 1875z" />
<glyph unicode="&#xcb;" horiz-adv-x="757" d="M87 0l47 417v934l-47 417h49l-14 110h224v-110h79l-13 110h224v-110h35v-178h-365v-639l365 45l-1 -224h-364v-594h365v-178h-584zM122 1878z" />
<glyph unicode="&#xcc;" horiz-adv-x="692" d="M86 1656v219l417 -47h103v-172h-520zM214 0l47 417v755l-47 417h265l-47 -417v-755l47 -417h-265zM214 1589z" />
<glyph unicode="&#xcd;" horiz-adv-x="692" d="M86 1656v172h103l417 47v-219h-520zM214 0l46 417v755l-46 417h264l-46 -417v-755l46 -417h-264zM478 1589z" />
<glyph unicode="&#xce;" horiz-adv-x="692" d="M86 1656v219h520v-219l-260 29zM214 0l47 417v755l-47 417h265l-47 -417v-755l47 -417h-265zM214 1589z" />
<glyph unicode="&#xcf;" horiz-adv-x="684" d="M85 1875h224v-218h-197zM210 0l46 417v756l-46 416h264l-46 -416v-756l46 -417h-264zM375 1875h224v-218h-197zM375 1875z" />
<glyph unicode="&#xd0;" horiz-adv-x="1454" d="M86 728v224h324v399l-47 417l344 2q135 0 251 -60.5t193.5 -163t133.5 -235.5t71 -280t7 -294t-59 -280.5t-127.5 -237t-198.5 -165.5t-271 -63l-344 9l47 417v352zM583 178h266q132 123 208 308.5t76 398.5q0 211 -75.5 396t-205.5 309h-269v-628l334 42v-224h-334v-602 z" />
<glyph unicode="&#xd1;" horiz-adv-x="1200" d="M86 0l47 417v936l-47 416h218l509 -1251l81 -140v1391h217l-46 -416v-936l49 -419h-290l-520 1278v-1276h-218zM184 1893v223h415l417 52v-224h-415zM894 1769z" />
<glyph unicode="&#xd2;" horiz-adv-x="1052" d="M85 0l47 417v934l-47 417h181v107l417 -47h103v-60h181l-46 -417v-934l46 -417h-882zM305 178h443v1412h-443v-1412zM748 1590z" />
<glyph unicode="&#xd3;" horiz-adv-x="1052" d="M85 0l47 417v934l-47 417h181v60h104l416 47v-107h181l-46 -417v-934l46 -417h-882zM305 178h443v1412h-443v-1412zM305 1590z" />
<glyph unicode="&#xd4;" horiz-adv-x="1052" d="M85 0l47 417v934l-47 417h181v107h520v-107h181l-46 -417v-934l46 -417h-882zM305 178h443v1412h-443v-1412zM305 1590z" />
<glyph unicode="&#xd5;" horiz-adv-x="1052" d="M86 0l46 417v934l-46 417h21v173h414l417 52v-224h-415l-10 -1h454l-47 -417v-934l47 -417h-881zM305 178h443v1412h-443v-1412z" />
<glyph unicode="&#xd6;" horiz-adv-x="1052" d="M86 0l46 417v934l-46 417h197l-13 107h224v-107h79l-13 107h223v-107h184l-47 -417v-934l47 -417h-881zM305 178h443v1412h-443v-1412zM305 1590z" />
<glyph unicode="&#xd7;" horiz-adv-x="835" d="M86 369l177 305l69 169l-69 168l-177 305h223l109 -266l108 266h224l-177 -305l-69 -168l69 -169l177 -305h-224l-108 266l-109 -266h-223zM86 1316z" />
<glyph unicode="&#xd8;" horiz-adv-x="1601" d="M87.5 843q-1.5 141 24 274t81 254t133 211t186.5 143.5t236 53.5h106q121 0 226 -48l14 34h196l-56 -139q84 -79 145.5 -193t94.5 -241.5t39.5 -266.5t-14 -270t-73 -250t-129.5 -208t-191 -142.5t-252 -54.5h-106q-89 1 -167 23l-10 -23h-289l81 140q-89 77 -151.5 191 t-92.5 242.5t-31.5 269.5zM322 894q0 -310 157 -554l104 181l435 1059q-13 13 -20 19h-395q-131 -124 -206 -308.5t-75 -396.5zM648 187h348q131 123 207 308.5t76 398.5q0 286 -133 516z" />
<glyph unicode="&#xd9;" horiz-adv-x="892" d="M86 1589h223v-1411h279v1411h219l-47 -417v-1172h-623v1172zM86 1589zM187 1656v219l416 -47h103v-172h-519z" />
<glyph unicode="&#xda;" horiz-adv-x="892" d="M86 1589h219v-1411h278v1411h224l-51 -417v-1172h-623v1172zM86 1589zM187 1656v172h103l416 47v-219h-519z" />
<glyph unicode="&#xdb;" horiz-adv-x="892" d="M86 1589h224v-1411h278v1411h219l-47 -416v-1173h-622v1173zM86 1589zM187 1656v219h520v-219l-261 29z" />
<glyph unicode="&#xdc;" horiz-adv-x="892" d="M86 1589h219v-1411h278v1411h224l-51 -417v-1172h-623v1172zM86 1589zM190 1875h224v-218h-197zM480 1875h223v-218h-196z" />
<glyph unicode="&#xdd;" horiz-adv-x="1179" d="M86 0l301 521l148 361l-148 362l-301 521h289l260 -639l263 639h196l-719 -1765h-289zM86 1765zM367 1769v172h103l417 47v-219h-520z" />
<glyph unicode="&#xde;" horiz-adv-x="897" d="M87 0l47 417v934l-47 417h264l-29 -262h488l-47 -417v-410l47 -417h-488l29 -262h-264zM305 440h286v888h-286v-888zM305 1328z" />
<glyph unicode="&#xdf;" horiz-adv-x="999" d="M87 0l46 417v1352h725v-169l51 -416h-363v-63h367l-52 -417v-704h-496v179l324 -1v770h-324v418h321v221h-381v-1587h-218zM133 1769z" />
<glyph unicode="&#xe0;" horiz-adv-x="1617" d="M87 0l245 424l336 818h-44v213h26h1l310 -35h102v-178h-38l506 -1242h-200l-183 446h-603l-182 -446h-276zM617 625h457l-131 321l-115 197zM828 1143z" />
<glyph unicode="&#xe1;" horiz-adv-x="1617" d="M87 0l245 424l336 818h-44v178h102l337 38v-216h-38l506 -1242h-200l-183 446h-603l-182 -446h-276zM618 625h456l-131 321l-115 197zM828 1143z" />
<glyph unicode="&#xe2;" horiz-adv-x="1617" d="M87 0l245 424l337 820l-45 -5v216h440v-216l-39 4l506 -1243h-200l-183 446h-603l-182 -446h-276zM618 625h457l-134 323l-112 195zM829 1143z" />
<glyph unicode="&#xe4;" horiz-adv-x="1617" d="M87 0l245 424l336 818h-26l-27 213h204v-82h47l-11 82h198v-213h-28l506 -1242h-200l-183 446h-603l-182 -446h-276zM617 625h457l-131 321l-115 197zM828 1143z" />
<glyph unicode="&#xe6;" horiz-adv-x="1900" d="M88 0l246 424l1 2l389 947h250l386 -947v612l-38 337h490v-183h-274v-426l274 33v-220h-274v-396h274v-183h-479l-183 446h-604l-181 -446h-277zM619 625h457l-133 324l-112 194zM831 1143z" />
<glyph unicode="&#xe7;" horiz-adv-x="884" d="M86.5 706.5q3.5 103.5 26.5 201t67 184t104.5 151t143.5 102t178 37.5l194 -2l-21 -183h-271q-91 -89 -144 -221t-53 -283q0 -152 53.5 -284t145.5 -221h256l22 -183l-175 -425h-277l243 420q-101 6 -185.5 48.5t-142 111t-97 157.5t-55.5 187.5t-12.5 202zM606 1382z " />
<glyph unicode="&#xe8;" horiz-adv-x="667" d="M89 0l38 337v701l-38 337h51v83l339 -38h100v-228h-274v-427l274 34l-1 -220h-273v-396h274v-183h-490zM140 1458z" />
<glyph unicode="&#xe9;" horiz-adv-x="667" d="M89 0l38 340v695l-38 340h51v45h102l336 38l1 -266h-273v-426l273 33l-1 -220h-272v-396h273v-183h-490zM578 1458z" />
<glyph unicode="&#xea;" horiz-adv-x="667" d="M89 0l38 340v695l-38 340h51v80h438l1 -263h-273v-427l273 34l-1 -220h-272v-396h273v-183h-490zM140 1455z" />
<glyph unicode="&#xeb;" horiz-adv-x="667" d="M89 0l38 340v695l-38 340h36l-10 83h202v-83h50l-10 83h195v-83h27v-183h-274v-426l274 33l-1 -220h-273v-396h274v-183h-490zM115 1458z" />
<glyph unicode="&#xec;" horiz-adv-x="610" d="M86 1242v216l27 -3l312 -35h99v-178h-438zM179 0l37 337v534l-37 337h253l-38 -337v-534l38 -337h-253zM432 1208z" />
<glyph unicode="&#xed;" horiz-adv-x="610" d="M86 1242v178h99l312 35l27 3v-216h-438zM178 0l38 337v534l-38 337h253l-37 -337v-534l37 -337h-253zM178 1208z" />
<glyph unicode="&#xee;" horiz-adv-x="610" d="M86 1239v216h438v-216l-219 25zM86 1455zM179 0l37 337v533l-37 337h253l-38 -337v-533l38 -337h-253z" />
<glyph unicode="&#xef;" horiz-adv-x="610" d="M86 1455h205v-212h-178zM86 1455zM180 0l38 337v534l-38 337h254l-39 -340v-528l39 -340h-254zM322 1455h202v-212h-176z" />
<glyph unicode="&#xf0;" horiz-adv-x="1462" d="M90 743.5q-8 146.5 7 293.5t71 279.5t133.5 234.5t193.5 162.5t251 60.5l70 -2l-1 2l-301 521h290l573 -1408l-359 -887h-272q-149 1 -271 63t-198.5 165t-127.5 236t-59 279.5zM321 889q0 -213 76 -398.5t207 -308.5h226l199 344l149 361l-149 362l-199 345h-228 q-131 -124 -206 -308.5t-75 -396.5zM602 1594z" />
<glyph unicode="&#xf2;" horiz-adv-x="888" d="M86 0l38 337v701l-38 337h139v83l340 -38h99v-45h139l-38 -340v-695l38 -340h-717zM303 183h283v1009h-283v-1009zM303 1192z" />
<glyph unicode="&#xf3;" horiz-adv-x="888" d="M86 0l38 337v701l-38 337h139v45h99l340 38v-83h139l-38 -340v-695l38 -340h-717zM303 183h283v1009h-283v-1009zM303 1192z" />
<glyph unicode="&#xf4;" horiz-adv-x="888" d="M86 0l38 340v695l-38 340h139v80h439v-80h139l-38 -337v-701l38 -337h-717zM303 183h283v1009h-283v-1009zM303 1192z" />
<glyph unicode="&#xf6;" horiz-adv-x="888" d="M86 0l39 340v695l-39 340h148l-10 80h200v-80h53l-10 80h195v-80h140l-2 -27l-35 -313v-695l37 -340h-716zM303 183h283v1009h-283v-1009zM303 1192z" />
<glyph unicode="&#xf7;" horiz-adv-x="1003" d="M86 728v224h415l416 52v-224h-414zM390 0l52 417h172v-417h-224zM390 1228v417h224l-52 -417h-172zM917 1004z" />
<glyph unicode="&#xf9;" horiz-adv-x="770" d="M87 1204h220v-1021h160v1021h216l-38 -337v-867h-516v864zM166 1242v216l337 -38h102v-178h-439zM166 1458z" />
<glyph unicode="&#xfa;" horiz-adv-x="770" d="M87 1208h216v-1025h160v1025h220l-42 -340v-868h-516v871zM165 1242v178h102l337 38v-216h-439zM604 1458z" />
<glyph unicode="&#xfb;" horiz-adv-x="770" d="M87 1205h220v-1022h160v1022h216l-38 -337v-868h-516v865zM166 1239v216h439v-216l-220 25zM166 1455z" />
<glyph unicode="&#xfc;" horiz-adv-x="770" d="M87 1209h216v-1026h160v1026h220l-42 -341v-868h-516v872zM164 1455h194v-212h-167zM164 1455zM396 1455h206v-212h-180z" />
<glyph unicode="&#xff;" horiz-adv-x="1179" d="M86 0l301 521l148 361l-148 362l-301 521h289l14 -34l18 144h197v-218h-185l216 -531l219 531h-184v218h196l18 -144l14 34h196l-719 -1765h-289zM407 1875z" />
<glyph unicode="&#x152;" horiz-adv-x="1503" d="M94 746q-8 147 7 294t71 280t133.5 235.5t193.5 163t251 60.5l664 -5v-179h-341l-23 -209v-430l364 46v-225l-364 1v-378l24 -216h340v-178l-664 -6q-149 1 -271 63t-198.5 165.5t-127.5 237t-59 280.5zM325 894q0 -213 76 -398.5t207 -308.5h243l24 210v985l-25 217 h-245q-130 -124 -205 -309t-75 -396zM605 1599z" />
<glyph unicode="&#x153;" horiz-adv-x="1220" d="M92.5 579q-6.5 114 5 228t55.5 217.5t105 183t152.5 126.5t198.5 47l523 -4v-182h-258l-15 -133v-295l273 34v-220h-273v-258l15 -138h258v-185h-523q-117 1 -213 49t-156 128t-100.5 184t-47 218zM314 693q0 -152 54 -284.5t146 -221.5h149l15 136v734l-15 140h-151 q-92 -89 -145 -221t-53 -283zM512 1197z" />
<glyph unicode="&#x2000;" horiz-adv-x="1147" />
<glyph unicode="&#x2001;" horiz-adv-x="2295" />
<glyph unicode="&#x2002;" horiz-adv-x="1147" />
<glyph unicode="&#x2003;" horiz-adv-x="2295" />
<glyph unicode="&#x2004;" horiz-adv-x="765" />
<glyph unicode="&#x2005;" horiz-adv-x="573" />
<glyph unicode="&#x2006;" horiz-adv-x="382" />
<glyph unicode="&#x2007;" horiz-adv-x="382" />
<glyph unicode="&#x2008;" horiz-adv-x="286" />
<glyph unicode="&#x2009;" horiz-adv-x="459" />
<glyph unicode="&#x200a;" horiz-adv-x="127" />
<glyph unicode="&#x2010;" horiz-adv-x="1036" d="M103 728v224h414l417 52v-224h-415zM934 1004z" />
<glyph unicode="&#x2011;" horiz-adv-x="1036" d="M103 728v224h414l417 52v-224h-415zM934 1004z" />
<glyph unicode="&#x2012;" horiz-adv-x="1036" d="M103 728v224h414l417 52v-224h-415zM934 1004z" />
<glyph unicode="&#x2013;" horiz-adv-x="1229" d="M103 728v224h510l514 52v-224h-511zM1127 1004z" />
<glyph unicode="&#x2014;" horiz-adv-x="2253" d="M103 728v224h1020l1028 52v-224h-1023zM2151 1004z" />
<glyph unicode="&#x2019;" horiz-adv-x="618" d="M97 1323l128 221l92 225l204 -1l-183 -445h-241zM338 1323z" />
<glyph unicode="&#x202f;" horiz-adv-x="459" />
<glyph unicode="&#x205f;" horiz-adv-x="573" />
<glyph unicode="&#x20ac;" horiz-adv-x="753" d="M85 0l47 417v934l-47 417h584v-178h-365v-415l334 41v-223h-334v-207l334 41v-224h-334v-425h365v-178h-584zM85 1768z" />
<glyph unicode="&#xe000;" horiz-adv-x="1372" d="M0 0v1372h1372v-1372h-1372z" />
</font>
</defs>
</svg>
