<svg xmlns="http://www.w3.org/2000/svg" width="516.64" height="245.39" viewBox="0 0 516.64 245.39"><g id="Layer_2" data-name="Layer 2"><g id="Layer_1-2" data-name="Layer 1"><path d="M0,132.57a52.77,52.77,0,0,1,9.18,1.67,75.61,75.61,0,0,1,21.29,8.55,52.38,52.38,0,0,0,7.2,3.26,33.73,33.73,0,0,1,6.59,3.41,3.45,3.45,0,0,0,.41.25,1.37,1.37,0,0,0,2.08-.43c.5-.81.14-1.41-.56-1.93L31.79,136.59A75.46,75.46,0,0,1,17,121.65a19.57,19.57,0,0,1-4.27-11.74,9.08,9.08,0,0,1,.24-2.38A1.85,1.85,0,0,1,15.46,106a14.44,14.44,0,0,1,3.23,1.52c0-1,0-1.91,0-2.84.13-2.5,1.46-3.56,3.91-3a70.9,70.9,0,0,1,13.45,5c3.42,1.56,6.76,3.28,10.21,4.9-.88-.81-1.74-1.64-2.65-2.41a44.56,44.56,0,0,1-8.57-9.82,20.62,20.62,0,0,1-3.11-7.87A5.51,5.51,0,0,1,33,87.24a3.8,3.8,0,0,1,4.77-1.36A15.28,15.28,0,0,1,41.28,88c2,1.45,4.23,2.53,6.1,4.16l.21-.22c-.5-.64-1-1.29-1.51-1.93a49.6,49.6,0,0,1-4-5.53c-1.92-3.23-2.09-6.78-1.7-10.34.29-2.59,3-3.53,5.06-2,.6.46,1.17,1,1.75,1.42.43-.28.23-.6.18-.89-.4-2-.82-4.07-1.21-6.11a5.66,5.66,0,0,1,.31-3.42c.95-2.17,3-2.74,4.87-1.29s3.56,2.85,5.34,4.27c.39.31.79.6,1.26,1a1.72,1.72,0,0,0-.53-1.55c-5-6.75-5-13.78.36-20.22,3-3.53,4.17-7.23,3.41-11.72-.72-4.29-.63-8.68-1.66-12.94A106.91,106.91,0,0,1,57.18,9.27a65.27,65.27,0,0,1-.24-7.4A1.79,1.79,0,0,1,60,.46c4,3,7.67,6.15,9.57,11,1.48,3.78,3.56,7.26,7.06,9.47A9.07,9.07,0,0,1,80.81,27c.54,2.5,1.11,5,.08,7.54-.36.88-.22,1.45.91,1.53a10.46,10.46,0,0,1,2.34.48c2.13.66,2.61,1.84,1.58,3.84-.46.88-1,1.72-1.49,2.6-.62,1.18-.51,1.37.78,1.72.27.07.54.14.8.23,2.28.76,2.87,2,2,4.25A27,27,0,0,1,85.1,54c-.28.41-.57.77.17,1.11,4,1.81,5,5.91,4.46,10.07a25.65,25.65,0,0,1-4.06,10.17c-.63,1-.48,1.33.71,1.35a16.05,16.05,0,0,0,2.49-.26c1.95-.27,3,.54,3.13,2.5a8.29,8.29,0,0,1-2.37,6.21,35.37,35.37,0,0,1-6.32,5.32c-.74.52-1.48,1.06-2.31,1.66a1.39,1.39,0,0,0,1.54.16c2.43-.92,4.84-1.86,7.26-2.8.37-.15.71-.36,1.07-.54,2.95-1.41,3.63-1.19,5.2,1.65.76,1.36,1.59,2.69,2.27,4.09a8.08,8.08,0,0,1-.12,7.71,42.89,42.89,0,0,1-4.12,5.89A23,23,0,0,0,91.59,112a3.64,3.64,0,0,0,2.89-1.16,24.75,24.75,0,0,1,4.65-2.93,3.09,3.09,0,0,1,3.61,0,3.71,3.71,0,0,1,1.36,3.5c-.3,6.25-3.1,11.3-7.32,15.74-2.72,2.87-5.64,5.55-8.43,8.35a23.66,23.66,0,0,1-2.56,1.77,1.42,1.42,0,0,0-.26,2.12,1.23,1.23,0,0,0,1.84.52c3.6-2.25,7.8-3.06,11.55-4.95,5.07-2.56,10.11-5.17,15-8.09a4.31,4.31,0,0,1,2.93-.85,2.92,2.92,0,0,1,2.27,3.34c-.5,5-2,9.69-5.57,13.48a83.43,83.43,0,0,1-9.69,8.21c-.16.12-.34.22-.49.35-.5.44-1,1.05-.61,1.64s.94,0,1.36-.24c4.66-2.21,9.66-3.32,14.64-4.49,1.75-.41,3.5-.86,5.25-1.26.77-.18,1.25-.46,1.33-1.38a2.41,2.41,0,0,1,4.42-1.11,1,1,0,0,0,1.12.43c3.71-.6,5.19,2.8,4,5.61a13.5,13.5,0,0,1-1.74,2.86c-.24.31-.57.6-.44,1.06.84,3.11,1.69,6.23,2.61,9.59,1.67-2.1,3.29-1.33,5-.25a20.41,20.41,0,0,0,5.6,2.7,1.84,1.84,0,0,0,1.25.13,12.52,12.52,0,0,0-2-2.17,75.09,75.09,0,0,1-5.6-6.09,6.63,6.63,0,0,1-1.35-2.38,2.91,2.91,0,0,1,1.34-3.4c1-.57,1.85-.31,3,1,1.7,1.93,4.1,2.83,6.19,4.46-.07-1.88-.44-3.28-2-4.3a11.79,11.79,0,0,1-3.73-4,3.82,3.82,0,0,1-.18-4c1-1.69,2.05-1.93,3.62-.81.25.18.47.56.81.39s.16-.58.18-.89a5.05,5.05,0,0,0-.44-2.32,3.06,3.06,0,0,1,.33-3.48,3.33,3.33,0,0,0,.48-2.18c.21-3.68.81-7.3,1.29-11a9,9,0,0,1,.34-1.52c.41-1.31,1-1.67,2.34-1.37,2,.45,4.15.35,6.15,1,.52.17.82-.12,1.12-.47a29.84,29.84,0,0,0,3.76-5.84,2,2,0,0,0,0-1.51,17.83,17.83,0,0,1-.55-2.21,2.42,2.42,0,0,1,2.69-3c.72,0,1-.17,1.23-.79a3.79,3.79,0,0,1,.39-.87,4.45,4.45,0,0,0,.39-4.29c-1-2.82.92-4.87,3.86-4.33.2,0,.44.19.57.12,1.36-.69,1.47.36,1.76,1.21a4,4,0,0,0,.53,1.06c4.55,6,8.68,12.28,13.48,18.08a9.1,9.1,0,0,0,1.9,1.82,2.19,2.19,0,0,0,3,0,2.33,2.33,0,0,0,.47-2.86,12.69,12.69,0,0,0-2-3c-2.47-3.19-5.25-6.13-7.68-9.37-3.13-4.18-4.74-9-6.07-14A3.42,3.42,0,0,1,180.32,89a3,3,0,0,1,1.82.82,11.76,11.76,0,0,1,2,2.39c2.37,3.52,5.08,6.78,7.72,10.09a16,16,0,0,0,5,4.09c.38.2.79.62,1.2.35s.21-.82.21-1.24a10.62,10.62,0,0,0-1.39-4.92,56.24,56.24,0,0,1-5.24-15.88A36,36,0,0,1,191,78a3.79,3.79,0,0,1,1.29-3.11,3.06,3.06,0,0,1,4.86,1.33c.9,2.13,1.59,4.35,2.37,6.53a18,18,0,0,0,4,7c.2.2.4.4.61.59a4.62,4.62,0,0,0,.43.27,55.25,55.25,0,0,0-1.76-6.39c-1.4-4.5-3-9-3.55-13.67a13.1,13.1,0,0,1-.16-4,2.38,2.38,0,0,1,1.71-2,2.22,2.22,0,0,1,2.5.71A25.42,25.42,0,0,1,207,70.69a22.85,22.85,0,0,0,5.6,7.49L211,73.73q-1.94-5.49-3.85-11a5.42,5.42,0,0,1-.35-3.06,2.64,2.64,0,0,1,4.52-1.4,20.35,20.35,0,0,1,2.31,2.6,3.76,3.76,0,0,0,2.25,1.5c.54.11,1,.11.63-.7-2.5-5-1.52-9.74,1.12-14.38a157.92,157.92,0,0,1,13.19-19.15,46.11,46.11,0,0,0,5-8.15c1.65-3.34,3.81-3.81,6.71-1.43,2.65,2.17,3.18,5,2.41,8.24a46.77,46.77,0,0,1-6.24,14.34,7.25,7.25,0,0,0-1.06,2.14A1.87,1.87,0,0,0,239,45.85a14.85,14.85,0,0,0,2.22.48,6.77,6.77,0,0,1,2.58.92,2.62,2.62,0,0,1,1.24,2.68c-.76,4.86-1.68,9.69-4,14.14A20.23,20.23,0,0,1,229.4,74.29c-1.35.48-2.71.95-3.53,2.43l9.63-.48c.8,0,1.6-.12,2.39-.1A2.77,2.77,0,0,1,240.7,78c.37,1.15,0,2.18-1.29,3.08-1.64,1.14-3.33,2.2-5,3.3-.57.38-1.15.74-1.71,1.12-.19.13-.46.3-.48.47,0,.33.31.45.57.51a15.15,15.15,0,0,0,2.11.42c1,.09,2,.21,2.49,1.31a3.21,3.21,0,0,1-.5,3.28,5.81,5.81,0,0,1-2,1.62,59,59,0,0,1-8.27,3.52c-.43.15-1.19.14-1,.92.18.61.52,1.19,1.34,1.15.48,0,1,0,1.44,0a2.63,2.63,0,0,1,2.48,4.08,7.46,7.46,0,0,1-2.17,2.37,48.83,48.83,0,0,1-20.62,9.78,8.16,8.16,0,0,0-4.8,2.51c-.48.57-.6,1,.29,1.12l3.07.52c.84.15,1.33-.37,1.85-.88.35-.35.83-.77,1.11,0,.44,1.15,1.32,1,2.19.87a52.16,52.16,0,0,0,9-2c1.53-.48,3.05-1,4.6-1.38s2.77-.07,3.45,1.12.45,2.34-.76,3.55c-4.28,4.26-9.54,6.63-15.33,8-2.45.58-2.45.59-2.43,3.06,0,1.61,0,1.66,1.57,1.37,4.47-.84,9-1.27,13.46-2.28,2.6-.58,4.27.5,4.39,2.67a4.13,4.13,0,0,1-1.64,3.33,29.31,29.31,0,0,1-5.33,3.86,33.09,33.09,0,0,1-11.42,3.83c-.86.14-1,.47-.92,1.28.23,2,.65,4,1.07,6,.15.75.3.95,1.11.89,4.38-.32,8.77-.57,13.15-.83a9,9,0,0,1,1.8.09,2.72,2.72,0,0,1,2.39,2.21,2.77,2.77,0,0,1-1.19,3.15,22.79,22.79,0,0,1-5.67,2.83c-3.33,1-6.7,1.87-10.11,2.55a1.42,1.42,0,0,0-1.36,1.37,4.75,4.75,0,0,1-1.86,2.92l7-1.35a16.78,16.78,0,0,1,2.12-.37,2.53,2.53,0,0,1,2.48,3.73,5.85,5.85,0,0,1-1.81,2c-4.15,3.14-8.38,6.16-12.72,9-.33.21-.73.34-.92.74a2.88,2.88,0,0,0,2.53.06c1-.26,2-.42,2.65.69a2.36,2.36,0,0,1-.5,3.15c-1.85,1.58-3.73,3.12-6.35,3.34a6.09,6.09,0,0,0-4.17,2,32.78,32.78,0,0,0,4.67-.57c3.73-.47,7.42-1.18,11.18-1.35a8.46,8.46,0,0,1,1.67.06,2.45,2.45,0,0,1,2.13,1.7,2.15,2.15,0,0,1-.76,2.58c-2.17,1.61-4.2,3.49-6.89,4.27a76.75,76.75,0,0,1-8.48,2.13,6.55,6.55,0,0,0-3.67,1.61c-.55.52-.61.89.22,1.16a3.29,3.29,0,0,0,1.89,0c2.71-.69,5.44-1.28,8.13-2.05,2.93-.83,5.78-.36,8.64.31l.81.18c1.31.27,1.33.33.67,1.53-.13.22-.4.4-.27.78,1.46-.41,2.92-1.29,4.54,0-.29-.9-.53-1.64-.78-2.38s0-1.25.76-1.59a16,16,0,0,1,9.06-.82c3.4.52,6.76,1.24,10.19,1.51.52,0,1,0,1.84,0a19.54,19.54,0,0,0-5-2.45c-1.9-.62-3.87-1-5.82-1.43a24.67,24.67,0,0,1-10-4.76,11.72,11.72,0,0,1-3.1-3.92,17.06,17.06,0,0,0-1-1.75c-.55-.84-1-1.66-.35-2.65a2.32,2.32,0,0,1,2.76-.88c1.66.42,3.31.93,5,1.39,4.74,1.31,9.49,2.56,14.33,3.46.22,0,.44,0,.89.09a13.22,13.22,0,0,0-4.55-2.52c-1.84-.68-3.71-1.28-5.54-2-3.6-1.38-6.24-3.69-7.17-7.6-.36-1.49-.17-1.71,1.39-1.82,3.21-.24,6.27.53,9.34,1.28a22.27,22.27,0,0,0,6.39.9c.26,0,.61.12.74-.22s-.15-.51-.33-.72a5.66,5.66,0,0,0-3-1.73,40.92,40.92,0,0,1-5.34-2.12,11.84,11.84,0,0,1-5.73-5.74,3,3,0,0,1,.34-3.78c1.06-1.14,2.29-.92,3.54-.41l9.08,3.77a3.82,3.82,0,0,0,1.59.48,4.35,4.35,0,0,0-1.3-1.71,11.64,11.64,0,0,0-3.23-2.05,25.42,25.42,0,0,1-7.17-5c-1.29-1.18-2.4-2.54-1.69-4.51a2.49,2.49,0,0,1,3.29-1.75,6.54,6.54,0,0,1,1.67.66,47,47,0,0,0,6.57,2.71q-1.76-1.91-3.52-3.8a26.29,26.29,0,0,1-2.49-3.07,5.59,5.59,0,0,1-.85-1.71,2.48,2.48,0,0,1,1-2.76,2.06,2.06,0,0,1,2.57,0c1.17.76,2.3,1.6,3.45,2.4.28.2.58.38,1,.67a5,5,0,0,0-1.67-3.36,12.85,12.85,0,0,1-2.49-3c-1-1.83-.79-3,.66-4.41a42.63,42.63,0,0,0,8.82-14.31c1.76-4.33,3.41-8.71,5.11-13.06a10.31,10.31,0,0,1,2.37-3.85c.43-.41.79-.8,1.44-.53a1.47,1.47,0,0,1,.95,1.52c-.14,2.87-.28,5.75-.46,8.62-.56,9.14-1.06,18.28,1.13,27.32a10.53,10.53,0,0,1,.31,3,5.78,5.78,0,0,1-4,5.55,8.15,8.15,0,0,0-.74.4,5.41,5.41,0,0,0,2.7-.64c.88-.34,1.76-.75,2.56.08a2.79,2.79,0,0,1,.64,2.9,7.24,7.24,0,0,1-3,3.79,34.26,34.26,0,0,1-6,3,17.8,17.8,0,0,0-2.1,1,7.93,7.93,0,0,0,4.48-.14,38.91,38.91,0,0,1,5.08-1.38,14.11,14.11,0,0,1,1.43-.14c1.73,0,2.5,1,2,2.68a10,10,0,0,1-3.63,4.8,10.64,10.64,0,0,1-4,1.91c-.92.24-1.84.51-2.74.84-1.58.57-3.13,1.2-4.7,1.94a7,7,0,0,0,3.4.22,72.16,72.16,0,0,0,7.23-1.69,9,9,0,0,1,5.3.24c.89.34,1.15.8.86,1.72a9.79,9.79,0,0,1-5.15,5.89c-2.5,1.29-5.23,2-7.83,3a21.49,21.49,0,0,0-3.55,1.72c3.92-.43,7.83-.85,11.74-1.3,1.51-.17,3-.4,4.52-.56a2.2,2.2,0,0,1,2.48,1c.56,1,0,1.74-.64,2.46a4,4,0,0,0-.54.64c-2.14,4.05-5.92,5.36-10.07,6.06a14.38,14.38,0,0,0-5.36,1.62,6.39,6.39,0,0,0-2.63,2.67c1.94-.4,3.69-.74,5.43-1.12,3.48-.76,7-1.47,10.48-2a11.42,11.42,0,0,1,1.55-.1,2.6,2.6,0,0,1,2.7,1.39,2.79,2.79,0,0,1-.41,3.14,14.15,14.15,0,0,1-8,5.44c-3,.73-6,1.46-9,2.21a2.42,2.42,0,0,0-2,1.8c-.27,1.07-.14,1.25.93,1.07,2.87-.49,5.74-1.06,8.62-1.46a24.84,24.84,0,0,1,7.65-.12,6,6,0,0,1,.93.21c1.89.59,2.24,1.94,1,3.47a16.77,16.77,0,0,1-10,6,65.17,65.17,0,0,1-7.07,1.32c-1.4.14-2,.77-2,1.9a1.52,1.52,0,0,0,1.64,1.76,36.6,36.6,0,0,0,9.05-.39,8.19,8.19,0,0,1,6.52,1.37c1.39,1,1.53,2,.22,3.12a14.58,14.58,0,0,1-10.79,3.76,12.58,12.58,0,0,0-4.41.23,3.57,3.57,0,0,0-2.54,4.2c.12.6.45.63,1,.57a23.26,23.26,0,0,0,5.46-1.31,22.42,22.42,0,0,1,6-1.55,20.44,20.44,0,0,1,6.38.75c1.7.43,2.05,2.6.65,4a19.51,19.51,0,0,1-7.32,5.09,29.14,29.14,0,0,1-6.43,1.37,8.67,8.67,0,0,0-6.58,4.5c-.37.58-.21.83.45,1a11,11,0,0,0,4.63-.21c2.71-.54,5.25-1.71,8-2.1,2.25-.32,4.49-.82,6.79-.45,2.73.43,3.83,1.89,3.53,4.68H224.18a3.49,3.49,0,0,1,2.49-1.27,35.57,35.57,0,0,1,7.65-.1c3.35.19,6.7.41,10,.63,1.15.08,1.63-.54,1.62-1.58a15.49,15.49,0,0,0-.25-2.25c-.41-2.52-1.45-3.21-3.92-2.51a2.77,2.77,0,0,1-2.4-.28c-3.31-2.11-7.3-2.32-10.93-4.1,1.24,2.57.63,4-1.89,4.63a44.55,44.55,0,0,1-5.71,1.31c-.44.05-.85.11-1.06.61a10.82,10.82,0,0,1-4.76,4.91H181.94c-.21-.1-.43-.21-.65-.3-2.43-.94-4.81-2-6.29-4.3-.25-.41-.67-.35-1.06-.41a24.43,24.43,0,0,0-7.49.3,26.14,26.14,0,0,0-11.87,4.71q-76.74,0-153.48,0c-.9,0-1.1-.2-1.1-1.1q0-44,0-88a3.82,3.82,0,0,1,1.78,0,68,68,0,0,1,14,3.73,3.4,3.4,0,0,0,4.13-1.2c-.22-.11-.42-.23-.64-.32a38.86,38.86,0,0,1-8.66-4.82A100.43,100.43,0,0,1,0,144.57Zm225.21,70.36a3.86,3.86,0,0,1-1.19,4,31.11,31.11,0,0,1-4.07,3.54c-.85.61-1.41,1.1-.9,2.32a3.07,3.07,0,0,1-.72,3,8.11,8.11,0,0,1-2.15,1.89,20.91,20.91,0,0,1-7.09,2.49c-2.82.58-5.66,1-8.46,1.7a2.42,2.42,0,0,0-1.72,3.85c.39.68.85.92,1.55.4a4.8,4.8,0,0,1,1.32-.81c4-1.23,7.87-2.69,11.95-3.55a7.73,7.73,0,0,1,3.91,0c2.3.69,3.05,2.71,1.68,4.68a11.55,11.55,0,0,1-3.17,2.9l-1.45,1a99.09,99.09,0,0,1,12.49,2.89,2,2,0,0,0,0-.27c-.12-.16-.25-.31-.38-.47a4.34,4.34,0,0,1-.61-4.73c.67-1.61,2.16-1.87,3.69-1.94a8.5,8.5,0,0,1,1.67.08,74.78,74.78,0,0,1,10.95,2.59c.93.3,1.83.43,2.4-.63a3.45,3.45,0,0,0-1.58-4.7,10.44,10.44,0,0,0-2.07-.59,34.16,34.16,0,0,1-7.65-2.4,15.94,15.94,0,0,1-7.41-6.92c-.92-1.76-.47-2.77,1.45-3.34a11.63,11.63,0,0,1,6.51-.07c1.89.5,3.74,1.14,5.61,1.71a16.21,16.21,0,0,0,5.44.87,9.22,9.22,0,0,0-3.66-3.52,24,24,0,0,0-6.89-1.95C231.35,206.39,227.92,206,225.23,202.93Zm-29.53-8.08c0-.38-.32-.4-.52-.5-3.07-1.55-6.41-2.44-9.58-3.76a1.8,1.8,0,0,0-1.29.09,64.34,64.34,0,0,1-16.12,2.74c-1.5.06-3.19-.22-4.48.93a12,12,0,0,1-5.26,2.75c-1.46.34-1.74,1.37-2.11,2.59,1.26-.31,2.37-.63,3.5-.84,3.33-.63,6.58-.69,9.66,1.07,1.05.6,1.15,1.15.47,2.05s-1.25,1.73-2,2.72c1-.07,1.92-.09,2.81-.2,2.52-.31,4.89.61,7.35.83a56.53,56.53,0,0,1,5.92.82c3.48.68,6.95,1.54,10.55,1,.35-.05.79,0,1-.35s-.17-.68-.37-1a6.77,6.77,0,0,0-4.43-2.37c-1.76-.36-3.55-.61-5.3-1a5.66,5.66,0,0,1-4.75-5.43c-.12-1.35,0-1.64,1.36-1.83a43.45,43.45,0,0,1,9.67-.37C193.07,194.94,194.39,194.85,195.7,194.85Zm-17.26,24.57-6.77-1.15c-.35-.05-.75-.27-1,.1-.81,1.13-2.13,1.52-3.17,2.3a18.17,18.17,0,0,1-11.24,3.43c-2.49,0-4.95-.35-7.42-.23-.66,0-1.43,0-1.42,1s.32,1.65,1.33,1.84a2.11,2.11,0,0,0,.83,0,13.41,13.41,0,0,1,4.77.13,6.92,6.92,0,0,0,2.13,0,67.34,67.34,0,0,1,10.71-1c1.52,0,3.06.47,4.6-.16a1.59,1.59,0,0,1,1.77.75c1.81,2.34,2.77,2.12,5.18.63.21-.12.41-.26.63-.36.74-.31.85-.64.25-1.29a11.53,11.53,0,0,1-2.39-4C176.66,220,176.67,219.92,178.44,219.42Zm-50.69-42.14c-.34-.54-.59-.91-.81-1.28-1.06-1.79-.75-3.07,1.1-4,.64-.34.48-.7.35-1.17a74.68,74.68,0,0,1-1.92-8.88c-.13-.77-.29-.94-.91-.36a51.67,51.67,0,0,1-8.16,6.26c-.63.39-.7.75-.21,1.31a23.83,23.83,0,0,1,4.39,7.65c.13.37.26.81.77.79C124.09,177.48,125.83,177.38,127.75,177.28ZM95.9,182a17.35,17.35,0,0,0,3.79-1.05,72,72,0,0,1,11.24-2.35c1.33-.17,1.42-.28.88-1.46-.64-1.38-1.37-2.71-2-4.07a1,1,0,0,0-1.53-.59,45.67,45.67,0,0,0-6.59,2.85,9.81,9.81,0,0,1-6.51,1.53,1.1,1.1,0,0,0-1.08.4,3.16,3.16,0,0,0-.84,3.08A2.72,2.72,0,0,0,95.9,182Zm72.78-45.11c-2,1.43-1.4,3-.59,4.67s1.5,3.27,2.34,4.86a33.17,33.17,0,0,0,4.46,6.79,1.65,1.65,0,0,0,2.36.31,1.81,1.81,0,0,0,.85-2.25,14.31,14.31,0,0,0-2.34-4.29,55.76,55.76,0,0,1-6.86-11.78c-.45-1.07-.89-1.52-1.91-.64-.2.17-.53.19-.76.33s-.95,0-.87.62a1.26,1.26,0,0,0,1,1.17C167.09,136.8,167.79,136.66,168.68,136.85Zm-70.44,70,.91-.2c2.41-.54,4.69-1.56,7.15-2,3-.49,6-1.09,9.08-1.54,1.06-.16,1.2-.46.62-1.31s-.72-2.28-1.62-2.72-2.15.24-3.23.47A27.93,27.93,0,0,0,101,203.36a5.25,5.25,0,0,1-3.46,1.06c-.29,0-.68-.13-.83.27S97.7,206.87,98.24,206.86Zm93.68-36.25c-.08-.52-.45-.73-.71-1a47.31,47.31,0,0,1-4.59-5.52,3.49,3.49,0,0,0-3.18-1.65,15.46,15.46,0,0,0-3.46.18,4.31,4.31,0,0,0-3.47,4,1.69,1.69,0,0,0,1.31,1.79c.87.25,1.79.36,2.69.56a1,1,0,0,0,1.25-.58,1.74,1.74,0,0,1,2.32-1c1.59.7,3.36,1.08,4.7,2.31C189.68,170.58,190.78,170.54,191.92,170.61Zm-56.3,63.16c1,0,2,0,3,0s.93-.8,1-1.39c0-.81-.6-.43-1-.39a3.19,3.19,0,0,1-2.14-.61,3.74,3.74,0,0,0-2.69-.65,18.9,18.9,0,0,1-8.19-.41c-.58-.16-1.31-.58-1.44.53-.09.84-.65,1.68.86,2.09C128.53,233.89,132.09,233.47,135.62,233.77ZM164.44,171a3.49,3.49,0,0,0,3.78-3.25c.2-2.5-1.25-4.38-2.38-6.38-.27-.47-.59-.17-.91,0a25,25,0,0,1-2.9,1.41c-1,.35-1.07.85-.9,1.8.22,1.24.67,1.88,2,1.54a3.75,3.75,0,0,1,.95,0,1.83,1.83,0,0,1,1.81,2.74A12.34,12.34,0,0,1,164.44,171Zm27.3-19.61a1.34,1.34,0,0,0,1.31-.71,45,45,0,0,0,3.46-4.89c.14-.23.44-.48.26-.74s-.58-.1-.88-.06c-2.43.29-4.41,1.8-6.7,2.48a1.45,1.45,0,0,0-.95,1.64,1.91,1.91,0,0,0,1.1,1.72A9.19,9.19,0,0,0,191.74,151.41Zm6.84-16.7c3.53-.08,3.56-.1,4.68-3.48.06-.19.12-.38.19-.56.26-.67.09-1-.68-.87a26.25,26.25,0,0,0-4.87,1.2c-1.37.53-1.91,1.33-1.67,2.4C196.52,134.71,197.55,134.72,198.58,134.71ZM11.85,234.9A10.48,10.48,0,0,1,6,233.37c-1.39-1-2.75-.4-4.13-.32a.7.7,0,0,0-.65.62c-.05.44.36.47.64.56a8.91,8.91,0,0,1,2.82,1.54C7.29,237.78,9.36,237.57,11.85,234.9ZM121,227.79a4,4,0,0,1,2.31.86c.22.15.41.56.79.17a1.68,1.68,0,0,0-.49-2.85,5,5,0,0,1-1-.5,3.64,3.64,0,0,0-3.86-.51c-1.71.61-1.76.48-1.62,2.25.12,1.53.43,1.73,1.89,1.16A6,6,0,0,1,121,227.79ZM137,170.21c.43,1.32.94,2.62,1.26,4,.46,1.86,1.74,2.44,3.44,2.5a3.63,3.63,0,0,1,2.31.82,3.79,3.79,0,0,0,2.35.75C143.28,175.27,139.38,173.63,137,170.21Zm-1.49,29.09a5.91,5.91,0,0,0-2-1.4c-.63-.28-1.35-1.1-1.9-.64s-.22,1.43-.23,2.19c0,.42.18.68.67.59A20.68,20.68,0,0,0,135.48,199.3Zm54.8,21a37.88,37.88,0,0,1,4.73,1.73c.3.14.76.48.93.05a2.92,2.92,0,0,0,0-2c-.12-.39-.47-.32-.8-.29C193.6,220,192,220.16,190.28,220.33Zm-28.6-65.66-1.34.28c-1.12.25-1.41.94-.82,1.9a.61.61,0,0,0,.7.31,24.71,24.71,0,0,0,2.86-.65C163.33,156.43,162.17,154.69,161.68,154.67Zm-9.35,21.93a6.88,6.88,0,0,0,3.08,1c.36,0,.74,0,.59-.57-.37-1.53-1.14-1.91-2.49-1.19C153.17,176.05,152.85,176.27,152.33,176.6Z"/><path d="M282.74,245.37c.29-.67.11-1.09-.64-1.2-.51-.07-1-.12-1.54-.17s-1.07,0-1.25-.5.38-.74.7-1a44.19,44.19,0,0,1,5.68-3.79c2.43-1.49,4.82-3,6.21-5.67a15,15,0,0,0,.63-1.42c.13-.32.33-.69,0-1a.94.94,0,0,0-1.23-.14c-1.54,1.11-3.1.57-4.7.2-2.53-.6-5.12-1-7.43-2.26a4.56,4.56,0,0,1-2.76-4,2.79,2.79,0,0,1,1.69-2.79,11,11,0,0,1,4.18-1c2.15-.16,4.31-.22,6.45-.49a3.15,3.15,0,0,1,1.72.46c.84.4,1.35.15,1.61-.75a2.41,2.41,0,0,0-1.93-3.25c-1.62-.41-3.29-.6-4.9-1.11a13.59,13.59,0,0,1-7.8-5.83,13.05,13.05,0,0,0-1-1.34,2.3,2.3,0,0,1-.55-2.54,2.58,2.58,0,0,1,2.4-1.52,14.67,14.67,0,0,1,4.37.63c2.6.65,5.18,1.39,7.76,2.08l1.06.25a6.86,6.86,0,0,0-5.16-4.48q-3.06-.84-6.17-1.52a7.08,7.08,0,0,1-4.74-3.56c-1-1.75-.71-2.78,1.16-3.61,2.55-1.14,5.24-.95,7.91-.71a34.44,34.44,0,0,0,5.28.37,12.27,12.27,0,0,0-3.42-2c-2.81-1.14-5.67-2.17-8.46-3.38a12.64,12.64,0,0,1-7.53-8c-.44-1.42-.37-1.48,1.13-1.73a20.21,20.21,0,0,1,8.64.82,2.38,2.38,0,0,0,1.23.22,11.51,11.51,0,0,0-2.71-2.56,27.52,27.52,0,0,1-2.73-2.33,3.19,3.19,0,0,1-.77-3.93,3.07,3.07,0,0,1,3.42-1.4c1.46.21,2.91.47,4.37.71a3.16,3.16,0,0,0,1.7,0c-.2-.56-.7-.77-1.11-1a21.94,21.94,0,0,0-4.72-2,11.33,11.33,0,0,1-5-3.27,4.36,4.36,0,0,1-1.25-3.27c.16-2.16,1.66-3.14,3.57-2.14a20.54,20.54,0,0,0,6.28,1.9,10.1,10.1,0,0,0,3.71-.09c-.69-.26-1.37-.54-2.07-.79a32.37,32.37,0,0,1-7.25-3.69,9.94,9.94,0,0,1-2.28-2.11,4.47,4.47,0,0,1-.94-4.26,1.67,1.67,0,0,1,2.29-1.3c.92.27,1.8.67,2.7,1a4.15,4.15,0,0,0,2.7.24,19.88,19.88,0,0,0-2-2.4c-1.3-1.55-2.8-3-3.05-5.17-.09-.77,0-1.12.85-1.32,2.54-.61,3-1.73,2-4.13-.32-.73-.67-1.45-1-2.2a.92.92,0,0,1,.54-1.36c2.06-.76,2.91-2.44,3.2-4.43a11,11,0,0,1,3.24-6.49c2.71-2.69,4.21-6.19,5.48-9.75.95-2.68,1.76-5.4,2.64-8.1A19.4,19.4,0,0,1,298,96c.24-.24.44-.68.86-.46s.25.57.23.88c-.27,5,.22,9.91,0,14.86a64.62,64.62,0,0,1-1.29,12,9.58,9.58,0,0,0-.17,1.31c-.09,1.21.26,1.56,1.43,1.28.62-.14.87,0,.72.6a10.44,10.44,0,0,0,.18,4.17,6.11,6.11,0,0,1-3.42,7,5.36,5.36,0,0,0-1.76,1.2,4.25,4.25,0,0,0,2.47,0c.67-.12,1.33-.32,2-.43,1.4-.22,2.12.33,2.29,1.75a4.09,4.09,0,0,1-2.24,4.18,32.76,32.76,0,0,1-3.82,1.72c-.69.3-1.37.64-2.2,1a3.25,3.25,0,0,0,2.94.08c1-.28,2-.71,3.09-.94a2.87,2.87,0,0,1,2.84.48c.68.76-.05,1.67-.36,2.45-1.35,3.31-4.09,4.88-7.37,5.71a3,3,0,0,0-1.27.44,1.73,1.73,0,0,0,2.22.84,9.29,9.29,0,0,0,2.82-1.31,6.48,6.48,0,0,1,2.54-1,2.33,2.33,0,0,1,2.52,1.24,2.27,2.27,0,0,1-.27,2.59,17.13,17.13,0,0,1-3.22,3c-1.73,1.35-3.53,2.63-5.29,3.94-.21.16-.52.24-.56.72l10.22-2.09c.54-.11,1.09-.25,1.64-.31a2.15,2.15,0,0,1,2.36.78,2.59,2.59,0,0,1,.05,2.84,10.68,10.68,0,0,1-4.39,4.14,31,31,0,0,1-5.77,2,15.3,15.3,0,0,0-3.53,1.41,4.64,4.64,0,0,0,4,.22,33.76,33.76,0,0,1,5-.77,5.38,5.38,0,0,1,1.79,0c2.65.62,3.71,1.34,1.86,3.85a13.1,13.1,0,0,1-5.37,4.11c-.94.42-1.9.8-2.84,1.29a46.34,46.34,0,0,0,6.87,0,6.1,6.1,0,0,0,4.83-3.7c.89-1.81,1.22-2,3.2-1.52,3.09.78,6.16,1.69,9.24,2.54.38.11.76.19,1.27.32a3.87,3.87,0,0,0-1.93-2.4,6.06,6.06,0,0,0-2.46-.91,18.34,18.34,0,0,1-5.63-2.29c-2.24-1.16-3.17-3.21-3.69-5.48-.38-1.68.87-2.7,2.52-2.15a37.43,37.43,0,0,0,7.43,1.86,2.06,2.06,0,0,0,1.27,0c-2.46-1.32-4.85-2.57-7.21-3.89a16.22,16.22,0,0,1-3.95-2.9,4.76,4.76,0,0,1-1.43-2.84,2.07,2.07,0,0,1,2.58-2.41c.67.11,1.33.3,2,.4.33.05.75.14,1-.26a.91.91,0,0,0-.2-1,10.87,10.87,0,0,0-1-1.31c-.42-.48-.91-.9-1.32-1.39-.69-.81-1.33-1.67-.65-2.8a2.9,2.9,0,0,1,3.12-1.3,21.71,21.71,0,0,1,3.46,1.34,5.37,5.37,0,0,0,1.71.51c.72,0,.89-.29.52-.88a2.89,2.89,0,0,0-1.72-1.23c-2.72-.77-4.73-2.78-7.12-4.12-1.48-.81-1.56-2.08-.59-3.47a1.46,1.46,0,0,1,.37-.47c1.9-1.12,1.72-2.82,1.33-4.6a6.68,6.68,0,0,1-.14-1.55c0-1.17.56-1.72,1.74-1.64s2.6.35,4,.55c0-1.11-.76-1.61-1.57-2a11,11,0,0,1-3.74-3.48,2.27,2.27,0,0,1-.52-2.13,2,2,0,0,1,3-1.39c.54.25,1.06.56,1.6.82a.68.68,0,0,0,.79,0c.26-.23.1-.52,0-.77A3.91,3.91,0,0,0,316.1,123a5.71,5.71,0,0,1-2.09-2.57c-.25-.67-.24-1.24.57-1.55,2.18-.82,3.17-2.56,3.61-4.73a37.93,37.93,0,0,1,1-4.81,5.68,5.68,0,0,1,1.75-2.67,12.56,12.56,0,0,0,3.8-5.72c.63-1.73,1.24-3.46,2-5.16a10.49,10.49,0,0,1,3.3-4.35c1.09-.83,1.64-.6,2.06.75s-.06,2.6-.31,3.88c-1.12,5.76-2.51,11.48-2.57,17.39a17.38,17.38,0,0,0,1.7,7.66c1.24,2.66,1,3.69-1.38,5.41a4.14,4.14,0,0,0-.48.34c-.43.43-1.42.69-1.18,1.3s1.16.17,1.78.17c.83,0,1.67-.08,2.51-.14,1-.07,1.22.48,1,1.36a7.31,7.31,0,0,1-2.27,4c-.82.76-1.68,1.47-2.51,2.23-.22.2-.63.41-.44.76s.67.15,1,0c.75-.38,1.46-.82,2.18-1.24,1.47-.87,2.37-.52,2.92,1.11a3.71,3.71,0,0,1-1,3.86c-1,1.07-2,2.05-3,3.08-.18.19-.52.4-.35.69s.59.2.86.07c1.05-.49,2.07-1,3.12-1.53,1.84-.86,3-.18,3.24,1.86a4.24,4.24,0,0,1-1.27,3.71,29,29,0,0,1-4.71,3.28c-.4.27-1.29.4-1,1.1s1,.33,1.52.1c1.47-.65,3.08-.85,4.58-1.39,1-.36,2.05-.53,2.82.53a3.05,3.05,0,0,1,0,3.49,6.21,6.21,0,0,1-2.21,1.8,53.57,53.57,0,0,0-5.37,2.93,11.84,11.84,0,0,0-2.48,2.16c2.61-.63,5-1.25,7.41-1.76,1-.22,2.1-.41,2.8.71a2.73,2.73,0,0,1-.22,3.15c-.06.1-.14.2-.21.3A8.7,8.7,0,0,1,334,168a20.51,20.51,0,0,0-4.65,1.91c-.45.29-1.36.56-1.08,1.18a1.57,1.57,0,0,0,2.09.63,2.41,2.41,0,0,0,.66-.27c1.78-1.29,3.9-1.34,5.95-1.56a2.43,2.43,0,0,1,2.65,3.16,6.11,6.11,0,0,1-2.63,3.32,51.55,51.55,0,0,1-6.7,3.73c-.33.18-.93.28-.85.71s.69.43,1.12.47a3.65,3.65,0,0,0,2.37-.68,20.83,20.83,0,0,1,3.72-1.93,2.13,2.13,0,0,1,2.47.26,2.74,2.74,0,0,1,.86,2.83,7.34,7.34,0,0,1-3.41,4c-1,.68-2.18,1.19-3.27,1.77a9.87,9.87,0,0,0-2.48,1.87c-.69.71-.41,1.12.39,1.35a5,5,0,0,0,2.85,0c2.2-.68,4.45-.36,6.66-.29,1.79.07,2.54,1.46,2,3.29a6,6,0,0,1-5.34,4c-1.23.12-2.46.28-3.68.51a4.73,4.73,0,0,0-2.56,1.47c-.57.62-.35,1,.37,1.18a3.54,3.54,0,0,0,2.9-.39c2.51-1.72,5.23-1.43,8-.92,2.09.39,2.81,1.65,2.17,3.67a10.39,10.39,0,0,1-1.77,3.25,3.5,3.5,0,0,1-2.4,1.42c-2.9.37-5.18,2-7.35,3.8a23.32,23.32,0,0,1-5.69,4c-.53.23-1.22.84-1.71.11s.27-1.07.6-1.54,1.27-1,.89-1.66-1.38-.51-2.12-.36a5.77,5.77,0,0,1-4-.62,46.26,46.26,0,0,1-4.8-2.72,7.58,7.58,0,0,1-2.18-2.19,3.5,3.5,0,0,1-.16-3.86,3.07,3.07,0,0,1,3.39-1.27c3.37.54,6.82.68,10.33,1.77a9.8,9.8,0,0,0-4.56-3.25,41.27,41.27,0,0,0-5.67-1.53,11.94,11.94,0,0,1-5.51-2.49c-.44-.39-.65-.29-.91.16-1.41,2.48-3.76,3.75-6.26,4.79-2.07.87-4.21,1.55-6.2,2.59a13.52,13.52,0,0,0-5,4.08c2.92-.56,5.57-1,8.21-1.57,1.53-.3,3-.62,4.58-.95a3.92,3.92,0,0,1,2,.08c1.74.53,2.28,1.85,1.63,3.55-1.54,4.08-4.78,5.67-8.8,6.19a13.43,13.43,0,0,0-3.26.75,4.9,4.9,0,0,0-2.5,2.16c-.2.36-.58.75-.28,1.2s.77.3,1.21.25a17.05,17.05,0,0,0,5.51-1.56,14.78,14.78,0,0,1,9.34-1.25,4.09,4.09,0,0,1,2.21,1.13c1.36,1.39,1.34,2.9-.28,3.95-1.88,1.21-3.23,3-4.94,4.35a57.44,57.44,0,0,1-9,5.56c-3.88,2.08-7.7,4.26-10.69,7.61-.55.62-1.42.9-1.9,1.62-.25.37-.53.85-.2,1.21s.73-.1,1-.28a63.7,63.7,0,0,0,5.3-3.93c2.24-1.72,4.56-3.24,7.48-3.56a11.59,11.59,0,0,1,3.33.23c.8.14,1,.53.81,1.35-.76,3.24-2.74,5.64-5.12,7.79-.71.65-1.47,1.24-2.21,1.85Zm43.45-53.73a11.34,11.34,0,0,0-4.09-3.51c-2.82-1.55-6-1.88-9-2.72a3.65,3.65,0,0,0-4.05,1.26c-1.6,1.81-3,3.83-5.31,5.35a34.66,34.66,0,0,0,7.79-.6c3.43-.51,6.86-1.13,10.36-.61C323.3,191,324.71,191.44,326.19,191.64Z"/><path d="M389.54,245.37a17.47,17.47,0,0,1,.3-4.89c.1-.81.39-2.09-.41-2.24s-1,1.13-1.12,1.92c-.11.59-.1,1.2-.2,1.79a1.51,1.51,0,0,1-2.23,1.36,3.41,3.41,0,0,1-2.67-3.63c0-1.73.48-3.42.29-5.14,0-.31.08-.75-.28-.85s-.61.31-.8.6a8.53,8.53,0,0,0-.93,3c-.06.27-.07.55-.13.82-.38,1.85-1,2.65-2.11,2.69a3.83,3.83,0,0,1-3.55-2.58,10.2,10.2,0,0,1,0-4.63c.16-1.19.39-2.36.55-3.55.1-.71,0-1.49-.74-1.71s-1.1.52-1.4,1.07a10.62,10.62,0,0,0-.75,2.77c-.11.46-.18.94-.31,1.4-.4,1.36-1.11,2-2.23,2a2.82,2.82,0,0,1-2.9-2.06c-.54-1.76,0-3.49.09-5.24,0-.53.44-1.3-.13-1.53s-1,.55-1.41,1a8.8,8.8,0,0,0-.6,1c-.85,1.43-1.56,1.55-2.89.51a6.39,6.39,0,0,1-2.24-5.1c-.07-1.4,0-2.8,0-4.2,0-.32.19-.83-.27-.92s-.55.4-.73.7a10.7,10.7,0,0,0-1,2.81c-.29,1-.58,2-1.78,2.17a3.32,3.32,0,0,1-3-1.83,7.54,7.54,0,0,1-.63-3.38c0-1,0-2-.05-3,0-.33-.11-.66-.48-.75a.78.78,0,0,0-.81.39,7.73,7.73,0,0,0-.93,2.07c-.65,1.69-1.51,1.94-3,.94-2.19-1.42-4-4.75-2.08-7.72a3.29,3.29,0,0,0,.29-2.55c-.11-.55-.27-1.09-.37-1.64a2.37,2.37,0,0,1,1.46-3,103.58,103.58,0,0,1,13.61-6,7.94,7.94,0,0,1,1.26-.38c1.33-.25,2.06.51,1.84,1.86a4.16,4.16,0,0,1-.83,1.84c-1.58,2.11-3.18,4.21-4.76,6.32a6.14,6.14,0,0,0-.4.68,7.53,7.53,0,0,0,3.06-1.63c1-.73,1.87-1.52,2.84-2.21a4.91,4.91,0,0,1,4.77-.76c1.26.47,1.47.83,1.15,2.17a7.93,7.93,0,0,1-2.21,3.79c-.78.8-1.6,1.56-2.41,2.34-.26.26-.51.53-.29.94a.9.9,0,0,0,.92.45,4.23,4.23,0,0,0,1.87-.74c.94-.52,1.84-1.13,2.82-1.6,1.28-.61,2-.2,2.14,1.23a9.76,9.76,0,0,1-.23,2.85c-.06.34-.23.74.14,1s.63-.05.88-.22c1-.66,2-1.39,3-2,1.73-1.09,3.09-1,4.28.08a1.76,1.76,0,0,1,.05,2.89c-.6.59-1.27,1.1-1.89,1.66A2.86,2.86,0,0,0,378,220c-.11.38-.22.81.12,1.12s.68.12,1,0a10.25,10.25,0,0,0,2.57-1.52A26.82,26.82,0,0,1,384,218a3.11,3.11,0,0,1,3-.2c1.79.79,2.09,1.95.83,3.47a9.25,9.25,0,0,0-1.78,2.39c-.14.34-.43.75,0,1.1s.69.11,1,0a12.82,12.82,0,0,0,2.58-1.51,9.71,9.71,0,0,1,2.44-1.25,3.24,3.24,0,0,1,2.65.34c1.45.82,1.67,1.78.71,3.14-.46.66-1,1.28-1.41,1.94-.17.25-.43.57-.2.88s.59.08.88,0a19.52,19.52,0,0,0,2.93-1.63,2.57,2.57,0,0,1,3.8.94A1.6,1.6,0,0,1,401,230c-.7.52-1.45,1-2.15,1.51-.21.16-.51.38-.33.69s.45.17.67.11c.77-.2,1.55-.4,2.3-.66a12.4,12.4,0,0,1,3.12-.83,3.41,3.41,0,0,1,2.46.73c1.51,1.22,1.51,2,0,3.21a3.71,3.71,0,0,0-1.36,1.67c.65-.27,1.19-.55,1.76-.73a5.47,5.47,0,0,1,5.37,1.18,13.14,13.14,0,0,1,2.64,2.93,26.33,26.33,0,0,0,4.06,4.87c.21.19.43.37.43.69Z"/><path d="M302.18,245.37c4.7-6.17,9.1-12.56,13.52-18.92a6,6,0,0,0,.47-.69c.22-.44.89-.79.51-1.34s-1.08-.44-1.66-.33-1.31.35-2,.51c-.39.09-.86.17-1.05-.28s.17-.68.44-.91a11,11,0,0,1,5.8-2.35,4,4,0,0,1,3.5.71c.56.48,1.1.2,1.6-.24a69.39,69.39,0,0,1,6.45-4.74,3.3,3.3,0,0,1,3-.53,2.8,2.8,0,0,1,1.6,4.32,19,19,0,0,1-3.15,3.6,13.78,13.78,0,0,0-3,4.13,3.47,3.47,0,0,0,2.24-.68,12.07,12.07,0,0,0,2.19-1.85,11.71,11.71,0,0,1,6-3.16,4,4,0,0,1,4.57,2.79c.42,1.47-.48,2.36-1.49,3.13-1.77,1.37-3.59,2.67-5.37,4-.29.22-.87.35-.72.83s.66.35,1.05.39a5,5,0,0,0,3.89-1.54,11.81,11.81,0,0,1,3.28-2.18,4.13,4.13,0,0,1,4.56.84c.65.56.83,1,.2,1.78-1.66,2-3.24,4.06-4.84,6.11-.26.33-.5.68-.86,1.17a7.75,7.75,0,0,0,3.79-1.19,25.48,25.48,0,0,0,2.42-1.55c2-1.43,4.34-1.55,6.61-1.92a2.28,2.28,0,0,1,2.38,1.66,2.23,2.23,0,0,1-.75,2.67c-2,1.91-4,3.83-5.94,5.74H333.14c.11-.79.21-1.57.32-2.36.29-2.26.83-4.51.24-6.95a13.44,13.44,0,0,0-2,4.33,10.07,10.07,0,0,1-2.67,5h-5.28a3.49,3.49,0,0,1-.18-2.23c.4-2,.88-3.9,1.18-5.87a17.28,17.28,0,0,0-.19-6.65c-2.25,6.21-6.35,10.64-10.89,14.75Z"/><path d="M354.26,245.37c1.63-1.28,3.24-2.59,4.9-3.83a7.62,7.62,0,0,1,2.93-1.31,3.54,3.54,0,0,1,3.8,1.4,2.82,2.82,0,0,1-.11,3.74Z"/><path d="M378.24,184.56l5.82-.59c.6-.06,1.31-.37,1.72.38a1.9,1.9,0,0,1-.16,2.15c-.44.62-1,1.15-1.44,1.76-.29.4-.73.9-.3,1.39s1,.24,1.46,0,.94-.47,1.42-.65a1.68,1.68,0,0,1,2,2.59c-.39.55-.84,1.07-1.19,1.64a1,1,0,0,0,0,1.15c.32.42.75.15,1.09,0,1-.5,2.05-1.09,3.1-1.56a2.78,2.78,0,0,1,3.72.93,1.35,1.35,0,0,1-.27,2.09c-.41.31-.86.58-1.26.91s-.71.43-.52.84a.94.94,0,0,0,1,.34,18.62,18.62,0,0,0,2.33-.51,7.24,7.24,0,0,1,2.95-.38c1.48.2,2,1.05,1.26,2.35a20,20,0,0,1-1.53,2.15c-.41.57-.49,1,.38,1.17a5.59,5.59,0,0,1,1.74.79,15.59,15.59,0,0,0,7.28,2.17,6.3,6.3,0,0,1,4.74,2.23,6.33,6.33,0,0,0,1.75,1.24c1.32.78,1.42,1.42.43,2.56-1.15,1.3-1.15,1.31.5,2,3.43,1.39,5.79,4,8.06,6.81a39.9,39.9,0,0,0,5.62,6.07,15.93,15.93,0,0,0,3.47,2.11c1.37.61,2,1.7,1.62,2.82a2.38,2.38,0,0,1-3.13,1.47c-3.25-1-6.51-1.92-9.84-2.61a40.09,40.09,0,0,1-13-4.71c-1.71-1-2.9-2.24-2.55-4.42.11-.7-.41-1-1-1.18-.79-.29-1.58-.55-2.37-.84a2.76,2.76,0,0,1-1.92-2.64c0-.35.18-.93-.39-1s-.58.48-.72.84c-.21.52-.34,1.07-.54,1.59a1.48,1.48,0,0,1-2.44.87c-1.5-.9-1.65-2.38-1.53-3.89a24,24,0,0,0,.06-3.54c-.67.71-1.22,1.27-1.73,1.86a1.29,1.29,0,0,1-2.07.09,3.51,3.51,0,0,1-1.21-2.63c-.1-1.44.42-2.86.12-4.3-.07-.34.08-.91-.49-.95s-.68.39-.84.75c-.28.61-.48,1.27-.74,1.89-.58,1.41-1.43,1.69-2.75,1a3,3,0,0,1-1.43-3.41,14.29,14.29,0,0,0,.16-3c0-.45-.13-.9-.68-1a1,1,0,0,0-1.08.59c-.29.52-.53,1.08-.8,1.61a1.22,1.22,0,0,1-1.81.57,3,3,0,0,1-1.57-3.45,13.53,13.53,0,0,0,.18-2.62c0-.48-.07-1.06-.67-1.13s-.69.48-.83.89c-.29.87-.47,1.78-.82,2.63a2.33,2.33,0,0,1-4.27.45c-1.17-2-2-4.15-1.51-6.6.64-3-.1-3.52-3.14-2.79a13.93,13.93,0,0,0-5.45,2.86,34.9,34.9,0,0,1-4.47,2.8,2.87,2.87,0,0,1-3.64-.46,15.1,15.1,0,0,0-4.61-2.74,8.71,8.71,0,0,1-2.38-1.38,3,3,0,0,1-.89-3.47c.42-1.13,1.27-1.62,2.81-1.56s2.9.57,4.4.46c.42,0,1,.13,1.13-.42s-.26-1-.7-1.28a4.14,4.14,0,0,0-1.81-.57,9.81,9.81,0,0,1-3.84-1.28,3.59,3.59,0,0,1-1.85-2.67,1.83,1.83,0,0,1,2.26-2.25c.75.09,1.5.22,2.25.27.44,0,1,0,1.16-.46s-.32-.77-.65-1a8.53,8.53,0,0,0-2.6-1.19,18.82,18.82,0,0,1-4.36-2,2.7,2.7,0,0,1-1.33-2.86c.32-1.87,1.42-2.6,3.26-2.06a21.46,21.46,0,0,0,3.71.94c.23,0,.46,0,.87,0a4,4,0,0,0-2.16-1.77c-1.55-.64-3.15-1.18-4.68-1.85a4.52,4.52,0,0,1-2.82-4.25c-.07-1.37.16-1.61,1.54-1.47,2,.19,4,.43,6.17.66a4,4,0,0,0-1.72-1.76c-1.27-.83-2.6-1.57-3.86-2.42a3.89,3.89,0,0,1-1.73-4c.16-1.3.66-1.64,1.95-1.27.58.16,1.14.38,1.72.52a.72.72,0,0,0,.87-.23c.2-.36-.11-.6-.33-.81a6.64,6.64,0,0,0-.93-.75c-.66-.46-1.34-.88-2-1.32-2.52-1.69-2.59-3.12-.24-5.07a2.74,2.74,0,0,1,.48-.36c.71-.39.89-.74.19-1.4a2.35,2.35,0,0,1-.56-2.66c.34-.94.74-1.86,1.07-2.8a3.08,3.08,0,0,0-.71-3.52c-1.24-1.22-1.16-2.11.38-2.93a5,5,0,0,0,2.61-3.6,76.58,76.58,0,0,1,9.11-22c.16-.28.25-.8.68-.71s.28.61.33.94a63.9,63.9,0,0,1,.31,11.49,30,30,0,0,0,1.2,10.89c1,2.92,2.07,5.89,1.5,9a8.77,8.77,0,0,0,.89,6.27c.84,1.5-.26,2.64-1.28,3.66-.19.19-.57.31-.48.62s.53.3.83.31c.64,0,1.28,0,1.92-.06.93,0,1.88-.15,2.34,1a3,3,0,0,1-.73,3.2,9.75,9.75,0,0,1-2.14,1.31,8,8,0,0,0-1.93,1.19c-.26.24-.7.5-.53.86s.74.25,1.08.13c.67-.22,1.31-.58,2-.86s1.42-.78,2.13-.17a2.51,2.51,0,0,1,.71,2.32,3.24,3.24,0,0,1-1.58,2.43c-.95.59-1.93,1.13-2.91,1.68a8.3,8.3,0,0,0-1.84,1.33c-.22.22-.52.46-.34.81a.89.89,0,0,0,.83.4,7.06,7.06,0,0,0,2.07-.56c.87-.27,1.82-.81,2.54.14a2.82,2.82,0,0,1,.19,3.17,6.06,6.06,0,0,1-1.94,1.93,12.57,12.57,0,0,0-2.52,2.15,4.07,4.07,0,0,0,1.5.41c1.46.28,1.86.94,1.19,2.3s-1.44,2.49-2.16,3.73c-.17.3-.57.6-.34,1a1.09,1.09,0,0,0,1.19.36c1.21-.29,2.39-.65,3.59-.94,1.46-.36,2.38,0,2.89,1.2a2.24,2.24,0,0,1-1,3.07,40.57,40.57,0,0,0-3.82,2.24c-.21.17-.49.3-.48.7a3.08,3.08,0,0,0,2-.29c.87-.3,1.72-.65,2.6-.93a2.57,2.57,0,0,1,2.94.77,2.36,2.36,0,0,1,0,2.9,8.79,8.79,0,0,0-1.27,2.7c0,.24-.11.5.09.68s.53,0,.74-.17c2.79-2,5.6-4,8.35-6.06,1.29-1,1.16-2.57-.24-3.67a27.75,27.75,0,0,1-3.85-3.24,2.93,2.93,0,0,1-.75-3.19,1.93,1.93,0,0,1,2.36-1.34c.67.11,1.34.26,2,.36.35,0,.82.06,1-.29s-.28-.6-.54-.81a13.91,13.91,0,0,0-2.59-1.49,3.15,3.15,0,0,1-1.73-1.9,1.56,1.56,0,0,1,1.66-2.19c.64,0,1.28,0,1.91,0a.73.73,0,0,0,.72-.53c.07-.35-.3-.44-.52-.58a15.92,15.92,0,0,1-3.56-2.82,12.32,12.32,0,0,1-2.91-11.17,15,15,0,0,0-.41-6.51,25.35,25.35,0,0,0-1.51-4.66c-.66-1.42-.23-2,1.34-2,2.26-.05,2.26,0,1.41-2.18a11.91,11.91,0,0,1-.25-8,71.79,71.79,0,0,1,2.86-7.25,19.62,19.62,0,0,0,1.65-6,2.6,2.6,0,0,1,2.19-2.48,2.52,2.52,0,0,1,2.36,2.19c.38,2.16.55,4.36.9,6.52.94,5.93,2.45,11.73,3.6,17.61a24,24,0,0,1-.05,11.4c-.2.67-.07.9.67,1,1.47.18,1.85.7,1.68,2.18-.11.95-.37,1.88-.48,2.83-.18,1.59.22,2.17,1.73,2.69,1.09.37,1.19.62.5,1.6a43.33,43.33,0,0,1-3.21,3.56c-.35.4-.93.78-.57,1.43s.94.53,1.5.45c.93-.12,1.95-.53,2.42.77.38,1-.07,2-1.29,2.79-.71.45-1.45.84-2.17,1.28-.56.34-.38.59.12.8a2.5,2.5,0,0,0,2.36-.49,3.32,3.32,0,0,1,2.82-.65,1.86,1.86,0,0,1,1.5,2.34c0,.31-.15.62-.19.94s-.18.69.1.91.59-.1.86-.23a20.88,20.88,0,0,0,3.47-2.14c1.68-1.31,1.83-2.66.57-4.34a13.52,13.52,0,0,0-2.64-2.43c-1.22-1-1.51-1.85-.61-3.1a4.66,4.66,0,0,0,.43-4.73,49.81,49.81,0,0,1-3-14.75,18.63,18.63,0,0,1,1-7.44c1.48-4,2.49-8.19,4.63-11.94a23.31,23.31,0,0,1,5-6.11c.23-.2.48-.52.82-.31s.12.44.09.68a49.24,49.24,0,0,0,.9,14.78,59.78,59.78,0,0,1,1.06,10.59c0,6.81,2,13.15,4.69,19.33.35.81.78,1,1.54.42.46-.37,1-.62,1.5-1a3.86,3.86,0,0,0,1.61-4.4A100.34,100.34,0,0,0,409.19,147c-1.55-4.19-2.71-8.46-2.43-13a21.43,21.43,0,0,1,1.17-6,3.52,3.52,0,0,1,2.58-2.44c1.23-.28,2.37.15,2.55,1.36.52,3.51,2.67,6.3,3.89,9.5,1.6,4.19,2.47,8.6,3.86,12.85.46,1.41,1,2.79,1.53,4.16.14.36.17.9.63.94s.71-.47,1-.82c1.87-2.65,2.08-7.14.08-9.86-2.49-3.41-3.19-7.3-3.51-11.29a29.83,29.83,0,0,1,.42-9.42,8,8,0,0,1,1.37-3.16c.94-1.21,1.64-1.27,2.78-.22a4.22,4.22,0,0,1,1.41,2.19,34.85,34.85,0,0,0,2.52,6.72,23.11,23.11,0,0,1,1.74,5.59c.48,3.08,1.86,5.86,3.11,8.67.19.44.36.89.59,1.31s.28,1.53.9,1.51.89-.94,1.13-1.57a6.28,6.28,0,0,0-.31-4.9,27.57,27.57,0,0,1-2.37-8.87,66.05,66.05,0,0,1,.15-11.85,2.21,2.21,0,0,1,1.86-2.22,2.33,2.33,0,0,1,2.62,1.46,48.18,48.18,0,0,1,2.58,7c1.37,4.26,2.62,8.57,5.21,12.32.22.32.35.72.84.95a20.71,20.71,0,0,0-.35-5.84c-.64-3.45-1.74-6.81-2.16-10.32a14.11,14.11,0,0,1,3.21-11.41c.9-1,1-1,1.61.17a49.72,49.72,0,0,1,3.13,9.68,30.52,30.52,0,0,0,3.42,8.92c.63,1,.79,1,1.41,0a4.78,4.78,0,0,0,.46-3.49c-.3-1.61-.62-3.22-1-4.8a13.69,13.69,0,0,1,.35-7.1,3.65,3.65,0,0,1,1.49-2.11c1.57-1.06,3.39-.42,3.67,1.43.31,2.1.87,4.14,1.24,6.21a5,5,0,0,0,.72,2c.54.79.9.73,1.34-.15a3.2,3.2,0,0,0-.11-2.45,12.6,12.6,0,0,1-.1-6.16,3.72,3.72,0,0,1,2.48-2.87c1.42-.49,2.22-.08,2.6,1.38a11,11,0,0,0,.67,2.41c.17.32.37.69.8.61s.4-.47.46-.77a28.26,28.26,0,0,0,.14-4.78,4,4,0,0,1,2.46-3.79c1.24-.55,1.69-.37,2.25.86.36.79.73.1,1-.07a107.73,107.73,0,0,1,11.42-6.34c7.47-3.59,15.25-6.42,22.9-9.58,1-.41,2-.85,3-1.26.32-.13.7-.46,1-.19s0,.67-.17,1a18.55,18.55,0,0,1-4.93,6.42,112,112,0,0,1-9.1,6.64c-2.73,1.94-5.26,4.07-6.76,7.16a19.8,19.8,0,0,0-1,2.45c-.69,2.19-1.95,3-4.23,2.77-1-.11-2-.14-3-.18-.33,0-.8-.1-.91.36s.28.64.58.84c.46.3,1,.55,1.44.85a1.21,1.21,0,0,1,.35,1.94,3.69,3.69,0,0,1-2.95,1.59,18.9,18.9,0,0,1-4-.47c-.3,0-.7-.16-.87.18s.17.66.44.88a4.6,4.6,0,0,0,1.63.72,6,6,0,0,1,2,.86,1.85,1.85,0,0,1-.2,3.24,6.31,6.31,0,0,1-4.55.44c-2-.37-3.88-1-5.83-1.4-.8-.19-1.92-.44-2.27.39s.52,1.51,1.16,2.06a9.12,9.12,0,0,0,2.93,1.61c1.52.55,2.06,1.27,1.91,2.38a3,3,0,0,1-2.78,2.54,11.9,11.9,0,0,1-5.79-1.3,20.58,20.58,0,0,0-4.13-1.89c-.55-.12-1.33-.43-1.58,0s.4,1,.77,1.45A11.34,11.34,0,0,0,468,134c1.27.67,2.56,1.33,3.78,2.09a2.26,2.26,0,0,1,1.12,3,2.43,2.43,0,0,1-2.68,1.76,18.6,18.6,0,0,1-9.68-2.75c-.64-.41-1.32-.74-2-1.1a4.79,4.79,0,0,0-2.81-.44c-.84.1-1.94.26-2.15,1s1,.89,1.53,1.25q6.36,4,12.76,7.89c.95.58,1.94,1.1,2.92,1.64,1.8,1,1.86,2.87.11,4a5.7,5.7,0,0,1-3.35.76,29.13,29.13,0,0,1-17.27-6.29c-1.7-1.36-3.35-2.75-5.65-2.93-.35,0-.78-.25-1,.08s.17.65.37.92a16,16,0,0,0,5,4.29,50.42,50.42,0,0,1,9.78,7.86c1.55,1.5,1.7,3.34.41,4.66-1,1-2.16.88-3.36.68a30.81,30.81,0,0,1-16.11-8,39.46,39.46,0,0,0-3.93-3.14c-1.5-1.05-2.87-.7-3.92.8-.55.77-.49,1.44.44,1.67,1.84.44,2.84,1.76,3.88,3.17,2.88,3.94,6.2,7.53,9.09,11.47a47.35,47.35,0,0,1,5.7,10.78c.46,1.16.58,2.27-.49,3.17s-2.14.57-3.25.06c-6.26-2.9-11-7.58-15.31-12.83a76.85,76.85,0,0,0-7.37-8,9.55,9.55,0,0,0-2.22-1.63,4.24,4.24,0,0,0-4.93,1.38c-.18.32,0,.45.19.57,3.8,2.27,6.2,5.83,8.62,9.36a53.46,53.46,0,0,0,4.69,5.92,72.08,72.08,0,0,1,5.8,8.08,28.46,28.46,0,0,0,5.81,6.67,17.87,17.87,0,0,0,3.89,2.34c.26.11.53.2.77.33a2.33,2.33,0,0,1,1.24,2.18c0,.85-.74,1.17-1.4,1.48a3.45,3.45,0,0,1-1.52.27c-5,0-9.92,0-14.88,0a49.63,49.63,0,0,1-9.65-.94,22.69,22.69,0,0,0-4.65-.26,15,15,0,0,1-2.51-.13c-3.11-.52-4.24-2.12-3.82-5.22,0-.39.48-1-.06-1.17s-1,.24-1.27.69-.48.91-.72,1.37c-.35.66-.74.61-1,0-.7-2-2.31-3-4-4-2.1-1.25-4.12-2.54-4.3-5.34-.05-.62-.45-.43-.75-.14a2.91,2.91,0,0,0-.64,1.52c-.17.78-.3,1.64-1.27,1.84a2.57,2.57,0,0,1-2.49-.87,5.11,5.11,0,0,1-1.08-3.12,17.53,17.53,0,0,0-.25-1.77c-.55-2.31-1.76-2.93-4-2a46.82,46.82,0,0,0-6.44,3.45c-1.19.71-2.36,1.45-3.54,2.18Zm35.69-9.65c.05-1.17-.48-1.63-1.62-1.41a10,10,0,0,0-1,.28c-1,.31-1.61-.09-1.78-1.13a12.93,12.93,0,0,0-.75-2.89c-.76-1.81-1.78-2.22-3.48-1.24-1.18.67-2.26,1.5-3.37,2.28-.24.17-.68.25-.53.68a.68.68,0,0,0,.79.4c.88-.1,1.21.35,1.33,1.14a2.35,2.35,0,0,0,2,2c.74.18,1.48.3,2.22.46,1.24.27,2.44.6,3,1.89.21.44.57.49,1,.49C413.12,177.85,413.84,176.91,413.93,174.91Z"/></g></g></svg>