<svg id="Layer_1" data-name="Layer 1" xmlns="http://www.w3.org/2000/svg" width="1921.2" height="328.93" viewBox="0 0 1921.2 328.93">
  <path d="M-6,147.68a2.32,2.32,0,0,0,1.53-1.06c4.35-5.41,9.75-9.65,15.4-13.6,3.93-2.75,7.88-5.46,11.84-8.17.83-.57,1.7-1.51,2.77-.91s.87,2,.81,3.06a32,32,0,0,1-3.65,13,39.84,39.84,0,0,1-8.78,11.58c-2.85,2.56-5.54,5.32-7,9-.47,1.13-1.6,1.5-2.56,2.06-1.11.64-2.12,1.36-2.23,3a6.89,6.89,0,0,0,5.12-2.43c8.72-9.25,18.64-17.24,27.72-26.11.34-.33.71-.65,1.07-.95,1.73-1.44,2.7-1.12,3.11,1a24.57,24.57,0,0,1,.37,6.68,28.46,28.46,0,0,1-3.59,12.07c-1.36,2.34-2.69,4.71-4.11,7a19.06,19.06,0,0,1-6.16,6.59A5.34,5.34,0,0,0,23.5,172a7.58,7.58,0,0,1-2.61,3.35c-1.14.79-1.14,1.53-.24,2.56s2,1.39,2.85.5c2.35-2.55,5.39-3.94,8.44-5.36a45.28,45.28,0,0,0,4.78-2.73c3.85-2.43,7.76-4.77,11.62-7.18a51.79,51.79,0,0,0,5.9-4.1c.95-.8,2-1.8,3.42-.9a3.49,3.49,0,0,1,1.41,3.8,14.15,14.15,0,0,1-.92,3.22,104.58,104.58,0,0,1-5.32,10.71A33.15,33.15,0,0,1,46.2,184c-2.72,2.37-4.93,5.23-7.49,7.75a26.42,26.42,0,0,1-6.67,5,6.89,6.89,0,0,0-2.64,2.38,6.41,6.41,0,0,1-6.3,3.12c-1.25-.12-1.89.29-2.1,1.57a8.14,8.14,0,0,1-3.59,5.19c-1.41,1-2.92,2-4.33,3a6.2,6.2,0,0,0-2.41,2.56c.11.06.2.15.25.14,3.63-1.29,7.5-2.18,10-5.53l1.42-1.93c1.24-1.65,2.77-2.66,4.94-2.2.9.2,1.26-.13,1.44-1a11.66,11.66,0,0,1,.9-2.21c.46-1.07,1-1.6,2.38-1.17a3.41,3.41,0,0,0,3.47-1.16,3.3,3.3,0,0,0,.77-.91c1.48-3.52,4.32-5.6,7.59-7.26a10.59,10.59,0,0,0,2-1.38c7.12-6.06,14.75-11.51,21.49-18,2-1.94,4.57-3.22,6.42-5.37a1.72,1.72,0,0,1,2.19-.43A2,2,0,0,1,77,168.36a46,46,0,0,1-1.26,7.3,43.16,43.16,0,0,1-7,14.61,28,28,0,0,0-3.08,5.4,13.77,13.77,0,0,1-3.23,5,15,15,0,0,0-1.41,1.82c3,1.44,5.88,2.75,8.6,4.38a1.18,1.18,0,0,0,1.5-.14c3-2.18,3-2.25,1-5.35-.6-.94-1.21-1.88-1.73-2.87-.67-1.29-1.42-2.73-.36-4s2.48-.86,3.8-.48c2.38.68,4.76,1.35,7.09,2.19a2.89,2.89,0,0,0,2.88-.32c1.91-1.27,3.91-2.43,5.86-3.62a9.88,9.88,0,0,0-1.38-2.65,18.89,18.89,0,0,1-2.65-8.37c-.14-2.45.9-3.2,3.25-2.4a42.43,42.43,0,0,1,6.07,2.84A62.86,62.86,0,0,1,111.72,194a34.38,34.38,0,0,0,4,3.48,32,32,0,0,1,5.32,4.82,3.48,3.48,0,0,0,.48.53,1.14,1.14,0,0,0,1.7,0c.62-.57.45-1.1,0-1.68-2.37-3.11-4.69-6.26-7.11-9.34a66.25,66.25,0,0,1-9.54-16.26c-1.33-3.33-2.09-6.71-1.13-10.28a12.28,12.28,0,0,1,.67-2c.64-1.37,1.37-1.53,2.67-.76.68.41,1.07,1.19,1.87,1.45.64-.32.41-1,.56-1.46.79-2.5,2-3,4.32-1.68.77.43,1.48,1,2.2,1.45A109.35,109.35,0,0,1,129.26,172c.28.27.59.51,1.05.9.11-1.16-.61-1.78-1-2.47a32.4,32.4,0,0,1-4.55-11.24,17.77,17.77,0,0,1-.21-4.06,4.79,4.79,0,0,1,.73-2.25c1.32-2.13,3.68-2.54,5.47-.79,1.53,1.5,2.86,3.22,4.27,4.85.42.48.81,1,1.42,1.73a16.76,16.76,0,0,0-1.58-4.58,13.11,13.11,0,0,1-.29-9.81,6.71,6.71,0,0,1,.65-1.53,2.3,2.3,0,0,1,3.85-.25,22.2,22.2,0,0,1,1.39,1.85,3.63,3.63,0,0,0,.41-2.35,21.89,21.89,0,0,1,.55-4.5,3.09,3.09,0,0,1,2.37-2.46c1.35-.34,2.08.55,2.73,1.49a53.55,53.55,0,0,0,3.69,5c.44-.75-.05-1.29-.24-1.85-2-5.87-.4-11.1,4.58-14.83a9.5,9.5,0,0,1,1-.68c2.82-1.7,4-4.3,4.66-7.44A142.83,142.83,0,0,0,162.38,98a36.06,36.06,0,0,1,1.55-7c.43-1.6,1.81-1.85,2.82-.48,2.3,3.1,4.38,6.31,4.76,10.3a16.54,16.54,0,0,0,4.13,10,4.81,4.81,0,0,1,1.16,3.09c.14,2.58,0,5.12-1.54,7.35-.53.79-.42,1.17.45,1.64,3.6,2,3.62,2.29.74,5.25-.38.39-.73.82-1,1.2.11.8.8.81,1.21,1.12,1.72,1.25,1.91,2.31.49,4-1,1.21-2.23,2.28-3.35,3.41,2.91,3.6,3.13,6.37.83,10.49a21,21,0,0,1-4,5c-.45.43-1,.75-1.23,1.42.77.88,1.88.75,2.87,1,1.56.35,2,1,1.71,2.55a6.29,6.29,0,0,1-2.84,4,24.69,24.69,0,0,1-5.62,2.65l-3,1.11a3.56,3.56,0,0,0,2.85.45c2.06-.23,4.11-.5,6.18-.68,2.22-.18,2.45,0,3,2.13.26,1.08.56,2.16.81,3.25a7,7,0,0,1-2.21,7.16c-1.31,1.18-2.75,2.19-4.14,3.25a12.5,12.5,0,0,0-2.57,2.25,2.83,2.83,0,0,0,2.57-.21,17.12,17.12,0,0,1,4.14-1.16c2.48-.46,3.91,1.12,3.1,3.5a16.44,16.44,0,0,1-5.76,8.36,59,59,0,0,1-13.55,7.54c-.22.08-.45.16-.66.26a1.34,1.34,0,0,0,.82,2.54c7.75-1,15.51-2,23.05-4.12a6,6,0,0,1,1.18-.23c2.08-.16,3.19,1.15,2.46,3.13a17.14,17.14,0,0,1-5.11,7.68,26.89,26.89,0,0,1-6.86,3.88c-1.47.61-3,1.16-4.45,1.77-.72.3-1.59.51-1.42,1.77a66.33,66.33,0,0,1,13.8-.33,68.87,68.87,0,0,0,8.62,0,5.34,5.34,0,0,1,2.12.35A2.52,2.52,0,0,1,192,221.9a6,6,0,0,1-2.42,3.17,44.72,44.72,0,0,1-7.14,4.39c-1.1.53-1.57,1-1.07,2.3,1,2.79.46,5.69.23,8.54-.27,3.26-.27,2.84,2.43,3.46,2.1.48,4.21,1,6.3,1.49.76.19,1.64.35,1.9,1.25s-.45,1.65-1.11,2.21a29.36,29.36,0,0,1-7.73,4.73c-2.15.91-2.14.92-1.55,3.5l5.23-4.51a9.35,9.35,0,0,1,1.31-1c1.85-1.09,3.63-.1,3.6,2.06,0,1.51-.25,3-.39,4.53-.09.88-.19,1.75-.28,2.62,0,.16.05.35,0,.47-.74,1.37,1.21,2,.85,3.27-.3,1.06-1.32,1.73-1.41,3-.19,2.7-.56,5.4-.86,8.09a50.29,50.29,0,0,1-1.53,8.47c-1,3.43-1.7,6.79-.11,10.22a5.86,5.86,0,0,1,.23,4.43c-.13.38-.43,1,.3,1.16s.78-.43.94-.84c.81-2.17,1.56-4.35,2.17-6.59,2.19-8,4.19-16.05,7-23.86a102.93,102.93,0,0,1,9.6-19.25,78.88,78.88,0,0,1,5.27-7.32c3.3-4.17,5.38-9,7.3-13.94,1.42-3.65,2.86-7.28,4.26-10.93a11,11,0,0,1,2.05-3.21,1.13,1.13,0,0,1,1.26-.47,1.24,1.24,0,0,1,.95,1.23c0,.47-.07.95-.09,1.43-.3,7.81-1.1,15.61-.77,23.44a64.54,64.54,0,0,0,1.17,9.5c.12.62.28,1.24.4,1.87.85,4.54,0,6.37-4.17,8.7,1.23.35,2-.36,2.95-.63,1.63-.49,2.65.17,2.76,1.86a4.7,4.7,0,0,1-1.41,3.46,15.66,15.66,0,0,1-5.41,3.46,38.91,38.91,0,0,0-4.22,2.14,8,8,0,0,0,4.36-.09c1.75-.52,3.54-1,5.32-1.42.69-.18,1.57-.43,2.1,0,1.35,1.08,1.83.15,2.46-.79a75.6,75.6,0,0,1,8.41-9.81,1.87,1.87,0,0,1,2.13-.66,1.59,1.59,0,0,1,1.06,1.91c-.05.37-.21.84.31,1,1.8.58,3.43,1.82,5.66,1.43-.78-1.66-2.15-2.75-3.22-4a8.45,8.45,0,0,1-1.79-3.59c-.18-.77,0-1.11.8-1.38,2.74-.94,3.08-1.81,1.92-4.44-.22-.51-.45-1-.71-1.51-.46-.9-.26-1.46.71-1.87a4.89,4.89,0,0,0,2.85-4.16,11.39,11.39,0,0,1,3.35-6.68c2.58-2.58,4-5.92,5.28-9.31.92-2.55,1.69-5.15,2.52-7.74a19.54,19.54,0,0,1,5.36-8.87c.71.4.4,1,.4,1.51,0,5.44,0,10.87-.07,16.3a56.1,56.1,0,0,1-1.1,9.75c-.06.31-.2.61-.24.92-.17,1.67.18,2,2.17,1.69a27.73,27.73,0,0,0,.23,5.69,5.59,5.59,0,0,1-3.1,5.72c-.69.39-1.36.83-2,1.23.22.87.88.67,1.36.59,1-.17,2-.52,3-.69,1.44-.24,2,.27,2.22,1.76a3.72,3.72,0,0,1-2.11,3.94c-1.18.66-2.45,1.15-3.69,1.71a6.2,6.2,0,0,0-2.38,1.35,5.31,5.31,0,0,0,4-.29,7.62,7.62,0,0,1,3.74-.63c1.26.2,1.52.54,1.13,1.76a9.23,9.23,0,0,1-5.7,6.06c-1.09.43-2.33.43-3.37,1.14a2,2,0,0,0,2.53.87,11.89,11.89,0,0,0,3-1.43c1.2-.68,2.44-1.32,3.82-.51.55.32.81,0,1.23-.22,1.57-.71,2.29-.49,3.13,1s1.45,2.8,2.3,4.45c.52-1,.45-2,1.33-2.31a3.46,3.46,0,0,1,2.35.13,4.13,4.13,0,0,0,2.22.12c.17-1.1-.57-1.76-1.14-2.46s-1.14-1.13-1.64-1.74-1.15-1.43-.6-2.37a2.68,2.68,0,0,1,2.56-1.46,9.23,9.23,0,0,1,2.95.93c1.16.44,2.25,1.25,3.67.92-.17-1.47-1.24-2-2.38-2.37-2.55-.83-4.49-2.68-6.78-4-1.45-.82-1.49-2.15-.46-3.47a6.65,6.65,0,0,1,1.18-1.19,1.67,1.67,0,0,0,.63-2.07,11.28,11.28,0,0,1-.27-2.61c-.1-1.91.3-2.32,2.15-2.14,1.17.11,2.33.33,3.54.5-.07-1.37-1-1.87-1.93-2.34A11,11,0,0,1,284,240a2,2,0,0,1-.12-2.46c.59-.9,1.33-1.38,2.42-.78.41.23.84.45,1.27.65s1.06.75,1.48.12-.07-1.09-.46-1.49a12.36,12.36,0,0,0-1.43-1.27,6,6,0,0,1-1.61-1.75c-.75-1.33-.72-1.56.7-2.32a5.55,5.55,0,0,0,3-3.84c.32-1.4.58-2.82.84-4.23a6.66,6.66,0,0,1,2.41-4.27,11.92,11.92,0,0,0,3.44-5.38c.65-1.72,1.25-3.45,1.94-5.15a10.09,10.09,0,0,1,3.29-4.34c1-.74,1.58-.5,1.88.68a6.07,6.07,0,0,1-.1,3.08,116.94,116.94,0,0,0-2.54,13.64A20.75,20.75,0,0,0,302,233.54c1.1,2.2.73,3.19-1.25,4.72a6.74,6.74,0,0,0-2.21,2.06c1.62.32,3-.1,4.42,0,1,0,1.28.41,1.13,1.3a7.57,7.57,0,0,1-2.2,3.9c-1,1.07-2.46,1.71-3.17,3.26,1.4.18,2.24-.61,3.18-1.18,1.9-1.15,3-.57,3.19,1.62.17,1.73-.83,2.85-1.91,3.94s-2.23,1.76-2.84,3.21c1.47.1,2.47-.79,3.61-1.29,1-.42,1.93-1.36,3.07-.38.9.77,1.12,2.7.52,4a6.36,6.36,0,0,1-2.43,2.58c-1.06.72-2.19,1.32-3.24,2-.43.29-1.08.4-1.14,1.07a.57.57,0,0,0,.75.43c1.72-.92,3.71-.78,5.5-1.45,1.55-.59,2.4-.25,3,.71a3,3,0,0,1-.49,3.53c-.16.17-.36.31-.52.49-.44.52-1.6.62-1.38,1.42.29,1,.39,2.25,1.51,2.85a2.07,2.07,0,0,1,1.11,2.81,3.12,3.12,0,0,0,.15,2.3c1.22,4.53,2.71,9,3.25,13.7a1,1,0,0,0,.86,1,1.6,1.6,0,0,0,1.5-.54c.6-.72.55-1.66.85-2.47.43-1.2-.68-1.25-1.22-1.71a2.91,2.91,0,0,1-1-3.41,2,2,0,0,1,2.63-1.4c.8.23,1-.24,1.13-.81s-.25-.81-.72-1c-1-.4-1.92-.78-2.84-1.25a3.81,3.81,0,0,1-2.06-2.79c-.45-2.29-.09-2.69,2.24-2.37a30.67,30.67,0,0,0,5.1.43c-.33-1.18-1.22-1.59-2-2.07-1-.65-2.07-1.21-3.08-1.86A4,4,0,0,1,313,268.3c-.5-2.39.19-3.08,2.56-2.42a2.39,2.39,0,0,0,1.82.06c.24-.71-.25-1.07-.69-1.38-.91-.65-1.87-1.24-2.78-1.89-2.16-1.54-2.2-2.79-.16-4.57.42-.37.87-.7,1.46-1.16-1.73-1.69-1.36-3.53-.4-5.4.84-1.63,1-3.08-.52-4.56-1.14-1.13-1-1.81.46-2.62a5.46,5.46,0,0,0,2.72-4,77.65,77.65,0,0,1,9-21.57,2.76,2.76,0,0,1,.46-.51c.77.41.51,1.14.55,1.71.33,4.38.08,8.77.12,13.16a26.58,26.58,0,0,0,1.3,8.24,22.72,22.72,0,0,1,1.58,7.46,10,10,0,0,1-.42,3.31,2.87,2.87,0,0,0,.22,2.3c1.62,3.37,1.59,3.38-.79,6.36.83.73,1.79.42,2.69.32s1.78-.25,2.33.7A3,3,0,0,1,334,265a7.24,7.24,0,0,1-2.21,1.41,4.71,4.71,0,0,0-2.61,2.36c1.24.46,2.13-.37,3.12-.76.73-.28,1.5-.87,2.22-.22a2.56,2.56,0,0,1,.53,2.69,4.26,4.26,0,0,1-2.44,2.5,17.67,17.67,0,0,0-3.65,2.27c-.29.27-.61.57-.43,1s.64.4,1,.41a8.85,8.85,0,0,0,2.52-.71c1.47-.4,2.07,0,2.28,1.52a2.82,2.82,0,0,1-.84,2.61c-.41.38-.84.75-1.28,1.09-1.75,1.37-1.76,1.37-.08,3.08.29.29.62.58.45,1-.59,1.48.55,2.58.82,3.87.21,1,.68,1.45,1.85,1.12a1.82,1.82,0,0,1,2.25,1.33,2,2,0,0,1-.66,2.57c-.26.18-.51.38-.79.54-.46.26-.72.56-.54,1.15s.6.63,1.11.51a3.25,3.25,0,0,1,3.47.95c.47-2.36.81-4.37,1.27-6.35.58-2.48,1.25-4.95,1.88-7.42a4.08,4.08,0,0,0,.21-2.09c-.23-.9.08-1.52,1-2.09,1.58-.94,1.53-1.88.15-3.09a11.58,11.58,0,0,1-3.94-11.45c.74-3.84-.37-7.25-1.41-10.76a2.26,2.26,0,0,0-.11-.22c-1.09-2.56-.9-2.82,1.9-2.69.39,0,.79,0,1.13,0,.37-.71-.05-1.17-.28-1.66a12,12,0,0,1-.62-8.41,40.35,40.35,0,0,1,2.18-5.82,24.26,24.26,0,0,0,2.38-7.74,2.24,2.24,0,0,1,2.09-2.23c1.09,0,1.91.6,2.23,2.08s.39,2.84.58,4.26c.83,6.1,2.33,12.06,3.64,18.07,1,4.63,1.56,9.26.08,13.94.65.15,1.19.24,1.7.41a1.44,1.44,0,0,1,1,1.72c-.1.79-.32,1.56-.44,2.35-.35,2.27-.28,2.47,1.83,3.45.93.43.76.91.29,1.45-1,1.21-2.14,2.37-3.2,3.56-.36.41-.94.8-.66,1.42s1,.68,1.67.59c.23,0,.47,0,.71-.06.66,0,1.29-.06,1.6.71a1.86,1.86,0,0,1-.22,1.82,5,5,0,0,1-2.11,1.51c-.59.3-.83.72-.44,1.36s.78.39,1.23.16,1-.55,1.48-.77c2.22-.93,3.55.1,3.26,2.51a2.71,2.71,0,0,0,0,1.57,13.15,13.15,0,0,0,5-3c1.26-1.18,1.28-2.38.23-3.85a15,15,0,0,0-2.78-2.62c-1.29-1.07-1.48-1.69-.52-3.07a4.54,4.54,0,0,0,.41-4.49,47.45,47.45,0,0,1-2.9-18.09,7.43,7.43,0,0,1,.21-1.9c1.54-4.69,2.76-9.51,5.11-13.9a20.67,20.67,0,0,1,5.4-6.6c.48.07.41.43.38.72a54.18,54.18,0,0,0,1.09,15.24,54.5,54.5,0,0,1,.87,9.28c.08,7.07,2,13.7,4.85,20.11a3.33,3.33,0,0,0,.58.71c.21,0,.39,0,.51-.09,4.14-2.53,4.58-3.59,3-8.23-1.28-3.78-2.78-7.47-4.07-11.25a24.93,24.93,0,0,1-.71-15.3,5.15,5.15,0,0,1,1.47-2.68c1.52-1.32,3.53-.91,3.89,1,.5,2.67,1.9,4.88,3,7.25,1.7,3.64,2.59,7.53,3.68,11.37a41.11,41.11,0,0,0,3.1,8.63c1.75-1.14,2.24-2.91,2.55-4.69a8.13,8.13,0,0,0-1.36-6.4c-2.07-2.74-2.79-5.9-3.24-9.15a36.88,36.88,0,0,1-.07-9.79,9.47,9.47,0,0,1,1.65-4.69c.86-1.14,1.53-1.17,2.58-.24a4.38,4.38,0,0,1,1.49,2.4,26.52,26.52,0,0,0,2,5.38A33.28,33.28,0,0,1,402,247c.77,3.86,2.75,7.27,4.28,10.91,1.76-1.75,2.2-3,1.69-5.1a15.48,15.48,0,0,0-.83-2.49c-2.82-6.48-2.42-13.25-1.81-20a2,2,0,0,1,1.8-1.94,2.21,2.21,0,0,1,2.36,1.3,33,33,0,0,1,2.08,5.34,89.21,89.21,0,0,0,3.58,10.15,24.52,24.52,0,0,0,2.95,5c.72-.79.4-1.68.36-2.52-.2-4.1-1.62-8-2.32-12-.82-4.74-.48-9.24,2.86-13.08a1.76,1.76,0,0,1,1-.75,26.84,26.84,0,0,1,2.56,6.58c.78,2.76,1.36,5.58,2.33,8.29a19.48,19.48,0,0,0,2.76,5.43,4.08,4.08,0,0,0,1.45-4.43c-.32-1.64-.7-3.28-1.05-4.92a14,14,0,0,1,.26-6.63,5,5,0,0,1,.81-1.72,2.71,2.71,0,0,1,2.78-1c1.13.13,1.42,1.07,1.5,1.91a50.74,50.74,0,0,0,1.16,5.61,3.73,3.73,0,0,1,0,.48c.31,1.61,1.21,2.88,1.74,2.47a2.37,2.37,0,0,0,.51-2.87,14.2,14.2,0,0,1-.37-5.46,3.91,3.91,0,0,1,2.1-3.53c1.69-.86,2.48-.55,3,1.27.3,1,.21,2.26,1.41,2.93.79-.23.72-.95.75-1.53.06-1.35,0-2.71.05-4.07a3.94,3.94,0,0,1,1.6-3.32c1.56-1.12,2.32-.93,3.26.89,12-8,25.66-12.38,39.2-18.15a15.46,15.46,0,0,1-3.5,5.73,35.8,35.8,0,0,1-6.07,5c-2.09,1.48-4.21,2.9-6.27,4.42a16.53,16.53,0,0,0-6.39,8.73c-.6,2.05-1.3,2.44-3.54,2.45-1.28,0-2.56-.09-3.83-.12-.34,0-.66.13-.68.5a.81.81,0,0,0,.28.61c.51.37,1.09.66,1.6,1,.92.68,1,1.36.26,2.2a4,4,0,0,1-3.68,1.27c-1.34-.18-2.66-.39-4.11-.61,0,1.21.8,1.55,1.6,1.86s1.34.5,2,.74a2.17,2.17,0,0,1,1.45,2c.07,1-.81,1.29-1.51,1.64a5.85,5.85,0,0,1-3.07.33,20.67,20.67,0,0,1-4.9-1.09,7.51,7.51,0,0,0-4.26-.26c0,1.78,1.2,2.58,2.45,3.29.69.39,1.48.61,2.19,1,1.72.87,2,2.28.61,3.67a3.48,3.48,0,0,1-3.32.91,16.89,16.89,0,0,1-5.82-2.1,7,7,0,0,0-4.48-1.18,4.33,4.33,0,0,0,1.92,2.56A27,27,0,0,0,441,247a21.43,21.43,0,0,1,2.06,1.22,2.23,2.23,0,0,1,1,2.68,2.28,2.28,0,0,1-2.52,1.76,17.83,17.83,0,0,1-9-2.23,29.83,29.83,0,0,0-2.94-1.6c-2-.86-3.1-.66-5.05.72.13.42.49.6.83.8,5.49,3.27,10.81,6.83,16.4,9.93.8.44,1.54.91,1.44,2a2.54,2.54,0,0,1-1.66,2.16,6.23,6.23,0,0,1-2.82.43,28.49,28.49,0,0,1-17.65-6.52c-1.87-1.55-3.84-2.87-6.56-2.63a6.22,6.22,0,0,0,2.11,2.85A22,22,0,0,0,421.3,262c3.36,1.83,5.91,4.6,8.64,7.17,1.34,1.26,1.52,2.34.87,3.64s-1.59,1.83-3.43,1.46c-4.4-.89-8.76-1.91-12.39-4.8-2.12-1.69-4.24-3.4-6.37-5.08a24.52,24.52,0,0,0-2.14-1.53,2.2,2.2,0,0,0-2.84.37c-1.52,1.34-1.46,2.16.43,2.84a5.39,5.39,0,0,1,2.55,2c1.58,2.11,3.24,4.16,4.91,6.2,3.28,4,6.6,8,8.78,12.77.95,0,1.52-.64,2.23-.95a15.6,15.6,0,0,1,2.18-1,2.86,2.86,0,0,1,3.84,3.13c-.07.92-.27,1.82-.48,3.23,1.51-1.28,2.63-2.25,3.79-3.19a15.87,15.87,0,0,1,3.72-2.58c2.94-1.23,5.21.46,4.74,3.58-.33,2.2-.83,4.39-1.24,6.58-.08.44-.3.88,0,1.33.74-.17,1-.8,1.21-1.37,3.24-7.39,10-10.59,18.39-8.85a13.32,13.32,0,0,0,10.87-2.24c5.59-3.86,11.2-7.67,16.18-12.34a42.66,42.66,0,0,1,9.75-6.48,2.14,2.14,0,0,1,2.25-.24,2,2,0,0,1,.78,2.32c-.86,4.91-2.05,9.64-5.45,13.59a18.61,18.61,0,0,0-4.84,11.74,4.42,4.42,0,0,1-.88,2.44,14.64,14.64,0,0,1-8.56,6.14c-1.63.4-1.62.38-1.13,2a8.59,8.59,0,0,1,.64,2.79c0,1.41-.55,2.07-2,2.16-1.27.08-2.56,0-3.84,0-.94,0-1.36.27-1.13,1.46.75,3.86,0,4.68-4,4.71a37.74,37.74,0,0,1-3.83-.16c-.85-.09-1.15.2-1.14,1,.07,4-2.27,6.3-5.61,7.85a23,23,0,0,1-10.54,1.76c-.56,0-1.12,0-1.67-.08-1-.08-1.1.54-.75,1.19.48.91,1.15,1.72,1.7,2.6.88,1.44.72,2.24-.62,3.29a6.91,6.91,0,0,1-4.75,1.3,20.09,20.09,0,0,1-7.74-2.36,33.43,33.43,0,0,0-4.59-1.94c1.92,3.08,4.84,5.06,7.61,7.2a.48.48,0,0,1-.52.6c-.8,0-1.6,0-2.4,0H-3.17A6,6,0,0,1-6,337.09Z" transform="translate(6 -8.77)"/>
  <path d="M1618.59,336.61a72.1,72.1,0,0,1,10.5-12.43,48.33,48.33,0,0,0,4.58-5.22,35.72,35.72,0,0,1,5.84-6.32,2,2,0,0,0,1-1.54,1.61,1.61,0,0,0-.86-1.36,1.49,1.49,0,0,0-1.75.32c-3.49,2.67-7,5.31-10.5,8a85.6,85.6,0,0,1-13.33,8.92c-4,2-8,4-12.39,5a17.71,17.71,0,0,1-10.14-.65c-2.28-.82-2.58-2.05-1-4,.53-.66,1.13-1.28,1.77-2a22.25,22.25,0,0,1-3.53-1.09c-1.44-.77-1.82-1.58-1.39-3.15a11.34,11.34,0,0,1,1.81-3.35A122.32,122.32,0,0,1,1601.4,303a6.78,6.78,0,0,0,1.69-2.52c-.72.43-1.46.84-2.16,1.29a50.24,50.24,0,0,1-11,5.3,25.38,25.38,0,0,1-8.73,1.22,6.05,6.05,0,0,1-3.17-1c-2.49-1.61-2.93-4.32-1-6.55a18.56,18.56,0,0,1,2.13-1.92l6.38-5.42a9.8,9.8,0,0,0-3.45,1.1,47,47,0,0,1-5.41,1.92c-3.58.94-7,.25-10.32-1a3.05,3.05,0,0,1-.66-5.5,3.88,3.88,0,0,0,1.91-1.64l-7.13-.67a5.27,5.27,0,0,1-3.27-1.31c-1.69-1.59-1.64-3.48.24-4.86s3.92-2.76,5.88-4.13c.32-.23.71-.39.83-.89-.77-.57-1.46,0-2.08.27-7.89,3.11-14.67-.26-18.76-5.92a8.57,8.57,0,0,1-.55-.79c-2.1-3.61-5.42-5.1-9.39-5.9a184.21,184.21,0,0,0-23.52-2.77,41.74,41.74,0,0,1-8.39-2c-1.64-.48-2-2-.69-3.09,3.68-2.83,7.51-5.47,12.32-6a31,31,0,0,0,7-1.51,14,14,0,0,0,5.16-3,8.24,8.24,0,0,1,6.83-2.2c2.54.19,5.11.41,7.24,2.11.89.72,1.42.29,1.8-.62a13.23,13.23,0,0,1,1-1.92c1.26-2,2.35-2.1,4.06-.56a23,23,0,0,0,3.13,2.88c.85-.16.87-.92,1.19-1.42,1.57-2.36,2.89-2.59,5.09-.73,1.47,1.24,2.85,2.57,4.44,4-.25,0-.06.07,0,0,2.85-3.17,6.31-3.43,10.08-2.1a23.24,23.24,0,0,1,8.78,6.1c.55.56,1.08,1.15,1.63,1.74,1.27-.72,1.08-1.93,1.27-3,.5-2.79,1.66-3.45,4.34-2.46a8.5,8.5,0,0,1,4.09,3.56,34.47,34.47,0,0,1,3.32,7.41,12.46,12.46,0,0,0,1.26,3,4.29,4.29,0,0,0,.59-3c-.54-2.67-.36-5.42-1-8.08a6.77,6.77,0,0,1,0-1.91,1.56,1.56,0,0,1,1.22-1.59c2.42-.48,4.76-1.37,7.24-1.58a8.16,8.16,0,0,1,6.87,2.73,52.82,52.82,0,0,1,4,5.07,21.12,21.12,0,0,0,3.16,3.71,4.09,4.09,0,0,0-.35-3.39,21.87,21.87,0,0,1-1.55-5.51c-.43-2.22.93-3.69,3.2-3.65a5.35,5.35,0,0,1,1.85.41,21.86,21.86,0,0,1,10.38,7.8,75.06,75.06,0,0,1,6.08,10.3c1,2,2.23,3.85,2.75,6.08a1.55,1.55,0,0,0,2.16,1.29,1.5,1.5,0,0,0,1.09-2.07c-1.14-3.4-.71-7-1.27-10.43-1-6-2.25-11.91-3.7-17.8-.36-1.48-1-3,.4-4.24s2.92-.56,4.44.06c5.84,2.36,9.64,6.68,12.09,12.32,1.07,2.49,2,5,3.06,7.54.39,1,.71,2,2.2,1.77-.19-1.67-.38-3.32-.57-5-.52-4.47.16-8.93.25-13.39.06-2.95.23-5.9,0-8.85a11.64,11.64,0,0,1,0-1.67c.3-3.32,3-4.65,5.83-2.91a9.78,9.78,0,0,1,2.82,2.91c6.8,9.59,11,20.11,11.46,32a34.82,34.82,0,0,0,.73,4.24,12.07,12.07,0,0,1-.14,5.91,2.5,2.5,0,0,0,1.7,3.36,2.57,2.57,0,0,0,3.16-1.45,3.64,3.64,0,0,0,.35-2.09c-.44-8.47,1-16.71,2.92-24.89,1.4-6.07,2.91-12.11,4.38-18.15,0-.16.1-.31.14-.46.79-2.71,2.16-3.1,4-1a37.32,37.32,0,0,1,7.22,12.86,51.49,51.49,0,0,1,2.25,22.68,28.27,28.27,0,0,0,1,12.3c.47,1.4-.07,2.68-.54,4-.59,1.61-.92,3.2.29,4.85a7.88,7.88,0,0,0,2.76-6c.12-13.52,2.61-26.84,3.44-40.3.18-2.94.58-5.87.86-8.81.1-1,.2-2,1.18-2.46,1.15-.55,2,.25,2.78.91,6.12,5.23,10.49,11.6,12.19,19.56.84,4,1.77,7.94,2.3,12a21.94,21.94,0,0,1-.49,9,7.19,7.19,0,0,0,.06,4.21,9,9,0,0,1,.3,5.4c-.45,1.47.26,2.24,1.79,2.43,2.45.3,3.23-.3,3.34-2.7a17.22,17.22,0,0,1,1.37-6.28c3.43-7.69,5.31-15.88,7.81-23.86a69.14,69.14,0,0,0,3.1-12.29,2.6,2.6,0,0,1,.12-.46c.75-3.25,3.35-4,5.79-1.76a7,7,0,0,1,1.86,2.76c2.56,7.06,4.8,14.21,5.45,21.75a39.06,39.06,0,0,1-.23,8.37,81.88,81.88,0,0,0-.29,8.86c-.11,5-.54,9.87-2.37,14.57a6.65,6.65,0,0,0-.29,3.54,7.7,7.7,0,0,1-2.93,7.87c-.31.24-.55.57-.85.83a1.3,1.3,0,0,0-.33,2,10.49,10.49,0,0,1,1.21,8.3c-.57,2.73-1.53,5.37-1.83,8.16a4.28,4.28,0,0,0,.2,2.77,5.92,5.92,0,0,0,2.18-3.25,30.43,30.43,0,0,1,2.26-5.26,6.72,6.72,0,0,0,.69-4.41c-.2-1.42-.27-2.86-.36-4.3a5.56,5.56,0,0,1,2.88-5.62,11.11,11.11,0,0,0,1-.76,12.24,12.24,0,0,1-1.82-4.46,1.74,1.74,0,0,1,.94-2.34c2.44-1.29,3.14-3.47,2.55-6.11-.21-.93-.41-1.87-.56-2.82a10.6,10.6,0,0,1,.54-6.09,40.81,40.81,0,0,0,2.58-11.16c.72-5.63,1.79-11.19,2.71-16.78.75-4.58,1.13-9.19,1.66-13.78.35-3.09,1.41-6.06,1.38-9.21a2.1,2.1,0,0,1,1.56-2.18,2.47,2.47,0,0,1,2.63.71,12,12,0,0,1,1.07,1.29,55,55,0,0,1,9.65,26,30.25,30.25,0,0,0,1.59,7.47,18.14,18.14,0,0,1,1.14,7c-.1,2.81.52,5.56.81,8.33.4,3.93.18,7.68-2.58,10.84-.51.59-.25,1,.21,1.39,1.92,1.82,1.86,3.93.87,6.16-.41,1-.88,1.87-1.33,2.81-.9,1.84-1.58,3.7-.47,5.7a1.42,1.42,0,0,1-.31,1.73,12.14,12.14,0,0,0-2.33,6.93c-.11,1.67-.26,3.34-.4,5a9.11,9.11,0,0,1-1.15,4.36,5.47,5.47,0,0,0-.51,5c.13.46.16.95.27,1.41.65,2.88-.06,5.2-2.69,6.8-.74.45-1.39,1-2.12,1.58,3.8,2.28,7.15,1.28,8.29-2.8a88.65,88.65,0,0,1,3.84-10.79,9.67,9.67,0,0,0,.71-4.7c-.12-1.23.44-1.69,1.6-1.87,1.37-.22,2.7.27,4.06,0,.48-.63-.09-1-.34-1.48-.43-.77-.94-1.49-1.35-2.26-1.74-3.32-1.5-5.56,1.16-8.23a8.12,8.12,0,0,0,2.14-4.94c.78-5.69,1.43-11.4,2.38-17.07,1-6.06,2-12.13,2.66-18.25.24-2.38.58-4.76.62-7.15a38.07,38.07,0,0,1,1.84-10.33c.88-2.9,1.72-5.82,2.59-8.72a5.29,5.29,0,0,1,.42-1.11c.61-1.1,1.42-1.33,2.31-.44,2.43,2.45,5.37,4.29,7.83,6.69a6.5,6.5,0,0,1,1.59,1.78c.85,2,2.58,2.23,4.39,2.67,4.92,1.19,9.83.87,14.77.23,2-.26,3.95-.56,5.92-.87a2.58,2.58,0,0,0,2.2-3c-.07-.56-.11-1.11-.18-1.67-.34-2.85-.82-3.43-3.66-3.79a73.33,73.33,0,0,1-18.14-5.16c-5.63-2.27-11-5.21-16.52-7.62a4,4,0,0,1-1.54-1.11,2.34,2.34,0,0,1-.3-2.68,1.85,1.85,0,0,1,2-1,12,12,0,0,1,1.89.31c7.6,1.84,15.09,4.06,22.55,6.42a76.69,76.69,0,0,0,10.51,2.33,3.62,3.62,0,0,0,4.07-1.72c1.45-2.19,1.73-2.25,4-1.19.43.2.85.45,1.29.64a1.62,1.62,0,0,0,2.38-.84,9.71,9.71,0,0,1,.56-1.06c.89-1.35,1.76-1.56,3.27-.93a12.53,12.53,0,0,1,2.49,1.84c1.65,1.22,2.5,1.13,3.89-.42,1.64-1.83,1.64-1.83,3.58-.29l.37.3c2.63,2.11,2.64,2.11,3.89-.89.91-2.2,1.78-2.49,3.83-1.13,1.39.92,2.68,2,4,2.94.78-.48.81-1.27,1-1.92a7.73,7.73,0,0,1,2.16-3.66,1.68,1.68,0,0,0,.74-1.88c-.29-.82-1.06-.5-1.66-.56-2.55-.22-3.12-1-2.75-3.59a1.23,1.23,0,0,0-.09-1,4.23,4.23,0,0,0-2.81,1.38,10.39,10.39,0,0,1-2.33,1.66c-1.89.88-2.18.8-3.38-1-.85-1.3-1.34-1.53-2.51-.69-1.45,1.05-2.59,1.37-3.82-.3a1.81,1.81,0,0,0-2.6-.25l-1.61,1c-1.86,1.22-1.9,1.24-3.74-.08-.36-.25-.63-.43-1.06-.27-2,.77-3.74-.07-5.43-1.05-.76-.44-1.51-.89-2.29-1.3a5.35,5.35,0,0,0-3.71-.62,18.55,18.55,0,0,1-11-1.39c-5.4-2.17-10.64-4.75-16.15-6.66-2-.68-4-1.15-5.64-2.53-.24-.21-.55-.34-.78-.55a1.77,1.77,0,0,1-.7-2.11,1.87,1.87,0,0,1,1.85-1.24,32.57,32.57,0,0,1,4.52.51c5.08.51,10.3.58,15.17,2.08,5.65,1.74,11.15,1.44,16.81.61a82,82,0,0,0,8.5-1.22c2.81-.72,5.19.18,7,3,.18-1.08.28-1.74.41-2.4.39-1.94,1.09-2.35,3-1.86a8.72,8.72,0,0,1,3.82,2.38c.28.27.53.59.76.85.93-.16.82-1,1.11-1.49,1-1.7,1.52-1.95,3.24-1,1.44.83,2.78,1.82,4.19,2.76.57-.58.31-1.27.5-1.84.64-2,1.66-2.38,3.43-1.27.94.59,1.76,1.38,2.67,2,.38.28,1,.49,1.15-.17.26-1.56,1.44-1.7,2.61-2,1.56-.39,1.66-.61,1.17-2.17s-.93-3.05-1.53-4.53c-.67-1.69-1.45-1.92-2.93-.94a17.94,17.94,0,0,0-2.06,1.65,3.83,3.83,0,0,1-4.67.44c-.7-.38-1.35-.85-2-1.29a23.37,23.37,0,0,0-16.73-3.57,87.91,87.91,0,0,1-17.46.58c-5.82-.3-11.63-.84-17.44-1.17a30.76,30.76,0,0,1-5.16-1c-1.12-.25-2-.71-2.07-2-.08-1,.59-1.86,2.08-2.26,2.78-.72,5.56-1.46,8.39-1.95a68.35,68.35,0,0,1,11.44-1,36.17,36.17,0,0,1,6.66.69c3.11.55,5.92.11,8-2.48a1.85,1.85,0,0,1,2.55-.43c.5.24,1,.56,1.45.85a2.22,2.22,0,0,0,3-.38c1.53-1.47,1.74-1.59,3.26-.58,2.78,1.85,5.74,1.8,8.78,1.16a27.06,27.06,0,0,1,7.34-.86c1.48.09,1.79-.33,1.83-1.84a10.6,10.6,0,0,0-1-4.4,1.15,1.15,0,0,0-1.93-.56c-.79.54-1.51,1.18-2.33,1.68-1.76,1.06-2.89.8-4.09-.87-1.79-2.49-1.93-2.46-4.94-1.86-6.58,1.32-13.17,2.91-19.92,2.49-9.6-.59-18.59-3-25.9-9.8a5.52,5.52,0,0,1-1.59-2.07,2.13,2.13,0,0,1,2.11-2.92,3.57,3.57,0,0,1,1.17.22c6.67,2.61,13.72,3.61,20.68,5,1.65.34,3.29.65,4.94.95,2.37.45,4.67.34,6.58-1.32a10,10,0,0,1,8.74-2.26,12.24,12.24,0,0,0,7.86-1.28c3.5-1.67,3.51-1.63,1.64-5.11a3.48,3.48,0,0,0-3-2.06c-2.15-.17-4.28-.6-6.43-.68-8.17-.32-15.65-2.92-22.78-6.71a132.32,132.32,0,0,1-17-11.23,5.46,5.46,0,0,1-1.16-1.19,2.07,2.07,0,0,1-.12-2.46,1.83,1.83,0,0,1,2.1-.79c3.35.74,6.91.83,10,2.33,5.33,2.58,10.79,2.54,16.4,1.57,1.65-.29,3.31-.55,5-.89,1.92-.4,2.42-1.68,1.39-3.36a3.67,3.67,0,0,0-3-1.74,11,11,0,0,0-3.57.19c-7.72,1.84-15.4,1.25-23-.54-3.49-.83-7.06-1.41-10.21-3.29a8.42,8.42,0,0,1-1.4-.91,2.24,2.24,0,0,1,.81-3.84,6.28,6.28,0,0,1,2.59-.15c6.14.38,12.27,1,18.44.77,2.89-.11,5.7-.73,8.56-1a1.89,1.89,0,0,0,2-1.72c.07-1-.84-1.35-1.66-1.76a18.07,18.07,0,0,0-8.81-1.75,35.55,35.55,0,0,1-13.44-1.94,24,24,0,0,1-7-4,8.69,8.69,0,0,1-1.47-1.56,2.37,2.37,0,0,1-.07-2.91,2.21,2.21,0,0,1,2.52-.92c6.81,1.42,13.71,2.27,20.56,3.42,1.9.32,2.78,0,3-1s-.37-1.63-2.29-2.22c-2.54-.8-5.2-.84-7.79-1.28-5.2-.88-10.1-2.43-14.16-6a14.05,14.05,0,0,1-1.07-1,2.19,2.19,0,0,1-.54-2.63,2,2,0,0,1,2.46-1c1.32.31,2.61.73,3.91,1.13a36.23,36.23,0,0,0,8.43,1.69,15.91,15.91,0,0,0,5.85-.74,5.42,5.42,0,0,0-4.09-2.7,39.55,39.55,0,0,1-13-5.33c-1.41-.91-2.73-2-4-3a3.22,3.22,0,0,1-1.31-1.95,1.92,1.92,0,0,1,2-2.56c.92-.05,2.21.42,2.32-.93.09-1.09-1.27-1-2-1.24a51.21,51.21,0,0,1-5-2.2,5.71,5.71,0,0,1-1.74-1.26c-1.27-1.58-.66-3.27,1.33-3.65a6.78,6.78,0,0,0,2.44-.72,52.43,52.43,0,0,0-4.65-3.19c-1.13-.82-2.76-1.4-2.15-3.26s2.14-1.35,3.47-1.3c2.62.1,5.24.25,8,.39a2.28,2.28,0,0,0-1.84-1.76c-7.48-2.32-10.78-8-12.36-15.14a38.58,38.58,0,0,1-.68-4c-.21-1.76.3-2.49,2-3,.61-.18,1.26-.25,1.88-.41,2.07-.51,2.45-1.36,1.43-3.28-.37-.7-.84-1.35-1.25-2a35.57,35.57,0,0,1-4.18-10.4,5.77,5.77,0,0,1,3.32-6.91,2.32,2.32,0,0,1,3.17.76,3.3,3.3,0,0,1,.4.6c2.18,4.78,5.6,8.72,8.73,12.86a103.43,103.43,0,0,1,5.83,9.06c2.32,3.85,3.12,7.82.85,12.11a2.29,2.29,0,0,0,2.54-1c.59-.65,1.12-1.36,1.72-2A2,2,0,0,1,1840,41a2.16,2.16,0,0,1,1.15,2.42,15.65,15.65,0,0,1-.68,2.28q-1.62,4.64-3.25,9.26a2.09,2.09,0,0,0-.18,1.59,12.08,12.08,0,0,0,3.21-3.94c.86-1.43,1.66-2.9,2.53-4.34a10,10,0,0,1,1-1.32,1.89,1.89,0,0,1,2.17-.56c.9.3,1.13,1,1.16,1.87a26.75,26.75,0,0,1-1.34,8.47c-1,3.28-2,6.55-3.06,10.08a6.37,6.37,0,0,0,2.89-3.15,36.85,36.85,0,0,0,2.39-6c.26-.67.46-1.36.77-2,.67-1.43,1.46-1.84,2.84-1.57a2.3,2.3,0,0,1,1.87,2.45,25.36,25.36,0,0,1-.42,6,42.77,42.77,0,0,1-4,12.23,8,8,0,0,0-1.07,5.32,11.61,11.61,0,0,0,4.78-3.48c2.11-2.6,4.13-5.28,6.2-7.92.49-.63.93-1.3,1.47-1.89a2.32,2.32,0,0,1,3-.75,2.55,2.55,0,0,1,1.48,2.75,6.15,6.15,0,0,1-.19,1.42c-1.38,4.26-2.84,8.47-5.93,11.9-1.72,1.9-3.31,3.9-4.91,5.9a10.21,10.21,0,0,0-1.42,2.2,1.82,1.82,0,0,0,.52,2.37,1.69,1.69,0,0,0,2.39-.18,17.41,17.41,0,0,0,2.11-2.27c3.13-4.15,6.21-8.33,9.32-12.49a16.4,16.4,0,0,1,1.71-2,2.61,2.61,0,0,1,3.27-.52c1.1.64,1.4,1.57.94,3.13-.58,2-1.21,4-1.84,5.94-.12.38-.32.73.17,1.17.86-.17,1.3-1,1.9-1.55s1.38-1.14,2.35-.69a1.92,1.92,0,0,1,1.06,2.41c-2,8.81-4.45,17.49-9.84,25a31,31,0,0,0-2.12,3.19c-.89,1.6-.77,2.61.21,3.17s1.62.21,2.7-1.26a41.78,41.78,0,0,0,4.17-7.26c1.93-4.12,3.88-8.23,5.73-12.38a4.71,4.71,0,0,1,4-3c1.11-.14,2.22-.31,3.33-.42,1.77-.17,2.06,0,2.35,1.85.34,2.12.67,4.26.88,6.4a64.59,64.59,0,0,1-.78,20.48,46.18,46.18,0,0,1-4.68,12.51c-.66,1.18-1.3,2.38-1.87,3.61a6.65,6.65,0,0,0-.67,3.49c.42,3.9,2.45,5.1,6,3.58a16.73,16.73,0,0,0,8.85-9c2-4.39,3-9.09,4.27-13.7,1-3.53,1.94-7.07,2.91-10.61a5.53,5.53,0,0,1,.4-1.12,1.65,1.65,0,0,1,1.93-1.06,1.84,1.84,0,0,1,1.53,1.63,7.73,7.73,0,0,1,.06,1c0,12.47-2.71,24.22-9.62,34.8-.74,1.13-1.59,2.2-2.39,3.3a3.62,3.62,0,0,0-.49,3.78c1.52,3.87.61,5.14-3.49,5.25-.56,0-1.11,0-1.68,0a3.09,3.09,0,0,0,.75,2.31c1,1.57,2.16,2.07,3.87,1.34a19.45,19.45,0,0,0,6.75-4.46,6.48,6.48,0,0,0,1.6-5.57,2.14,2.14,0,0,1,1.45-2.63c2.85-1.1,4.08-3.44,4.61-6.24.37-2,.55-4,1-5.9a17.88,17.88,0,0,1,7.14-11v12.47c-.76,5.43-1.85,10.82-2.24,16.3a5.77,5.77,0,0,1-3.65,5.41,10.74,10.74,0,0,0-2.13,1.1c-1.4,1-2.06,2.25-1.16,3.91,1.14,2.09,1.58,4-.74,5.67-.78.56-.21,1.28.18,1.9.76,1.19,2,2.4,1.17,3.89-1,1.66-2.9,1.58-4.52,1.56a34.31,34.31,0,0,1-5.24-.51c-1.64-.28-2,.45-1.66,1.9.61,2.78,1.62,3.74,4.34,4a13.48,13.48,0,0,1,1.41.27c3.87.83,5.9-.84,5.9-4.86a9.59,9.59,0,0,1-.07-2.14,2.6,2.6,0,0,1,3.23-2.14c1.53.25,2.15-.3,2.63-1.65.31-.86.63-2.18,2.16-1.44.32,6.13.06,12.26.14,18.39.27,1.65-.29,2.78-2,3.14-1.24.26-1.42.86-.5,1.76.11.11.21.23.32.35,1.27,1.25,2.66,2.57,1.71,4.53s-3.09,1.64-4.88,1.52a22.65,22.65,0,0,1-5.48-1.61c-1.21-.41-1.7-.07-1.35,1.21a14.44,14.44,0,0,0,2,4.57c1.57,2.21,3.22,2.33,5.06.31.83-.91,1.65-1.75,3-1.7,1.1,0,2.09.26,2.19,1.66q0,9.19,0,18.37c-.31,1.63-1.54,1.05-2.47,1-1.32-.14-1.6.39-1.2,1.52,1,2.7,1.45,5.58,3,8.06A4.36,4.36,0,0,1,1915,238v27.21c.14,2.42-1.31,4.11-3,5.46s-1.45,2.4-.72,3.93a47.25,47.25,0,0,1,3.52,8.1,4.91,4.91,0,0,1,.16,1.43v17.66a2.93,2.93,0,0,1-1,2.56c-1.19,1-2.51,1.95-4.08,1s-1-2.35-.76-3.68c.17-.81.58-1.56.73-2.21-1.55,1.71-2.83,3.6-1.8,6.29a6.76,6.76,0,0,0,1.38,2.33c2.89,3.12,5.26,6.57,5.54,11v15.44c0,2.75,0,2.75-2.86,2.75H1909c-1.23-.43-.69-1.23-.35-1.92.5-1,1.25-1.85,2-3.37-2.08,2-4.45,2.85-5.61,5.12-.14.27-.59.15-.91.16h-31.69c-1.52.24-2.13-.71-2.52-2s-.77-2.76.52-3.75c1.54-1.17,2.23-2.15.28-3.59-.83-.62-.74-1.7-.4-2.67a9.45,9.45,0,0,0,1.05-2.52c-1.67.63-3.17,1.24-4.65,1.87a1.51,1.51,0,0,0-1,1.5c-.06,3-2.06,4.7-4.28,6.22-1.51,1-3.2,1.77-4.74,2.83.51.87,1.51.61,2.09,1.15.42.39.27.66-.16.9-10.31.05-20.62,0-30.92,0-2-.4-2.72-3.51-1.28-5.48.1-.13.18-.29.32-.36,3.22-1.65,4.1-4.23,3.64-7.75-.22-1.69,1.19-3,3.07-3s1.8-.78,1-2a12,12,0,0,1-1.67-3.16c-.79-2.78,0-5.13,1.8-7.33,2.42-3,2.19-3.81-1.22-5.55l-3.64-1.82c-.41-.21-.88-.58-1.3-.14s-.15.91,0,1.36a8.25,8.25,0,0,0,1,1.92c1.27,2.12,1.16,3.07-.53,4.88a1.78,1.78,0,0,1-.33.34c-2.77,1.8-4.53,3.71-2,7.16,1,1.35.06,3.11-1,4.38a23.31,23.31,0,0,1-3.77,3.66c-1.19.89-1.35,1.57,0,2.55,1.89,1.4,2.84,3.32,1.88,5.65s-2.26,4.64-5.36,4.74q-98.54,0-197,0C1620.37,337.28,1619.13,338.09,1618.59,336.61Z" transform="translate(6 -8.77)"/>
  <path d="M-6,115.55c.71.39,1-.25,1.37-.6A74.27,74.27,0,0,0,.94,109c.3-.37.6-.75.91-1.11,1-1.11,2-2.08,3.71-1.52s2.05,2,2.19,3.41a25.76,25.76,0,0,1-1,7.56,46.11,46.11,0,0,1-9.12,19.79c-.85,1-1.47,2.27-2.22,3.4-.38.56-.51,1.4-1.46,1.37Z" transform="translate(6 -8.77)"/>
  <path d="M1819.2,337.08a13.5,13.5,0,0,0,3.18-3.22c1.71-2.46,1.38-4.58-1-6.48-.68-.55-1.43-1-2.17-1.53.39-.85,1.28-1.14,1.92-1.7s1.38-1.08,2-1.67c3.63-3.34,4.34-5.69.77-9.48a2.18,2.18,0,0,1-.23-.52,9.66,9.66,0,0,1,2.11-1.79,21,21,0,0,0,3.05-2.68c1.2-1.41,1.23-2,.13-3.55a9.1,9.1,0,0,1-1.38-2.77,2.5,2.5,0,0,1,.46-2.54c2.31,1.23,4.64,2.44,6.93,3.71.74.41,1.88.58,2,1.56a4.43,4.43,0,0,1-1.13,3.54c-.33.34-.71.64-1,1a5.84,5.84,0,0,0-1,7.25c.78,1.56,1.73,3,2.72,4.72-1,.09-1.93.13-2.82.25-2.31.32-3,1.27-2.78,3.53.06.48.16.94.2,1.42a4.81,4.81,0,0,1-2.25,4.69c-3,2.07-3.2,2.89-2,6.31.17.08.24.18.19.28s-.1.16-.16.16h-7.68c-.15-.11-.21-.21-.16-.32S1819.15,337.08,1819.2,337.08Z" transform="translate(6 -8.77)" style="fill: #fff"/>
  <path d="M1914.21,172.11a4.09,4.09,0,0,0-1.38,3.18c-.07,1.18-.66,1.37-1.57,1a3,3,0,0,0-3-.05c-.71.43-1.25.89-1,1.92a7.5,7.5,0,0,1-.14,4c-.93,2.93-2.68,3.92-5.65,3.16a6,6,0,0,0-3.75-.22c-.85.33-1.14-.23-1.48-.78a15.12,15.12,0,0,1-2-5.09c-.32-1.59.15-2.06,1.82-1.72a22.43,22.43,0,0,0,7.83.49c3.07-.46,3.43-.66,1.47-3.7a4.79,4.79,0,0,0-.46-.55c-1.67-1.82-1.67-1.82.31-3.06,1.41-.87,1.64-1.6.94-3.21-.25-.58-.6-1.12-.87-1.69-.9-1.87-.62-3.16,1.09-4.32a10.52,10.52,0,0,1,2.58-1.22,4.49,4.49,0,0,0,3.33-4.43,106.64,106.64,0,0,1,2.45-16.28.54.54,0,0,1,.45-.45v32.6C1915,172,1914.5,171.87,1914.21,172.11Z" transform="translate(6 -8.77)" style="fill: #fff"/>
  <path d="M727.83,337.57h-1.44c-.37-.41-.84-.71-1.23-1.11-.74-.78-1.35-1.88-2.71-1.46s-.88,1.72-1.34,2.57H712c-.16-.19-.32-.39-.47-.59a6.43,6.43,0,0,0-2.19-2.47c-1.83-1.32-1.89-1.84-.35-3.33a4.54,4.54,0,0,0,1.43-3.16c.27-4.54,2.78-6.21,7.34-6.4s7.07,2.5,9.71,5.39c1.38,1.51.39,3.2.54,4.81a17.37,17.37,0,0,0,.17,4,2.77,2.77,0,0,1,0,1.11A1.84,1.84,0,0,1,727.83,337.57Z" transform="translate(6 -8.77)" style="fill: #fff"/>
  <path d="M-6,337.09q219.23,0,438.46,0c1,0,2.07.37,3-.37.5.09.54.47.57.87q-219.93,0-439.86,0C-4.54,337.54-5.47,338.09-6,337.09Z" transform="translate(6 -8.77)" style="fill: #7f7f7f"/>
  <path d="M727.83,337.57l0-.5a3.53,3.53,0,0,1,2.46-.74c1,0,2.08,0,3.12,0H1010.3q13.44,0,26.87,0a8.19,8.19,0,0,1,3.77.44.61.61,0,0,1,.29.81Z" transform="translate(6 -8.77)" style="fill: #7f7f7f"/>
  <path d="M1859,336.63c-1.27-.32-2.64-.21-4-.85a4.67,4.67,0,0,1,2-1.45,48.74,48.74,0,0,0,5.68-3.51c2-1.53,3-3.43,2.17-6.06l7.57-3.05a4,4,0,0,1-.88,2.59c-1.67,2.83-1.35,3.69,1.9,4.8a4.82,4.82,0,0,1-2,2.52c-1.56,1.22-1.6,1.29-1,3.16a5.92,5.92,0,0,0,1,2.37c.19.07.26.16.21.26s-.1.16-.15.16H1860A2.76,2.76,0,0,1,1859,336.63Z" transform="translate(6 -8.77)" style="fill: #fefefe"/>
  <path d="M1914.71,205.71c-.52-.17-1-.37-1.58-.53a2,2,0,0,0-2.57,1.14,4.81,4.81,0,0,1-.47.83c-1.39,1.91-3.52,2.13-5.07.36a14.06,14.06,0,0,1-3.35-8.69l4.88,1.72a20.71,20.71,0,0,0,3.69,1,4.64,4.64,0,0,0,2.13-.06,2.29,2.29,0,0,0,1.2-3.9c-.47-.54-1-1-1.56-1.48a3.22,3.22,0,0,1-1.36-2.2c1-.31,1.94-.65,2.93-.94.77-.23,1.27-.64,1.24-1.51,0-.29.17-.34.38-.12V205.7C1915,205.93,1914.88,205.93,1914.71,205.71Z" transform="translate(6 -8.77)" style="fill: #fefefe"/>
  <path d="M1819.2,337.08c0,.16,0,.33,0,.49H1618.12c.07-.36,0-.79.47-1a.74.74,0,0,0,.75.46l1.92,0H1819.2Z" transform="translate(6 -8.77)" style="fill: #7f7f7f"/>
  <path d="M1914.85,318.27a69.6,69.6,0,0,0-4.57-8.62,3.2,3.2,0,0,0-2.87-1.55,5.33,5.33,0,0,0-.46-4.51,1.18,1.18,0,0,1,.15-1.54,12.58,12.58,0,0,0,2.47-3.76,1.34,1.34,0,0,1,1.29-.7,21.47,21.47,0,0,1-1.12,4.09,7.69,7.69,0,0,0-.49,1.82,1.66,1.66,0,0,0,2.23,1.71,5.61,5.61,0,0,0,3.31-2.56c.08-.28.22-.31.41-.09v3.36a4.15,4.15,0,0,0,0,4.8v7.67C1915,318.61,1914.87,318.57,1914.85,318.27Z" transform="translate(6 -8.77)" style="fill: #fcfcfc"/>
  <path d="M1089.7,337.57h-10.08a3,3,0,0,1-.42-.68c-.22-2.8,1.52-4.77,3-6.81.57-.78,1.47-.49,2.21-.14a12.11,12.11,0,0,0,4.56,1.32,1.79,1.79,0,0,1,1.77,2.12,15.15,15.15,0,0,1-.59,3.53A3.51,3.51,0,0,1,1089.7,337.57Z" transform="translate(6 -8.77)" style="fill: #fefefe"/>
  <path d="M1089.7,337.57c0-.17,0-.33,0-.5a4.46,4.46,0,0,1,3.19-.73q22.27.06,44.57,0c7.5,0,15,.32,22.51-.29,1.88-.15,3.81.35,5.48-1a.89.89,0,0,1,1.12.13c1.43,1.42,3.25,1.11,5,1.12,6.15,0,12.3,0,18.45,0a6.64,6.64,0,0,1,3.72.66l.11.57Z" transform="translate(6 -8.77)" style="fill: #828282"/>
  <path d="M1914.76,283.34c-1.53-3.31-3-6.63-4.59-9.92a1.62,1.62,0,0,1,.51-2.38,13.21,13.21,0,0,0,4.06-4.89c.14-.24.29-.25.46,0v17.26C1915,283.6,1914.88,283.59,1914.76,283.34Z" transform="translate(6 -8.77)" style="fill: #fefefe"/>
  <path d="M1041.23,337.57c0-.17,0-.33,0-.5-1.55-2.11-1.35-4.3-.23-6.49.68-1.34,1.64-1.73,2.75-.39a13.75,13.75,0,0,0,6.15,4.32c1.42.49,1.6,1.42.46,2.5a10.26,10.26,0,0,0-.95.56Z" transform="translate(6 -8.77)" style="fill: #fdfdfd"/>
  <path d="M1468.34,337.06l0,.51h-86.87c0-.18,0-.36.08-.55.93-.82,2.09-.7,3.2-.7q40.18,0,80.37,0C1466.26,336.32,1467.42,336.2,1468.34,337.06Z" transform="translate(6 -8.77)" style="fill: #7f7f7f"/>
  <path d="M1914.79,237.26c-2.7-3.66-3.41-8.08-4.83-12.29,1.7-.45,3.18.61,4.76.38.16-.23.32-.21.48,0v12C1915,237.58,1914.88,237.54,1914.79,237.26Z" transform="translate(6 -8.77)" style="fill: #fdfdfd"/>
  <path d="M711.85,337c0,.19.1.38.14.57H672.64c.08-.36-.09-.81.37-1a9.94,9.94,0,0,1,2.37-.24c11,0,22,0,33,0C709.59,336.34,710.83,336.15,711.85,337Z" transform="translate(6 -8.77)" style="fill: #7f7f7f"/>
  <path d="M664,337.57c.69-4,2-4.55,5.13-2.18.8.6,1.84,1,2.07,2.18Z" transform="translate(6 -8.77)" style="fill: #161616"/>
  <path d="M1905.1,337.07c-.24-.8-.61-1.47.6-2,2.08-1,3.66-2.74,5.71-4.23-.08,2.58-2,4-2.9,5.84-.31.23-.15.72-.51.93h-2.88c-.16-.1-.22-.21-.17-.33S1905.05,337.07,1905.1,337.07Z" transform="translate(6 -8.77)" style="fill: #f8f8f8"/>
  <path d="M1905.1,337.07c0,.17,0,.33,0,.5h-33.59a.45.45,0,0,1-.06-.42l28.14-.06Z" transform="translate(6 -8.77)" style="fill: gray"/>
  <path d="M1859,336.63c.74-.12.76.51,1,.94h-33.12a.43.43,0,0,1,0-.44c9.9,0,19.81,0,29.72-.06C1857.39,337.06,1858.35,337.5,1859,336.63Z" transform="translate(6 -8.77)" style="fill: #7f7f7f"/>
  <path d="M721.11,337.57a1.9,1.9,0,0,1-.15-2c.6-1.68,2.28-2.16,3.5-.88a6.83,6.83,0,0,1,1.93,2.87Z" transform="translate(6 -8.77)" style="fill: #171717"/>
  <path d="M1049.39,337.57l.57-.49a5.61,5.61,0,0,1,3.44-.76c7.66,0,15.31,0,23,0,1.1,0,2.25-.13,3.18.7,0,.18,0,.36.07.54Z" transform="translate(6 -8.77)" style="fill: gray"/>
  <path d="M1914.79,237.26a.39.39,0,0,1,.41.09v28.77l-.23-.05-.23.08Q1914.77,251.71,1914.79,237.26Z" transform="translate(6 -8.77)" style="fill: #555"/>
  <path d="M1908,337.57l.51-.93c1.81.8,3.71.32,5.57.32.79,0,.65-.78.65-1.3,0-2.54,0-5.08,0-7.63,0-3.25.06-6.51.1-9.76l.22-.07.13.19v19.18Z" transform="translate(6 -8.77)" style="fill: #616161"/>
  <path d="M646.72,337.57c.19-2.11,1.18-2.95,3-2.4a3.88,3.88,0,0,1,2.75,2.4Z" transform="translate(6 -8.77)" style="fill: #272727"/>
  <path d="M1915.2,191.31a.24.24,0,0,1-.38.12c0-5.63,0-11.26-.12-16.9,0-.81.4-1.76-.49-2.42.17-.5.58-.47,1-.46Z" transform="translate(6 -8.77)" style="fill: #565656"/>
  <path d="M601.6,337.57a.66.66,0,0,0,0-.44c.95-1,2.2-.77,3.35-.78,4.8,0,9.6-.12,14.39.32a1.21,1.21,0,0,1,1.49.9Z" transform="translate(6 -8.77)" style="fill: gray"/>
  <path d="M1915.2,225.36h-.48q0-9.81,0-19.64h.49Z" transform="translate(6 -8.77)" style="fill: #555"/>
  <path d="M1914.76,283.34a1.08,1.08,0,0,1,.44,0v19.18l-.19.1h-.22Z" transform="translate(6 -8.77)" style="fill: #565656"/>
  <path d="M656.32,337.57a1.55,1.55,0,0,1,0-.23c.26-.95.74-2.09,1.67-2a2.59,2.59,0,0,1,2.6,2.27Z" transform="translate(6 -8.77)" style="fill: #383838"/>
  <path d="M1476.05,337.57c0-.43,0-.83.5-.94a80,80,0,0,1,10.5-.26,3.06,3.06,0,0,1,2.45.73.76.76,0,0,1,0,.47Z" transform="translate(6 -8.77)" style="fill: #7f7f7f"/>
  <path d="M1915.2,310.72c-2.19-1.41-2.19-2.73,0-4.8Z" transform="translate(6 -8.77)" style="fill: #353535"/>
  <path d="M1203.45,337.57c-.42-1.25.44-1.52,1.33-1.56,1-.05,2.06.13,2,1.56Z" transform="translate(6 -8.77)" style="fill: #424242"/>
  <path d="M1365.67,337.57c1.2-1.5,2.25-1.5,3.84,0Z" transform="translate(6 -8.77)" style="fill: #707070"/>
  <path d="M1079.55,337l-29.59.05,1-1.53c-3.55-1.09-6.54-2.88-8.51-6.24-1.52,2.33-2.38,4.52-1.2,7.06a2.05,2.05,0,0,1,0,.7l-1.92,0H729.76l-1.91,0c0-.29-.07-.59-.1-.89-.45-1.44.17-3-.36-4.4,0-.47-.18-1,0-1.41,1-1.86,0-2.88-1.39-3.86a14.57,14.57,0,0,1-1.22-1.14l-3.26-3.1c-2.42.54-4.92-.32-7.34.49s-3.73,2.38-3.32,5c.28,1.81,0,3-1.71,4-1.47.84-1.39,1.21,0,2a20,20,0,0,1,1.83,1.13,1.8,1.8,0,0,1,.82,2.07c-2.79,0-5.59.08-8.38.09q-14,0-28.05,0c-.81,0-1.78.43-2.41-.52a8.49,8.49,0,0,1,2.51-4.54,1.6,1.6,0,0,0,.61-1.71c-.18-.69-.83-.6-1.38-.65-3-.31-3.21-.54-3-3.55a1.17,1.17,0,0,0-.18-1,4,4,0,0,0-2.82,1.44,8.39,8.39,0,0,1-3,1.88,1.67,1.67,0,0,1-2.36-.88c-1-2-1.23-2-3.3-.8-1.07.61-1.88.92-2.86-.31s-1.91-1.26-3.37-.4c-.62.37-1.17.84-1.79,1.21a2.1,2.1,0,0,1-2.85-.13,1.71,1.71,0,0,0-1.91-.5,5.89,5.89,0,0,1-4.36-.84l-2.28-1.32a6.09,6.09,0,0,0-4.35-.88,19.45,19.45,0,0,1-11-1.44c-5-2.06-9.91-4.42-15-6.27-2.3-.84-4.79-1.29-6.75-3a7.51,7.51,0,0,1-1.09-.91,1.73,1.73,0,0,1,1-2.83,3.78,3.78,0,0,1,1.42-.1c6.56.94,13.22,1.19,19.7,2.68,2.95.68,5.85,1.81,8.94,1.32,4.88-.76,9.88-.6,14.69-1.9,3-.82,5.53-.39,7.43,2.28.06.09.27.07.52.12.37-.7.18-1.52.35-2.26.29-1.34.81-1.72,2.2-1.63a6.13,6.13,0,0,1,3.82,1.81,12.94,12.94,0,0,1,1.38,1.86,3.4,3.4,0,0,0,1.33-1.88c.82-1.53,1.59-1.83,3.09-1s2.8,1.84,4.2,2.79c.75-.47.48-1.28.67-1.93.52-1.72,1.48-2.18,3.06-1.27,1,.55,1.78,1.35,2.69,2,.7.49,1.39,1,1.61-.5.18-1.21,1.31-1.19,2.23-1.41,1.66-.39,1.86-.71,1.38-2.32-.44-1.45-.88-2.91-1.43-4.32-.69-1.79-1.52-2-3.1-1a16.61,16.61,0,0,0-1.88,1.49,4,4,0,0,1-4.87.47,9.55,9.55,0,0,1-1-.6c-5.55-4.05-11.8-5.09-18.45-4.13a79.16,79.16,0,0,1-15.77.54c-6.06-.35-12.1-1.08-18.17-1.14a24.14,24.14,0,0,1-5.63-1.13,1.88,1.88,0,0,1-1.65-2,2,2,0,0,1,1.68-2c1.84-.54,3.69-1.06,5.56-1.46A71.5,71.5,0,0,1,634.54,291a49.37,49.37,0,0,1,6.43.69c3,.41,5.74-.06,7.74-2.62a1.61,1.61,0,0,1,2.33-.35c.49.27,1,.58,1.45.84,1.57.81,1.87.76,3.17-.41s1.76-1.4,3.33-.42c2.63,1.65,5.38,1.72,8.31,1.13,2.56-.52,5.11-1.25,7.8-1,1.24.14,1.76-.44,1.77-1.69a11.54,11.54,0,0,0-1.16-4.61,1.11,1.11,0,0,0-1.79-.48c-.81.52-1.53,1.17-2.34,1.68-1.86,1.15-3,.87-4.23-.95-1.59-2.34-1.78-2.41-4.52-1.84-5.79,1.21-11.58,2.52-17.51,2.56-10.53.08-20.25-2.43-28.38-9.55a10.33,10.33,0,0,1-1.47-1.56,2.25,2.25,0,0,1,0-2.88,2,2,0,0,1,2.57-.64,60,60,0,0,0,9.18,2.69q8.91,1.83,17.85,3.56a6,6,0,0,0,5.19-1.32c2.92-2.62,6.36-2.93,9.9-2.34s6.46-1.32,9.52-2.58a.8.8,0,0,0,.4-1.2c-.57-1.14-1.08-2.32-1.73-3.42s-1.87-1.38-3.1-1.48c-2.86-.24-5.73-.48-8.59-.77-7.85-.8-15-3.62-21.82-7.48a149.31,149.31,0,0,1-14.91-10,5.61,5.61,0,0,1-1.64-1.72,2,2,0,0,1,.1-2.26,1.68,1.68,0,0,1,1.87-.76c3.49.83,7.2.92,10.46,2.47A24.33,24.33,0,0,0,645.45,244c2-.33,4.1-.68,6.13-1.08.84-.17,1.84-.27,2-1.38a2.93,2.93,0,0,0-.86-2.62,3.5,3.5,0,0,0-2.33-1.09,11.92,11.92,0,0,0-3.82.13c-8.15,1.93-16.19,1.12-24.19-.82-2.94-.71-5.94-1.28-8.63-2.79-2.14-1.19-2.82-2-2.5-3.34s1.34-1.89,3.73-1.77q6,.3,12,.77c5.15.4,10.21-.27,15.28-.93a3.45,3.45,0,0,0,1.34-.49,1.46,1.46,0,0,0,0-2.68c-2.41-1-4.72-2.24-7.52-2.09a43,43,0,0,1-13.31-1.27,23.94,23.94,0,0,1-8.92-4.49,11.94,11.94,0,0,1-1.23-1.13,2.87,2.87,0,0,1-.72-3.48c.69-1.23,1.87-1.19,3-.94,3.11.74,6.3,1.07,9.44,1.61q5.43.93,10.89,1.69c2.13.3,2.81,0,2.93-1.13s-.58-1.66-2.43-2.18a45.79,45.79,0,0,0-6.15-1A34.12,34.12,0,0,1,617.6,208a24.07,24.07,0,0,1-4.64-3.38,2.33,2.33,0,0,1-.73-3c.67-1.11,1.72-1,2.76-.74,2,.54,4,1.16,6,1.71a23.92,23.92,0,0,0,10.2.72,7.82,7.82,0,0,0,1.15-.31c.14,0,.25-.19.41-.33-.92-1.74-2.63-2.24-4.34-2.63a40.69,40.69,0,0,1-8.37-2.84,40.1,40.1,0,0,1-7.71-4.8,6.15,6.15,0,0,1-1.65-1.72c-1-1.72-.21-3.13,1.79-3.25a8.51,8.51,0,0,0,1.43-.06,1.18,1.18,0,0,0,.87-1c0-.4-.43-.6-.83-.73a41.44,41.44,0,0,1-6.19-2.58,5.07,5.07,0,0,1-1.91-1.4c-1.22-1.69-.59-3.28,1.47-3.62.69-.11,1.46,0,2.16-.76a15.89,15.89,0,0,0-3.17-2.23c-.84-.61-1.73-1.16-2.58-1.76a1.93,1.93,0,0,1-1-2.25,2.07,2.07,0,0,1,2.23-1.46c1.43,0,2.87.15,4.3.18,1.64,0,3.28,0,5,0-.43-1.16-1.49-1.44-2.42-1.75-5.43-1.82-8.77-5.64-10.63-10.9a45.71,45.71,0,0,1-1.87-7.91c-.28-1.73.21-2.45,2-3,.75-.24,1.56-.28,2.32-.51,1.48-.43,1.91-1.31,1.31-2.71a19.33,19.33,0,0,0-1.18-2.07,37.48,37.48,0,0,1-4.37-10.33c-.8-3.28.17-5.86,2.69-7.26,1.68-.93,3-.79,3.87.91,3.67,7.44,9.83,13.19,13.78,20.43a29.32,29.32,0,0,1,2.66,5.35,10.3,10.3,0,0,1-.1,6.8l-.7,1.91a3.35,3.35,0,0,0,2.76-1.48,12.12,12.12,0,0,1,1.76-1.95,2,2,0,0,1,3.38,1.39,6.59,6.59,0,0,1-.55,3c-1.27,3.6-2.53,7.2-3.93,11.18a6.37,6.37,0,0,0,2.51-2.46c.8-1.19,1.46-2.47,2.21-3.7.62-1,1.26-2,1.94-3s1.39-1.85,2.75-1.3,1.31,1.68,1.23,2.83c0,.72-.14,1.43-.23,2.14-.54,4.14-2,8-3.2,12-.31,1.06-.62,2.12-1.08,3.73a10.34,10.34,0,0,0,3.54-4.61c.73-1.76,1.31-3.59,2-5.38a13.11,13.11,0,0,1,.72-1.77A2.2,2.2,0,0,1,640,168a2.37,2.37,0,0,1,2,2.13,18.21,18.21,0,0,1-.15,4.78,42.68,42.68,0,0,1-4,13.22c-1.4,2.8-1.54,3.58-1.39,5.76a9.17,9.17,0,0,0,4.67-3.17c2.24-2.5,4.22-5.21,6.21-7.91a25.9,25.9,0,0,1,1.77-2.26,2.26,2.26,0,0,1,2.63-.63,2.55,2.55,0,0,1,1.72,2.38,4.24,4.24,0,0,1-.14,1.42c-1.28,4.12-2.57,8.23-5.45,11.61-1.86,2.19-3.67,4.43-5.5,6.65a8.94,8.94,0,0,0-1.53,2.42,1.72,1.72,0,0,0,.63,2.11,1.64,1.64,0,0,0,2,.1,8.51,8.51,0,0,0,2.37-2.34c3.15-4.22,6.3-8.46,9.46-12.68a17.18,17.18,0,0,1,1.66-2,2.7,2.7,0,0,1,3.31-.46c1,.57,1.35,1.45,1,2.92-.51,1.92-1.14,3.82-1.73,5.72-.17.52-.43,1,0,1.59,1-.18,1.38-1.05,2-1.61a2,2,0,0,1,2.6-.45,1.94,1.94,0,0,1,.79,2.33c-2.27,9.25-4.76,18.41-10.78,26.12a11.39,11.39,0,0,0-1.63,2.91,1.67,1.67,0,0,0,.71,2.27c.89.54,1.52.07,2.06-.6A32,32,0,0,0,659.1,224c2.14-4.46,4.31-8.91,6.24-13.46a5.58,5.58,0,0,1,5-3.77c.71-.07,1.44-.09,2.15-.18,2.21-.3,2.4-.29,2.73,1.75,1.63,10.09,2.22,20.16-.67,30.15a46.76,46.76,0,0,1-4.18,9.89c-.63,1.11-1.15,2.28-1.7,3.43a6,6,0,0,0-.38,3.53c.57,3.61,2.34,4.58,5.69,3.18a17,17,0,0,0,9.26-9.54c1.9-4.5,3-9.27,4.27-13.95.9-3.22,1.78-6.46,2.67-9.69a9.4,9.4,0,0,1,.33-1.15,1.75,1.75,0,0,1,2.06-1.24,1.85,1.85,0,0,1,1.6,1.81,7.7,7.7,0,0,1,0,1,70,70,0,0,1-4.05,23.47A52.32,52.32,0,0,1,682.63,263c-1.18,1.53-1.79,3-.77,4.81a3.7,3.7,0,0,1,.39,1.13c.41,2.33-.28,3.28-2.63,3.57-1,.12-2,.11-3.18.16a4.19,4.19,0,0,0,1,2.49c1,1.4,1.92,1.77,3.5,1.17a17.72,17.72,0,0,0,7.28-4.89,5.77,5.77,0,0,0,1.3-4.72,2.75,2.75,0,0,1,1.91-3.35c2.8-1.16,3.78-3.71,4.26-6.5.32-1.88.51-3.8,1-5.65a19.39,19.39,0,0,1,11.12-13.31,4.29,4.29,0,0,1,2.06-.56,1.65,1.65,0,0,1,1.59,2.46,3.45,3.45,0,0,1-.73.94c-5.26,5.38-7.63,12.07-8.73,19.31q-.76,5-1.19,10a4.29,4.29,0,0,1-3.14,4.06,9.48,9.48,0,0,0-3,1.45,2.87,2.87,0,0,0-.88,4c.31.65.72,1.26,1,1.92.66,1.62.43,2.22-1.09,3.16l-.21.11c-1.77,1-1.8,1.06-.3,2.61a8.25,8.25,0,0,1,1.92,3c.06.17,0,.28-.17.35.09,1.8-1.43,1.67-2.44,1.81a21.41,21.41,0,0,1-6.68-.21c-2.13-.39-2.5.08-2,2.11.82,3.09,1.19,3.4,4.46,3.8.56.07,1.09.22,1.64.34,3.18.7,4.87-.55,5.08-3.84a19.33,19.33,0,0,0-.1-4c.31-.05.7,0,.91-.17a3,3,0,0,1,3.55-.48c1,.49,1.49.2,1.69-1.06.53-3.28,1.85-4.29,4.92-3.46,2.08.57,3.13-.26,4.19-1.74a88.51,88.51,0,0,0,9.05-16.57c1-2.42,2-4.87,3-7.31a40.57,40.57,0,0,1,4.39-8.22,6.48,6.48,0,0,1,1.41-1.62,1.66,1.66,0,0,1,2.72,1.35,4.53,4.53,0,0,1-.16,1.42c-1.64,5.5-2.79,11.14-4.59,16.61a45.93,45.93,0,0,1-6.3,12.84c-.32.46-.62.93-.91,1.41a5.09,5.09,0,0,0-.39,5.44,2.09,2.09,0,0,1-.49,3c-2.49,2.12-4.92,4.32-7.41,6.44a21.51,21.51,0,0,1-5.23,3.36,2.49,2.49,0,0,0-1.8,2.31c0,1.85-1,2.52-2.58,2.87-.31.08-.62.18-.92.28-1.29.4-1.39.7-.55,1.76a13.25,13.25,0,0,0,1.19,1.18,14.83,14.83,0,0,1,1.21,1.16,2.19,2.19,0,0,1-.66,3.6,4.29,4.29,0,0,1-3.26.21,49.19,49.19,0,0,1-8-2.7c.19,3.66,1.25,6.73,3.75,9.15a2.69,2.69,0,0,0,4.48-.59c1.07-2,2.25-2.71,4.39-1.82.95.39,1.48-.05,1.46-1.16a13,13,0,0,1,.17-3.58c.46-1.65,1.31-2.07,2.82-1.31.64.32,1.19.81,1.81,1.17a1.18,1.18,0,0,0,1.91-.66c.22-.6.38-1.22.56-1.83.46-1.58,1.35-2.75,3.1-2.91,1.16-.12,1.69-.56,1.65-1.81a9.61,9.61,0,0,1,.38-2.59c.38-1.68,1-2,2.73-1.72.23.05.46.14.7.17.69.11,1.23.08,1.34-.85.22-1.74,1.42-2.58,3-3.06.91-.29,1.82-.6,2.73-.88A4.76,4.76,0,0,0,730,295a2.65,2.65,0,0,0-.06-2c-.8-1.92-.37-2.85,1.61-3.34,1-.25,1.21-.88,1.54-1.6,2.08-4.58,3.43-9.44,5.23-14.12,1.07-2.76,2-5.55,3-8.32.74-2,1.54-2.61,2.81-2.29s1.75,1.3,1.57,3.34a78,78,0,0,1-4.73,20.7c-.29.74-.58,1.48-.85,2.23a2.36,2.36,0,0,0-.05.48c.32.64,1,.41,1.48.51,2,.4,3.92.74,5.88,1.14,1.55.32,3.22,1.22,4.61.91s2.74-1.8,4.1-2.76c-.2-.94-1-1.25-1.6-1.76-2.08-1.86-4.2-3.69-6.29-5.54a8.52,8.52,0,0,1-2.12-2.58c-1.06-2.12-.25-3.77,2.12-4.22a16,16,0,0,1,2.85-.27c9.4-.09,18.68.72,27.59,4,2.15.78,4.12-.16,6.17,0,0-.92-.5-.89-.83-1a44.16,44.16,0,0,1-11.37-7,92.61,92.61,0,0,1-7.61-6.94,20.42,20.42,0,0,1-5.28-8.72c-.64-2.3.12-3.37,2.49-3.42a32.57,32.57,0,0,1,6.87,1,78.93,78.93,0,0,1,26.39,9.67,36.23,36.23,0,0,0,4.76,2.24c3.09,1.3,6.27,2.42,9,4.44a1.83,1.83,0,0,0,1.57.38,1.35,1.35,0,0,0,.76-2.34,8.14,8.14,0,0,0-1.13-.88q-7.47-5.62-14.93-11.26a71.83,71.83,0,0,1-13.39-13.65,19.47,19.47,0,0,1-4.4-11.19c-.07-1.5-.38-3.28,1-4.23s2.87.21,4.2.88c.21.1.42.18.89.38,0-1.18,0-2.25,0-3.3.13-1.94,1-2.7,2.94-2.63a13.18,13.18,0,0,1,3.72.87A141,141,0,0,1,810,231.31l1.12.59c-.16-1-1-1.32-1.55-1.84a53.61,53.61,0,0,1-9-9.91,25.18,25.18,0,0,1-3.41-7.61,6.3,6.3,0,0,1-.1-3.08c.78-3.33,3.64-4.69,6.58-3,2.55,1.49,5,3.23,7.43,4.84.35.23.62.74,1.29.48a7.4,7.4,0,0,0-1.45-2.08c-1-1.28-2-2.52-2.9-3.81-2.44-3.35-3-7.17-2.66-11.17a3.18,3.18,0,0,1,2-3,3.09,3.09,0,0,1,3.3.8c.54.46,1.11.89,2,1.6-.42-2.07-.78-3.74-1.09-5.42-.19-1-.32-2.05-.45-3.08a4.12,4.12,0,0,1,.61-2.75c1.13-1.83,2.7-2.2,4.44-.91s3.12,2.49,4.68,3.73c.68.54,1.37,1.07,2.14,1.66a2.67,2.67,0,0,0-.89-2.2c-4.68-6.09-4.11-13.48.31-19.29.44-.57.91-1.11,1.37-1.66a11.82,11.82,0,0,0,2.64-8.92,160.82,160.82,0,0,0-3.82-23.59c-.72-3.13-.57-6.34-.65-9.52,0-1.75,1.54-2.5,3-1.39,3.81,2.83,7.4,5.88,9.23,10.46a29,29,0,0,0,2.5,4.9,16.37,16.37,0,0,0,5.36,5.4,6.78,6.78,0,0,1,3.15,4.06c.88,3,1.67,6,.45,9.13-.37.92-.08,1.36.84,1.49.64.09,1.28.13,1.9.28,2.8.69,3.28,1.76,1.95,4.27-.45.84-.95,1.66-1.42,2.5s-.3,1.24.67,1.55c3.89,1.24,4.26,2.17,2.34,5.83-.7,1.34-1.52,2.62-2.28,3.91a.53.53,0,0,0,.35.56c3.92,1.85,4.91,5.22,4.65,9.16a21.26,21.26,0,0,1-2.73,8.61c-.59,1.12-1.26,2.2-1.89,3.3.81.91,1.73.66,2.67.53,3.59-.52,4.9.93,4,4.47a10.36,10.36,0,0,1-2.84,4.64,42.49,42.49,0,0,1-5.58,4.53l-2.44,1.74c1.25.69,2.25.2,3.22-.2,2.36-.95,4.72-1.93,7.06-2.93,2.79-1.19,3.27-1,4.73,1.54.59,1,1.22,2.06,1.82,3.1a8.7,8.7,0,0,1-.37,10.11c-1.29,1.83-2.66,3.6-4,5.4a11.65,11.65,0,0,0-1.83,2.89c1.4.34,2.34-.45,3.21-1.23a19.08,19.08,0,0,1,4.45-2.78c2.72-1.31,4.83.06,4.76,3.1a21.23,21.23,0,0,1-4.88,13.23,79.38,79.38,0,0,1-8.11,8.49c-1.58,1.44-3,3.1-4.91,4.17a1.58,1.58,0,0,0-.66,2.43c.56.9,1.31,1.1,2.47.33a23.68,23.68,0,0,1,5.25-2.27c7.08-2.62,13.58-6.38,20.12-10,.49-.28.93-.62,1.43-.87,2.38-1.15,4.5.14,4.29,2.76a23.91,23.91,0,0,1-1.92,8.12,22.2,22.2,0,0,1-6,7.69c-2.31,2-4.71,3.83-7.09,5.71-.83.65-1.68,1.24-1.31,2.53,1.09,0,1.83-.67,2.69-1a79.5,79.5,0,0,1,12.84-3.79c1.63-.39,3.26-.76,4.9-1.14,1.27-.29,2.28-.59,2.55-2.28a2.12,2.12,0,0,1,3.62-.92,2.63,2.63,0,0,0,2.24.89c2.64-.06,4.08,1.8,3.52,4.43a10.87,10.87,0,0,1-2,3.92c.91.74,1.79,1.39,2.61,2.12a18.4,18.4,0,0,1,4.93,6.71,6.13,6.13,0,0,0,5.31,4.22c.68-.84-.06-1.35-.59-1.9a78.93,78.93,0,0,1-5.66-6.19,6.31,6.31,0,0,1-1.45-2.72,2.81,2.81,0,0,1,1.46-3c1.1-.62,1.84,0,2.49.76a11.13,11.13,0,0,0,4.21,2.95c.39-1.57.4-2.8-1-3.85a8.62,8.62,0,0,1-2.39-3,3.69,3.69,0,0,1-.43-3c.63-1.9,1.62-2.43,3.86-2,.35-1.21.81-2.38.28-3.68a1.4,1.4,0,0,1,.17-1.38c1.14-1.34.92-3,1.12-4.54.41-3.16.76-6.34,1.15-9.5a8.09,8.09,0,0,1,.4-1.63,1.6,1.6,0,0,1,2-1.18c2,.36,4,.52,5.9,1a1.47,1.47,0,0,0,1.79-.66,35.33,35.33,0,0,0,3.27-5,3.07,3.07,0,0,0,.3-2.52,9.26,9.26,0,0,1-.42-1.86c-.17-1.93.59-2.77,2.56-2.93.29,0,.55.26.87,0,.68-.56,1.77-4.13,1.5-5-1.22-4-.24-5.17,4-5.11,1.08,0,1.5.19,1.73,1.18a3.49,3.49,0,0,0,.67,1.24c4.4,5.79,8.36,11.9,13,17.49a10.67,10.67,0,0,0,2.59,2.47,2.12,2.12,0,0,0,2.66-.12,2.21,2.21,0,0,0,.75-2.57,8.41,8.41,0,0,0-1.69-2.87c-1.72-2.1-3.38-4.27-5.23-6.24-4.39-4.68-6.84-10.34-8.69-16.34a6.34,6.34,0,0,1-.29-2.83,3.17,3.17,0,0,1,5.07-2.15,8.62,8.62,0,0,1,2.17,2.53c2.15,3.29,4.71,6.26,7.12,9.34a16,16,0,0,0,7,5.46c.58-2.15-.1-4-.92-5.76a74.88,74.88,0,0,1-3.81-9.29,49.88,49.88,0,0,1-2.29-12.92,11,11,0,0,1,.08-2.15,2.83,2.83,0,0,1,2.45-2.58,2.7,2.7,0,0,1,3.31,1.7c.77,1.75,1.32,3.59,2,5.39a23.68,23.68,0,0,0,3.59,7.26,6.31,6.31,0,0,0,2,1.86,9.81,9.81,0,0,0-.69-3.26c-1.17-4.22-2.72-8.34-3.74-12.61a48.08,48.08,0,0,1-1-6.62,6.87,6.87,0,0,1,0-1.2,2.37,2.37,0,0,1,1.75-2.31,2.27,2.27,0,0,1,2.56.88,29.67,29.67,0,0,1,3.27,5,23.34,23.34,0,0,0,5.39,7.44,1.67,1.67,0,0,0-.1-1.55c-1.56-4.44-3.09-8.89-4.65-13.33a7.15,7.15,0,0,1-.53-2.8,2.62,2.62,0,0,1,1.64-2.44,2.35,2.35,0,0,1,2.84.63c.76.81,1.48,1.67,2.19,2.53a3.59,3.59,0,0,0,3.38,1.57,19.3,19.3,0,0,1-1.72-6c-.21-3.7,1.17-6.89,3-9.94A123,123,0,0,1,993.18,152a63.73,63.73,0,0,0,7.91-12c1.52-3.09,3.67-3.46,6.39-1.33a6.82,6.82,0,0,1,2.66,6.55,35.63,35.63,0,0,1-4.09,11.94c-.86,1.71-2,3.29-2.88,5-1.33,2.45-.71,3.69,2.05,4.2a11.52,11.52,0,0,1,3,.77c1.43.67,2,1.49,1.75,3-.72,4.83-1.67,9.6-3.94,14a20.12,20.12,0,0,1-11.4,10.05c-1.4.51-2.9.88-3.71,2.51.54.38,1.07.17,1.58.14,3.27-.18,6.54-.37,9.81-.52a5.1,5.1,0,0,1,1.65.22,2.25,2.25,0,0,1,1.08,3.79A11,11,0,0,1,1003,202c-2,1.32-4,2.61-6,3.95a3.74,3.74,0,0,0,2.92,1.15c2.5.28,3.4,2.36,1.92,4.42a6.17,6.17,0,0,1-2.26,1.72,62.09,62.09,0,0,1-7.94,3.35c-.48.18-1.29.17-1.16.92a1.43,1.43,0,0,0,1.42,1.37c.48,0,.95-.06,1.43-.07,2.32,0,3.48,1.73,2.53,3.84a6,6,0,0,1-1.83,2.18,48.62,48.62,0,0,1-19.33,9.66c-1.17.29-2.34.57-3.47.94a5.53,5.53,0,0,0-3.44,2.75c3,1.46,4.52,1.4,6.65-.29.53,1.69,1.83,1.42,3.1,1.23a79.18,79.18,0,0,0,11.37-2.87c.69-.21,1.38-.41,2.07-.59a2.27,2.27,0,0,1,2.69,1.06,2.37,2.37,0,0,1-.16,3.09c-.43.48-.9.91-1.37,1.34a31,31,0,0,1-14.71,7.13c-2.15.45-1.93.44-2,2.7a16.69,16.69,0,0,0,.17,2.12c4.87-.81,9.65-1.57,14.41-2.42,2.52-.45,3.46-.27,4.22,1.09.86,1.54.53,3.07-1.21,4.67a30.1,30.1,0,0,1-14.61,7.27,1.72,1.72,0,0,0-.24,0c-.87.3-2.27,0-2.53.88a4.53,4.53,0,0,0,.56,3.69c.66,1,1.44,1.93,2,3a1.94,1.94,0,0,0,2.17,1c3-.25,6.05-.44,9.08-.63a18.33,18.33,0,0,1,2.87,0,2.5,2.5,0,0,1,2.53,2.13,2.64,2.64,0,0,1-1.2,3.11,24.11,24.11,0,0,1-6.25,3c-1.31.36-2.61.75-3.94,1-1,.19-1.18.6-.87,1.49a11.49,11.49,0,0,1,.27,1.66c.1.51.38.72,1,.85,3.06.68,3.69,2.59,1.53,4.84a2.79,2.79,0,0,0-.82,2.72,23.38,23.38,0,0,1-.53,10.9,4.68,4.68,0,0,0,.11,2.8c.56,2.08,1.21,4.17.29,6.32a1.15,1.15,0,0,0,.19,1.13c.89,1.32,2.25,1,3.49.91s1.59-.95,1.62-2c0-1.47.27-2.88-1.19-4.07s-2.15-3.33-3.18-5c-.85-1.43.65-3.08,2.4-2.74a25,25,0,0,1,3.67,1.11c.81.3,1.13,0,1.46-.69.71-1.49,1.18-2.77-.24-4.27a6.68,6.68,0,0,1-1.61-4.63,8.47,8.47,0,0,1,3.62-.29,1.31,1.31,0,0,0,1.53-1.14,5.57,5.57,0,0,1,.35-1.14,3.66,3.66,0,0,0-.74-4.53,8.06,8.06,0,0,1-1.13-1.82,2.94,2.94,0,0,1,.19-3.38c.89-1.13,2-1.09,3.26-.7.38.12.75.26,1.12.39,1.25-2.28,1.24-2.27-.63-3.88a20.48,20.48,0,0,1-2-2,3.4,3.4,0,0,1-.89-2.41,2.58,2.58,0,0,1,3.58-2.56c.83.27,1.62.67,2.5,1.05a18.63,18.63,0,0,1,.63-1.78,1.83,1.83,0,0,0-.36-2.17,7.94,7.94,0,0,1-1.27-2,2.38,2.38,0,0,1,.63-3,2.2,2.2,0,0,1,2.87,0c1.38.95,2.74,1.91,4.28,3,.08-1.87-1-3-2-4a9.29,9.29,0,0,1-2.38-3.27,2.91,2.91,0,0,1,.58-3.32c4.92-4.82,7.76-10.87,10.2-17.16l4.36-11.14a10.08,10.08,0,0,1,2.06-3.21c.33-.36.66-.73,1.22-.52a1.26,1.26,0,0,1,1,1.21c0,1-.06,1.92-.11,2.87-.36,6.54-.92,13.06-.83,19.61a58.2,58.2,0,0,0,1.37,12.35c.13.55.24,1.09.34,1.64.82,4.34-.31,6.57-4.39,8.5a2.08,2.08,0,0,0,1.78,0,13.41,13.41,0,0,1,1.79-.68c2-.45,2.06-.43,2.36-2.34a25.39,25.39,0,0,0,.13-2.62c0-1.32.18-2.61,1.65-3.16,1.25-.46,2.46,0,3.43,1.53,3,4.64,6,9.28,7.45,14.67.2.69.4,1.38.63,2.06.13.36.15.81.59,1,3.66,1.47,7.31,3,11.69,2.5a5,5,0,0,0-2.43-1.26,28.5,28.5,0,0,1-7.77-4.19,5.85,5.85,0,0,1-2.47-4c-.28-2.53.86-3.44,3.26-2.6,1.41.49,2.72,1.39,4.59,1-1.61-3-5.17-4.76-5.11-8.58.1-.09.2-.25.33-.28,3.27-.9,3.72-1.85,2.31-5-.23-.51-.5-1-.71-1.52a.88.88,0,0,1,.53-1.34c2.23-.88,3-2.77,3.28-4.91a10.24,10.24,0,0,1,3.15-6c2.6-2.57,4.08-5.89,5.31-9.28.93-2.55,1.72-5.14,2.53-7.73a21.65,21.65,0,0,1,4.47-8.12,1.51,1.51,0,0,1,1.39-.75c0,5.07,0,10.14,0,15.21a68.64,68.64,0,0,1-1.3,12.85c-.39,1.91-.13,2.1,1.93,2.1.09,1.66.07,3.35.3,5a5.78,5.78,0,0,1-3.18,6.38c-.67.37-1.3.79-2.19,1.33a4.25,4.25,0,0,0,3,.13c.63-.09,1.24-.34,1.87-.4,1.36-.12,1.87.34,2,1.74a3.71,3.71,0,0,1-2.1,4c-1.34.7-2.76,1.25-4.13,1.9-.61.28-1.39.34-1.76,1.31,1.53.5,2.82-.13,4.12-.57a6.58,6.58,0,0,1,3.5-.55c.91.19,1.67.68,1.07,1.6-1.54,2.37.1,3.38,1.66,4.56a32.52,32.52,0,0,1,5,4.41c.28.31.52,1,1.11.57,1.18-.76,2.32-.21,3.48,0,.55.1,1.16.36,1.52-.24s-.17-1.08-.49-1.48c-.64-.81-1.42-1.51-2.08-2.31s-1.35-1.44-.77-2.54a2.64,2.64,0,0,1,2.8-1.4,9.4,9.4,0,0,1,2.94,1c1.08.42,2.12,1.13,3.48.81a2.8,2.8,0,0,0-2.24-2.28c-2.61-.73-4.5-2.68-6.79-3.95-1.72-1-1.74-2.22-.47-3.79a5.14,5.14,0,0,1,1-1A1.76,1.76,0,0,0,1078,258a16,16,0,0,1-.34-3.09c0-1.34.39-1.68,1.73-1.69s2.48.6,3.92.43c0-1.17-.78-1.65-1.6-2a11.71,11.71,0,0,1-3.38-3,2.92,2.92,0,0,1-.83-1.94,1.93,1.93,0,0,1,2.72-2c.37.14.69.41,1,.56s1,.87,1.48.36c.61-.69,0-1.37-.48-1.87-.72-.73-1.63-1.3-2.31-2.07-1.33-1.49-1.19-2.15.56-3.2a5.23,5.23,0,0,0,2.5-3.37c.36-1.47.61-3,.89-4.45a6.93,6.93,0,0,1,2.39-4.3,12.08,12.08,0,0,0,3.47-5.36,55.17,55.17,0,0,1,2.25-5.8,9.67,9.67,0,0,1,3.16-3.84c1-.63,1.46-.43,1.69.71a9.92,9.92,0,0,1-.29,4A117,117,0,0,0,1094,231.7a18.83,18.83,0,0,0,1.77,9.54c1.19,2.52.9,3.42-1.29,5.11a5.74,5.74,0,0,0-2,2H1098c.22,4.11-3.06,5.67-5.34,8a1.24,1.24,0,0,0,1.55.16,12.48,12.48,0,0,0,1.45-.85c.74-.46,1.51-1.13,2.4-.54a2.8,2.8,0,0,1,1,2.79,5.28,5.28,0,0,1-1.78,3c-1,1-2.23,1.79-2.89,3.11a1.25,1.25,0,0,0,1.42,0c.66-.27,1.28-.65,1.93-1,1-.5,2.09-1.41,3.3-.43.9.73,1,3,.33,4.28a5.78,5.78,0,0,1-2,2.06c-1,.67-2,1.27-3,1.94-.62.42-1.4.69-1.84,1.52a2,2,0,0,0,2.12.18c1.38-.68,2.92-.8,4.34-1.34,1-.39,2-.52,2.77.55a3.21,3.21,0,0,1,0,3.39c-.5.84-1.61,1-2,1.94a20.91,20.91,0,0,1-3,1.87,17.36,17.36,0,0,0-3.08,1.93c2.83-.46,2.83-.46,6.07-3.85a3.13,3.13,0,0,1,3.63,2,4.89,4.89,0,0,0,5.28,3.43c1.08-.06,2.2.32,3.48.23-.4-1.19-1.42-1.66-2.29-2.24-1.07-.7-2.22-1.28-3.26-2a3.84,3.84,0,0,1-1.63-4c.15-1,.6-1.45,1.63-1.13.61.19,1.2.42,1.81.6.4.12.83.12,1-.33s-.11-.76-.43-1q-1.26-.9-2.55-1.77c-2.86-1.9-2.92-3-.25-5.28.31-.25.64-.47,1.17-.86-1.89-1.39-1.58-3.1-.74-4.86.1-.22.2-.44.29-.66.72-1.57.81-3-.59-4.35-1.13-1.13-1.07-1.86.18-2.49,2-1,2.63-2.69,3.13-4.73a77,77,0,0,1,8.52-20.47c.21-.36.25-1,1.09-.94a48.43,48.43,0,0,1,.41,9.17c-.32,5.3-.13,10.5,1.71,15.57a14.6,14.6,0,0,1,.58,9.39,2.11,2.11,0,0,0,.29,1.83c1.53,2.35,2.06,4.6-1,6.29,1.16.89,2.11.53,3,.47s1.8-.15,2.28.85a3,3,0,0,1-.62,3.11,17.27,17.27,0,0,1-2.86,1.73c-.68.46-2,.84-1.63,1.71s1.5,0,2.28-.24c.15,0,.28-.14.43-.19.86-.3,1.73-1.08,2.59,0a3.15,3.15,0,0,1-.05,3.17,6.9,6.9,0,0,1-2.82,2.16c-1.33.71-2.73,1.31-3.51,2.72a1.25,1.25,0,0,0,1.47.6,15.63,15.63,0,0,0,1.6-.51c.9-.33,1.92-.84,2.57.23a2.79,2.79,0,0,1-.09,3.17,8.17,8.17,0,0,1-1.93,1.78,6.47,6.47,0,0,0-2.19,2c.36.58.89.46,1.34.57,1.63.41,1.86.77,1.1,2.31-.63,1.28-1.47,2.47-2.17,3.72-.51.92-.28,1.26.79,1.29a8.63,8.63,0,0,0,2.79-.62,8.23,8.23,0,0,1,1.86-.41,1.89,1.89,0,0,1,2,1.35,2,2,0,0,1-.5,2.4c-.76.57-1.64,1-2.46,1.48a6.35,6.35,0,0,0-2.41,1.79c.56.65,1.11.25,1.58.13.84-.23,1.65-.6,2.47-.91,1.27-.48,2.51-.65,3.52.51s.49,2.31-.25,3.27c-.89,1.17-.77,2.68-1.5,3.87-2.5,1.71-4.87,3.61-7.5,5.11a5.23,5.23,0,0,1-2.87,1.09c-1.51-.13-2.21.61-2.62,2,2.28-.81,4.42-1.84,6.67-2.58,1.23-.41,2.58-.78,3.52.47s.24,2.45-.47,3.54c-1.23,1.91-2.67,3.69-4.11,5.55a25.2,25.2,0,0,0,2.93-2.16,10.23,10.23,0,0,1,2.19-1.44c1.84-.86,4.38-.76,5.17.38,1.17,1.66.19,3.2-.61,4.66a17.57,17.57,0,0,1-3.57,3.91,4.42,4.42,0,0,0,2.76-.82c1.19-.57,2.32-1.71,3.75-.83s1.11,2.49,1.11,4a38.08,38.08,0,0,1,5-16.08c-.68.43-.72,1.15-1,1.74a3.05,3.05,0,0,1-5.74.11c-.82-1.75-1.55-3.62-1.12-5.54s-.11-3-1.94-3.6c.47-1.12,1.58-1.53,2.46-2.19,1.72-1.3,3.5-2.52,5.24-3.8,2.07-1.54,2.1-3,0-4.59a28.72,28.72,0,0,1-3.15-2.57,3.51,3.51,0,0,1-1.24-2.25,2.07,2.07,0,0,1,2.43-2.44c.88.06,1.75.16,2.62.22.12,0,.25-.14.54-.32-.51-1.09-1.6-1.44-2.52-2a5.11,5.11,0,0,1-2.1-1.53,2,2,0,0,1-.22-2c.36-.72,1-.71,1.67-.63a2.45,2.45,0,0,0,2.67-.85c-.78-.55-1.55-1.06-2.29-1.62-4-3-5.77-7.06-4.91-11.94.72-4.07-.22-7.76-1.6-11.43-.89-2.37-.76-2.66,1.69-2.65.46,0,.93.32,1.39,0s.1-.73-.08-1.08a12.36,12.36,0,0,1-.36-10.22c.59-1.57,1.25-3.11,1.9-4.65a25.71,25.71,0,0,0,2.25-7.29,3.39,3.39,0,0,1,.39-1.36,2,2,0,0,1,3.52-.16,4.12,4.12,0,0,1,.67,2c.57,6.7,2.17,13.21,3.63,19.75a37.83,37.83,0,0,1,1.27,11.6,38.16,38.16,0,0,1-.77,4c.29.34.71.28,1.1.31,1.27.08,1.6.91,1.47,2-.1.87-.38,1.71-.48,2.58-.22,2-.07,2.33,1.79,3.06.92.36.93.83.46,1.4-1.06,1.29-2.22,2.51-3.33,3.76-.36.41-.91.78-.53,1.43a1.35,1.35,0,0,0,1.48.53l.48-.06c.8-.09,1.69-.28,2,.76a2.18,2.18,0,0,1-1,2.48c-.89.65-2.08.86-2.81,1.91a1.46,1.46,0,0,0,2,.45c.58-.28,1.12-.62,1.7-.89a2.57,2.57,0,0,1,2.73.16c.9.61.79,1.47.54,2.36a2,2,0,0,0,0,1.58,12.35,12.35,0,0,0,5.27-3.28c1-1.05,1-2,.15-3.28a12.53,12.53,0,0,0-2.72-2.67c-1.61-1.32-1.78-1.72-.69-3.39a4.44,4.44,0,0,0,.35-4.29,54,54,0,0,1-3-15.21,18.82,18.82,0,0,1,1.25-8c1-2.45,1.65-5,2.6-7.45a23.12,23.12,0,0,1,7.36-10.25c-.08,1.55-.15,2.77-.21,4-.2,4.67.76,9.22,1.55,13.78.62,3.64.48,7.32.78,11a54.51,54.51,0,0,0,4.5,16.56c.43,1,.9,1.24,2,.58,3.07-1.92,3.64-3.08,2.7-6.51s-2.34-6.62-3.56-9.91a44.47,44.47,0,0,1-2.37-9.24,24.54,24.54,0,0,1,.82-9,3.75,3.75,0,0,1,2.25-2.92c1.51-.59,2.54-.27,3,1.28,2.22,6.88,5.81,13.27,7.16,20.47a23.74,23.74,0,0,0,2.63,7.05,4.84,4.84,0,0,0,2.19-3.29,8.34,8.34,0,0,0-.88-7.59,19.77,19.77,0,0,1-3.38-9.59,33.5,33.5,0,0,1,.26-11.21,7.7,7.7,0,0,1,1.47-3.24,1.45,1.45,0,0,1,2.29-.23,4.7,4.7,0,0,1,1.63,2.58,35.45,35.45,0,0,0,2.29,6,29.54,29.54,0,0,1,2,6.6c.77,3.95,2.78,7.45,4.4,11.28a5.22,5.22,0,0,0,1.38-6.09,42.77,42.77,0,0,1-2.3-7.28c-.76-4.69-.46-9.39-.16-14.09a2.06,2.06,0,0,1,1.84-2.17,2.26,2.26,0,0,1,2.49,1.47,37.4,37.4,0,0,1,1.43,3.54c1,2.87,1.85,5.78,2.86,8.63a28.24,28.24,0,0,0,4.41,8.28c.59-2.53,0-4.6-.36-6.64-.58-3.14-1.47-6.22-2-9.37-.77-4.74.22-9,3.87-12.63a18.15,18.15,0,0,1,2.59,6.14c.73,2.44,1.28,4.94,2,7.38a18.48,18.48,0,0,0,3.34,6.88c1.64-1.45,1.6-3.16,1.27-4.91s-.72-3.27-1.07-4.91a13.24,13.24,0,0,1,.49-6.61,3.55,3.55,0,0,1,1-1.63c1.58-1.46,3.68-.91,3.95,1.21.24,1.91.87,3.72,1.13,5.61a6.21,6.21,0,0,0,.68,2.28c.23.41.56.92,1.08.77s.63-.67.73-1.16a4.82,4.82,0,0,0-.31-2.35,12.73,12.73,0,0,1-.22-5,3.94,3.94,0,0,1,2.43-3.57c1.45-.58,2.3-.18,2.67,1.35a9.34,9.34,0,0,0,.75,2.51.83.83,0,0,0,.78.46c.39,0,.45-.38.52-.69a23.86,23.86,0,0,0,.2-4.78,3.85,3.85,0,0,1,2.35-3.82c1.45-.62,1.64-.54,2.38,1.38,12-8.08,25.76-12.41,39.19-18.18A12.28,12.28,0,0,1,1279,213a27.7,27.7,0,0,1-5.72,5.08c-2.27,1.63-4.58,3.21-6.85,4.84a16.54,16.54,0,0,0-6.87,9.22,3,3,0,0,1-3.19,2.35c-.87,0-1.75-.09-2.63-.15a3.82,3.82,0,0,0-2.29.19c.16,1.16,1.13,1.34,1.81,1.82,1.21.85,1.27,1.44.26,2.48a3.9,3.9,0,0,1-2.83,1.05c-1.61.06-3.14-.49-4.77-.56,0,1.23.82,1.54,1.6,1.87s1.38.42,2,.72a2.2,2.2,0,0,1,1.39,2.07c0,1-.84,1.27-1.56,1.59a6.16,6.16,0,0,1-3.77.23c-1.41-.28-2.78-.7-4.18-1s-2.77-.82-4.31-.08c.24,1.72,1.49,2.52,2.79,3.28.48.27,1,.4,1.54.64,1,.44,1.94.88,1.82,2.21a2.73,2.73,0,0,1-2.5,2.48,10.81,10.81,0,0,1-6.22-1.37,16.2,16.2,0,0,0-4.63-1.92,7.59,7.59,0,0,0-1.09,0c.39,1.69,1.63,2.53,2.88,3.29,1.56,1,3.21,1.79,4.81,2.68a2.54,2.54,0,0,1,1.56,2,2.45,2.45,0,0,1-2.78,2.79,18.62,18.62,0,0,1-9.36-2.58,14.61,14.61,0,0,0-2.52-1.36,4.63,4.63,0,0,0-5,.75c.38.75,1.09,1,1.66,1.32q7.88,4.8,15.78,9.55c1.66,1,1.74,2.71.12,3.79a4.76,4.76,0,0,1-2.75.68,28.46,28.46,0,0,1-17.58-6c-.89-.68-1.74-1.43-2.68-2a5.62,5.62,0,0,0-4.45-1,8.85,8.85,0,0,0,2.92,3.42,18.78,18.78,0,0,0,3.31,2.36c3.48,1.93,6.26,4.68,9,7.44,1.4,1.39,1.62,2.5.87,3.83s-1.73,1.59-3.74,1.26a29.63,29.63,0,0,1-15.35-7.32c-1.49-1.33-3.07-2.56-4.67-3.76a2.31,2.31,0,0,0-3.08-.13c-.62.5-1.32,1-1.25,1.92s1,1,1.6,1.22a3.58,3.58,0,0,1,1.92,1.34c2.63,3.72,5.66,7.13,8.52,10.67a48,48,0,0,1,7.22,12.63,4.07,4.07,0,0,1,.45,1.85c-.13,1.74-1.73,2.59-3.6,1.71a35.86,35.86,0,0,1-7.2-4.27,56.32,56.32,0,0,1-7.44-7.45c-2.34-2.72-4.58-5.54-7.17-8-.57-.56-1.15-1.12-1.76-1.63-2.7-2.24-4.15-2.12-6.91.7,4.42,2.5,6.79,6.81,9.78,10.61,4,5,7.83,10.09,11.46,15.35a18.33,18.33,0,0,0,8.24,6.74,2.53,2.53,0,0,1,1.42,1.2,1.51,1.51,0,0,1-.58,2.25,3.74,3.74,0,0,1-2,.55c-7.66-.12-15.35.38-23.24-.7,3.18,6.25,4.21,13,6.48,19.39l-25.88.1c-.83,0-1.32-.17-1.39-1.14s-.89-1-1.19-.31c-.9,2.1-2.59,1.6-4,1.22a1.82,1.82,0,0,0-1.61.07,3.69,3.69,0,0,1-1.64.15l-68.28,0c-.24-1.67.58-3.24.61-5.1-2.42.49-4.41-.44-6.3-1.6-1-.64-1.46-.37-1.94.63C1081.15,333,1079.52,334.65,1079.55,337Z" transform="translate(6 -8.77)"/>
  <path d="M1468.34,337.06l-36.91,0H1384.7c-1,0-2.07,0-3.11-.07-2-3-5.29-4.83-7.82-7.37-.51-.51-1.1-.94-1.57-1.48a2.65,2.65,0,0,1,2.77-4.36,18.89,18.89,0,0,1,2.84,1.26,83.25,83.25,0,0,0,15.61,6,2.05,2.05,0,0,0,1.74,0c-4.81-2.64-8.72-6.3-12.89-9.64a48.75,48.75,0,0,0-6.35-4.29,13.72,13.72,0,0,1-3.3-2.36c-1.42-1.46-1.48-2.61-.17-4.19a7.31,7.31,0,0,1,2.23-1.79,13,13,0,0,1,4.27-1.5c5.66-.83,11.3-1,16.88.56.93.25,1.83.61,2.77,0s1-1.13.13-1.78a37.73,37.73,0,0,0-5-2.89,21,21,0,0,1-7.21-5.45c-.19-.24-.35-.52-.6-.91a8,8,0,0,1,4.06-1.07,43.1,43.1,0,0,1,10,.72,37.63,37.63,0,0,0,6.45.47,3.44,3.44,0,0,0,2.17-.48c-3.21-1-6.45-1.46-9.63-2.16a46.52,46.52,0,0,1-12.66-4.29,19,19,0,0,1-6.21-5h22.35c-1.71-1.41-3.29-1.62-4.74-2.12-1.2-.42-2.45-.71-3.66-1.12a4.58,4.58,0,0,1-2-1.26,3.51,3.51,0,0,1-.8-3.35c.31-1.27,1.4-1.69,2.54-1.86,1-.14,1.92-.1,2.87-.2a10.19,10.19,0,0,0,4.59-1.16c-3.33-.83-4-3.1-3.87-5.91a6,6,0,0,0-.55-3.5,1.4,1.4,0,0,1,.47-2.08c2.07-1.37,2-3.09,1.23-5.23-2.61-7.45-4.87-15-8.43-22.12a61,61,0,0,0-5.35-8.79,10.29,10.29,0,0,1-1.6-2.66,2.35,2.35,0,0,1,.62-2.62,2.4,2.4,0,0,1,2.64-.58,5,5,0,0,1,1.81,1.15c2.58,2.27,5.15,4.54,7.71,6.84a33.93,33.93,0,0,0,9.09,6.14c3.41,1.5,6.14,4,8.79,6.56,1.49,1.45,3,2.91,4.47,4.34a26.8,26.8,0,0,0,10.26,6.43,15.8,15.8,0,0,1,3.25,1.53c2.87,1.72,3.64,4,2.56,7.15-.17.52-.36,1-.58,1.65a4.35,4.35,0,0,0,2.59-.25c.77-.21,1.52-.51,2.3-.66,2-.4,3,.17,3.72,2.05.08.23.1.47.18.7.53,1.58.57,1.62,2.2.93,1-.44,2-1,3-1.52,1.17-.59,2.34-1.13,3.58-.17a3.73,3.73,0,0,1,1.15,4.11,9.77,9.77,0,0,1-1.29,2.56A58.34,58.34,0,0,1,1440,283.35l-11.06,9.56a4.86,4.86,0,0,0,4.4-1.44L1448,279.18q2.12-1.77,4.29-3.47a10.05,10.05,0,0,1,1.82-1.13,2.91,2.91,0,0,1,3.17.25,2.54,2.54,0,0,1,.83,2.81,14.73,14.73,0,0,1-1,3.45,1.13,1.13,0,0,0,.22,1.51c.62.5,1.06,0,1.46-.37a22.4,22.4,0,0,0,1.72-1.66,2.37,2.37,0,0,1,2.78-.86,3.25,3.25,0,0,1,2.11,2.69,8,8,0,0,1-.47,3.53c-1.11,3.34-2.51,6.56-3.94,9.76a10.48,10.48,0,0,0-.86,2.23,2.53,2.53,0,0,0,3.36,3,15.77,15.77,0,0,0,3-1.46c2.81-1.67,5.67-3.27,8.61-4.7a9.41,9.41,0,0,1,2.2-.92,3,3,0,0,1,3.59,3.66,6,6,0,0,1-1.75,2.81c-1.53,1.64-3.08,3.25-4.61,4.88a9.84,9.84,0,0,0-2.75,4.93,3.19,3.19,0,0,0,2.79-.41,14.9,14.9,0,0,0,4.21-3.14,20.11,20.11,0,0,1,5.36-4,2.79,2.79,0,0,1,3.35.2,2.94,2.94,0,0,1,.7,3.5,17.35,17.35,0,0,1-2.35,4.15,32.37,32.37,0,0,0-4.75,9.33c-1.54,5.07-4.71,9.21-8.37,13C1471.36,334.2,1469.83,335.61,1468.34,337.06Z" transform="translate(6 -8.77)"/>
  <path d="M1133.41,311.6c2.56-.37,3.25.19,2.63,2.57s.22,4.4,1,6.46a2.4,2.4,0,0,0,2.42,1.61c1.29,0,1.82-.83,2.18-1.86s.57-1.82.87-2.73a.71.71,0,0,1,.73-.5.69.69,0,0,1,.56.68,4.11,4.11,0,0,1-.39,2.55,27.21,27.21,0,0,0-4.24,14.48c0,1-.09,1-1.83,1.63-.35-.9.25-1.7.24-2.56s.4-2-.62-2.63-1.68.15-2.43.55-1.65,1-2.49,1.44a2.42,2.42,0,0,1-1.34.42,1,1,0,0,1-.91-.65.73.73,0,0,1,.25-.85c.92-.88,1.85-1.75,2.75-2.67a7.06,7.06,0,0,0,2-4,1.2,1.2,0,0,0-.86-1.47,4.71,4.71,0,0,0-4.76.52c-1.18.83-2.26,1.79-3.44,2.6a3.9,3.9,0,0,1-2.82,1.17c1.17-1.55,2.26-2.94,3.3-4.36.84-1.16,1.67-2.33,2.42-3.55a1.7,1.7,0,0,0,0-2.22,1.78,1.78,0,0,0-2-.19c-2.54.94-5,1.94-7.58,2.93l-1.48.61c.52-1.53,1.5-2.53,1.64-3.86,0-.47.61-.36,1-.16,1.15.63,2.14.13,3.15-.42a42,42,0,0,0,5-3.29c1.07-.81,2.11-1.73,3.58-1.75C1132.46,312.15,1133.06,312.23,1133.41,311.6Z" transform="translate(6 -8.77)" style="fill: #fefefe"/>
  <path d="M1489.5,337.1c-3.58,0-7.17,0-10.75,0-.74,0-1.61.39-2.2-.44A85.34,85.34,0,0,0,1487,324.51c.74-1.07,1.53-2,3.06-1.89a2.35,2.35,0,0,1,2.36,2.23,3.76,3.76,0,0,1-.05,1.42C1491.41,329.88,1490.75,333.57,1489.5,337.1Z" transform="translate(6 -8.77)" style="fill: #010101"/>
  <path d="M619.31,336.67c-.64.72-1.49.4-2.24.41-5.17,0-10.33,0-15.5.05-.86-.39-1.77-.72-2.59-1.19-1.54-.87-2-2.07-1.47-3.32s1.54-1.59,3.25-1.1c6.1,1.72,12.34,2.93,18.32,5.09A1.55,1.55,0,0,0,619.31,336.67Z" transform="translate(6 -8.77)" style="fill: #010101"/>
  <path d="M178.36,231.8c-1.54,2.59-2.07,5.56-2.8,8.45-.29,1.16-.72,1.29-1.82,1.05-6.16-1.35-12.38-2.35-18.74-2a2.51,2.51,0,0,1-2.57-1.39,2,2,0,0,1,.53-2.39,1.47,1.47,0,0,1,1.91-.47,6.73,6.73,0,0,0,4,.3c6.4-1.18,13.05-1.16,19.15-3.82C178.07,231.55,178.16,231.66,178.36,231.8Z" transform="translate(6 -8.77)" style="fill: #fefefe"/>
  <path d="M41.27,233.23c-1-.89-1.86-1.6-2.69-2.28a1.34,1.34,0,0,0-2.22.23,11.07,11.07,0,0,1-4.83,3.38,14.12,14.12,0,0,0-3.8,2c-1.25,1.06-1.3,1.32-3-.14-.28-.25-.6-.45-1.07-.79a10.06,10.06,0,0,0,3.58-4.38A3,3,0,0,1,29,229.4a12.16,12.16,0,0,0,5.26-3.59,19.48,19.48,0,0,1,4.39-3.65c1.39-.77,1.55-.79,2,.66.56,1.68,2.42,3,1.88,4.91A51.2,51.2,0,0,0,41.27,233.23Z" transform="translate(6 -8.77)" style="fill: #fefefe"/>
  <path d="M388.35,273.59c2.45-2.77,4-2.94,6.74-.75a49,49,0,0,1,6,6.16c1.73,2,3.42,4,5.21,6.1a19.06,19.06,0,0,0-4.14,3.89,16.83,16.83,0,0,1-3.53-3.94c-1.13-1.53-2.19-3.13-3.3-4.68A24,24,0,0,0,388.35,273.59Z" transform="translate(6 -8.77)" style="fill: #fefefe"/>
  <path d="M56.08,209a44.69,44.69,0,0,0,3.7,7c-2,1.7-3.92,3.34-5.83,5a1.51,1.51,0,0,1-1.73.3c-2.73-1-5.47-2-8.44-3.07a11,11,0,0,1,3.49-1.75c2-.82,3.5-1.94,3.36-4.37,0-.66.2-1.06.91-1.13A9.46,9.46,0,0,0,56.08,209Z" transform="translate(6 -8.77)" style="fill: #fefefe"/>
  <path d="M367.17,299c-.42,1.92-.85,3.84-1.31,5.94-2.52-1.14-4.14,1-6.3,1.61a2.8,2.8,0,0,1,.29-2.92c.49-.64.66-1.43.06-2-.84-.76-.74-1.71-.87-2.63-.3-2.12-.51-4.27-.87-6.38-.16-.95,0-1.43,1-1.81,2.55-1,4-.31,4.46,2.41.07.39.11.79.17,1.18C364.19,297.61,364.3,297.75,367.17,299Z" transform="translate(6 -8.77)" style="fill: #fefefe"/>
  <path d="M168.46,256.51a10.24,10.24,0,0,1-1.75,3.12c-.63.84-1.19.77-1.89-.07-1.17-1.42-1.46-1.57-2.88-.7a4.24,4.24,0,0,1-2.95.58,53.75,53.75,0,0,0-7.18-.27,8.76,8.76,0,0,1-6.41-2.29,3,3,0,0,1,3.08-.52,8.16,8.16,0,0,0,6,.18,17.46,17.46,0,0,1,6-.47C163.07,256.17,165.64,256.65,168.46,256.51Z" transform="translate(6 -8.77)" style="fill: #fbfbfb"/>
  <path d="M64.47,250.17A5.63,5.63,0,0,0,60.79,253c-.57,1-3.09,1.39-4.32.76-1-.5-1.92-1.12-3.06-1.8,2.25-.87,2.93-2.5,2.92-4.58,0-1.07.5-1.35,1.48-1a1.38,1.38,0,0,1,.6.35A8,8,0,0,0,62.57,249,3.48,3.48,0,0,1,64.47,250.17Z" transform="translate(6 -8.77)" style="fill: #fcfcfc"/>
  <path d="M281.67,274c3.28,2.93,7.21,4.61,11.18,6.75a2.65,2.65,0,0,1-1.91.21,27.16,27.16,0,0,1-2.81-.51C283.59,279.43,283.1,278.94,281.67,274Z" transform="translate(6 -8.77)" style="fill: #f3f3f3"/>
  <path d="M257.17,272.08a13.71,13.71,0,0,1-7.12-.59c-3.72-1.29-3.28-1.26-3.12-4.85C250.1,269.16,253.64,270.59,257.17,272.08Z" transform="translate(6 -8.77)" style="fill: #f5f5f5"/>
  <path d="M218.78,280.24c3.4-2.14,7.39-2.62,11.08-4.58-.55,2.36-1.58,3.62-3.88,4.06S221.26,280.81,218.78,280.24Z" transform="translate(6 -8.77)" style="fill: #f2f2f2"/>
  <path d="M93.57,198a72,72,0,0,0,6.78,6.48c-1.1.34-1.91.81-2.78.44a17.42,17.42,0,0,1-3.51-2.42c-.32-.24-.26-.72-.25-1.12A26.48,26.48,0,0,0,93.57,198Z" transform="translate(6 -8.77)" style="fill: #f2f2f2"/>
  <path d="M361.57,317.22a5.52,5.52,0,0,1,.42,3.69,6,6,0,0,0,.43,3.72c.38.66.35,1.24-.46,1.53a1.46,1.46,0,0,1-1.86-.61,2.53,2.53,0,0,1-.23-1.85,18.56,18.56,0,0,0,.19-3.8A2.6,2.6,0,0,1,361.57,317.22Z" transform="translate(6 -8.77)" style="fill: #f2f2f2"/>
  <path d="M247.93,278c3,1.38,6,1.74,8.43,4.4-2.67-.37-4.89-.68-7.11-1a1,1,0,0,1-.88-.95C248.25,279.76,248.13,279.07,247.93,278Z" transform="translate(6 -8.77)" style="fill: #ececec"/>
  <path d="M293.48,291.92c-1.69-.46-3.36-1-5.05-1.36-1.49-.35-1.21-1.67-1.79-2.93,2.25.67,4.26,1.24,6.24,1.87C294.2,289.93,293.92,290.86,293.48,291.92Z" transform="translate(6 -8.77)" style="fill: #e9e9e9"/>
  <path d="M412.78,291.05c.74.43,1.13.71,1.56.9,1,.43,1.24.93.68,2a58.64,58.64,0,0,1-3.07,5.79Z" transform="translate(6 -8.77)" style="fill: #efefef"/>
  <path d="M264.94,276.92l7.08-5.25-1.2,4c-.16.54-.62.68-1.09.78l-4.62.85Z" transform="translate(6 -8.77)" style="fill: #eee"/>
  <path d="M340.47,307.42a5.53,5.53,0,0,1-2.7-1.61c-.54-.62-1.33-1.49.28-1.87.56-.13.49-.51.46-.91-.1-1.21.51-2.09,1.59-3.27A23.21,23.21,0,0,0,340.47,307.42Z" transform="translate(6 -8.77)" style="fill: #e9e9e9"/>
  <path d="M264.4,319.49a11.54,11.54,0,0,1,4.39-3.71c.75.42.46,1.15.6,1.73.2.85-.11,1.32-1.06,1.45A21.47,21.47,0,0,1,264.4,319.49Z" transform="translate(6 -8.77)" style="fill: #e7e7e7"/>
  <path d="M289.91,298.86c3.82.73,4.11,1,3.86,4a1.92,1.92,0,0,1-2.64-1.45A21.49,21.49,0,0,0,289.91,298.86Z" transform="translate(6 -8.77)" style="fill: #e4e4e4"/>
  <path d="M188.26,305.4a11.33,11.33,0,0,0,1.17,5.08c-1.21-.4-2.52.26-3-1.18S186.54,306.56,188.26,305.4Z" transform="translate(6 -8.77)" style="fill: #ebebeb"/>
  <path d="M224.48,288.63c0,1.58-.36,2.43-1.86,2.41-1,0-2,.12-3.56.23C220.85,289.7,222.65,289.5,224.48,288.63Z" transform="translate(6 -8.77)" style="fill: #ebebeb"/>
  <path d="M260.78,305.54c-3.36.4-3.58.27-3.8-2.1A7.39,7.39,0,0,1,260.78,305.54Z" transform="translate(6 -8.77)" style="fill: #d2d2d2"/>
  <path d="M265.72,331.16a4.39,4.39,0,0,1,2.2-3.11C268.37,331.63,267.89,331.76,265.72,331.16Z" transform="translate(6 -8.77)" style="fill: #e6e6e6"/>
  <path d="M268.87,284.7c-.32,2.35-.68,2.48-3.33,1.38A5.14,5.14,0,0,1,268.87,284.7Z" transform="translate(6 -8.77)" style="fill: #d4d4d4"/>
  <path d="M375.09,281.51c-.62.89-1,1.46-1.43,2s-.7.67-1.16.26-.17-.8.25-1.07A6.58,6.58,0,0,1,375.09,281.51Z" transform="translate(6 -8.77)" style="fill: #ababab"/>
  <path d="M162.21,281.41c.65.42,1.28.82,1.3,1.71C161.53,283.2,161.53,283.2,162.21,281.41Z" transform="translate(6 -8.77)" style="fill: #dedede"/>
  <path d="M1896.57,266.49c.41,1.36.28,2.78,1.7,3.56-2.63,2.81-5.22,5.52-6.26,9.39-1.07-.43-1.31-1.55-2-2.2-1.28-1.18-2.11-1.21-3.14.2-.74,1-1.29,2.15-2,3.38-.86-1.41-1.59-2.7-2.42-3.93a5,5,0,0,0-4-2.36c-1.31-.08-1.88.41-2.1,1.74a13.72,13.72,0,0,0-.09,1.43,1.81,1.81,0,0,1-.52,1.25,8.14,8.14,0,0,1-1.93-2.47,6,6,0,0,0-3-2.59c-1.84-.55-2.69,0-3,1.87a2.9,2.9,0,0,1-.48,1.7,3.72,3.72,0,0,1-2-3c-.24-1.58-.49-3.15-.73-4.73-.53-3.51-2.18-6.64-3.43-9.91-.59-1.53-1.21-3.05-1.84-4.63,3.54-.07,5.25.89,6.18,3.53,2.31,6.52,8.17,6.75,12.58,3.9a7.93,7.93,0,0,1,2.19-1.42c.31-.09.6-.18.88.06a.81.81,0,0,1,.21,1.06c-.41.95-.81,1.9-1.16,2.87s-.49,1.91.45,2.61a2.32,2.32,0,0,0,2.71.1c1.43-.88,2.77-1.88,4.15-2.84a6,6,0,0,1,2-1.28c.1,1.2-.54,2.07-.85,3s-.59,1.88.3,2.64a2.72,2.72,0,0,0,3.13.4,11.82,11.82,0,0,0,2.07-1.62C1894.82,267.59,1895.34,266.73,1896.57,266.49Z" transform="translate(6 -8.77)" style="fill: #fff"/>
  <path d="M1846.26,253.34a190.48,190.48,0,0,0-3.68,18.79,60.48,60.48,0,0,1-6.53-2.51c-1.79-.67-3.55-1.43-5.38-2a2.27,2.27,0,0,1-1.8-1.93c-.61-3-1.38-5.9-1.86-8.88a4,4,0,0,0-2.1-3.23,2.47,2.47,0,0,1-1.3-1.34c-.37-1.08.14-1.73,1.26-1.47,2.41.57,4.82,1.08,7.27,1.46a64.27,64.27,0,0,0,12.84,1C1845.3,253.23,1845.61,253.29,1846.26,253.34Z" transform="translate(6 -8.77)" style="fill: #fff"/>
  <path d="M1872.93,291.65c.1,3.47,1.07,4.23,4.29,3.55a12,12,0,0,0,3.93-1.69,11.24,11.24,0,0,1,3-1.59,5.32,5.32,0,0,1-.3,3.15c-.69,3-.29,3.61,2.79,4,.55.07.66.27.67.7a2.23,2.23,0,0,1-.8,1.92c-2.14,1.62-2.8,4-3.43,6.39-.1.36,0,.82-.53,1-.63-.26-.77-.95-1.15-1.42a4.38,4.38,0,0,0-2.15-1.44c-1.8-.57-2.71-.06-3.19,1.75-.27,1,0,2.25-1,3.08-.83-.29-1.12-1.09-1.63-1.67-.74-.83-1.41-1.74-2.21-2.51-1.65-1.61-2.51-1.46-3.61.53s-1.39,2-3.55,1.41c.58-.7,1.11-1.33,1.63-2a10.8,10.8,0,0,0,2.13-3.43,2.59,2.59,0,0,0-1-3.35c-.31-.25-.66-.45-1-.7-1.42-1.22-1.5-1.95-.37-3.45a5.64,5.64,0,0,1,2.93-2.31A44.31,44.31,0,0,0,1872.93,291.65Z" transform="translate(6 -8.77)" style="fill: #fff"/>
  <path d="M1876.1,249.21a18.13,18.13,0,0,1-2.65-4,6,6,0,0,0-3.37-2.88c-1.75-.49-2.47,0-2.87,1.78a2.92,2.92,0,0,1-.63,1.71c-1-1.25-2.15-2.43-3-3.75-1.18-1.74-.35-4.84,1.44-5.9.47-.29,1-.34,1.31.07,1.57,2.23,3.43,1.91,5.27.59.87.72.76,1.57,1,2.33.55,2.29,1.59,2.71,3.62,1.41a29,29,0,0,0,5.27-4.5c.26-.27.56-.52,1-.94.38,1.26-.36,2.13-.45,3.09-.16,1.58.23,2.2,1.8,2.5a4,4,0,0,0,3.66-1.28c1.18-1.14,2-2.7,3.71-3.57.19,1.31.33,2.46.52,3.6.38,2.33,1,2.63,3.26,1.85.57-.2,1.08-.68,1.89-.48,0,1.87-1,3.3-1.85,4.78a10.08,10.08,0,0,0-1.31,5.22c-1-.67-1.15-1.65-1.69-2.38a2.94,2.94,0,0,0-3-1.47c-1.26.23-1.54,1.25-1.83,2.26s-.18,2.54-1.27,2.6c-1.28.07-1.31-1.55-1.65-2.55a10.59,10.59,0,0,0-2.67-4.19,3.51,3.51,0,0,0-2.55-1.12c-1.78,0-2.5.6-2.6,2.36A7.21,7.21,0,0,1,1876.1,249.21Z" transform="translate(6 -8.77)" style="fill: #fefefe"/>
  <path d="M1830.26,274.29c3.56,1.62,7,3.2,10.36,4.71,1.09.48.74,1.3.62,2-.56,3.38-1.16,6.76-1.77,10.13a22,22,0,0,1-1.25,5.15c-2.14-.83-4.22-1.64-6.31-2.42-.76-.29-1.2-.67-1-1.58a2.07,2.07,0,0,0-.3-1.62c-1.73-2.67-1.63-5.63-1.27-8.58A73.74,73.74,0,0,0,1830.26,274.29Z" transform="translate(6 -8.77)" style="fill: #fff"/>
  <path d="M1901.65,251.79a4,4,0,0,1-2-2c-1.14-1.91-1-3.39.83-4.55a15.42,15.42,0,0,0,6.75-8.64,1.37,1.37,0,0,1,1.38-1.11,1.4,1.4,0,0,1,1.27.93c1.16,2.7,2.54,5.31,2.45,8.4a9.43,9.43,0,0,1-2.47,6.05c-.85,1-1.14,1-2-.12-.5-.61-.93-1.29-1.4-1.93a3.33,3.33,0,0,0-1.89-1.38,2,2,0,0,0-2.7,1.83C1901.74,250,1901.73,250.79,1901.65,251.79Z" transform="translate(6 -8.77)" style="fill: #fefefe"/>
  <path d="M1881.28,109.61c-.73,3.65-1.44,7.3-2.19,11-.42,2-.88,4-1.36,6a21.23,21.23,0,0,1-.76,2.5,2.2,2.2,0,0,1-2,1.73,3,3,0,0,1-2.56-2.18,4.59,4.59,0,0,1,.54-3.45,147.79,147.79,0,0,0,7.91-15.7Z" transform="translate(6 -8.77)" style="fill: #fbfbfb"/>
  <path d="M1862.48,322.39c0,.38,0,.83-.58.76-.38,0-.84-.22-.74-.67a1,1,0,0,1,1-.82C1862.57,321.68,1862.45,322.1,1862.48,322.39Z" transform="translate(6 -8.77)" style="fill: #bababa"/>
  <path d="M1906,310.78c0,.55-.09,1-.71,1-.24,0-.5-.08-.49-.33a1.05,1.05,0,0,1,.8-1C1906,310.31,1905.9,310.63,1906,310.78Z" transform="translate(6 -8.77)" style="fill: #969696"/>
  <path d="M727.39,331.78a8.15,8.15,0,0,1,.36,4.4A10.55,10.55,0,0,1,727.39,331.78Z" transform="translate(6 -8.77)" style="fill: #7f7f7f"/>
  <path d="M726.69,314.93c.29-.94.94-1.18,1.4-1.58a8.94,8.94,0,0,0,3.48-6.06c.26-2.64,1.75-4.75,3.32-7.05a56.73,56.73,0,0,0,14.17,12c-.82,1.51-1.61,2.95-2.37,4.41a1.21,1.21,0,0,1-1.58.66A92.6,92.6,0,0,0,726.69,314.93Z" transform="translate(6 -8.77)" style="fill: #fff"/>
  <path d="M1172.55,313.16c.88-1,1-2.48,2.47-2.61.59.63.08,1.25.12,1.83,0,.79-.25,1.72.31,2.32,1.34,1.43.68,2.8.25,4.33a35,35,0,0,0-1,5.39c-.12,1.07-.6,1.24-1.56,1.21a14,14,0,0,1-5.49-1.48c-.65-.3-1-.66-.67-1.45.65-1.38.14-2.63-.44-3.88-1.49-3.17-3-6.34-4.41-9.53-.56-1.24-1.42-2.49-.06-3.84.35-.34.31-1.05.48-1.58a1.35,1.35,0,0,1,1.33-1.07c-.15,2.86,1.71,4.33,3.91,5.63C1170.83,310.21,1171,310.44,1172.55,313.16Z" transform="translate(6 -8.77)" style="fill: #fefefe"/>
  <path d="M892.7,297.15c-4.5.8-4.48.78-6.66-3-1.2-2.06-2.49-4.07-3.83-6.24a75.69,75.69,0,0,0,8.59-6.69c1,3.42,1.49,6.6,2.1,9.76.07.39.16.82-.21,1.11-1.89,1.49-1.22,3-.1,4.58A1.42,1.42,0,0,1,892.7,297.15Z" transform="translate(6 -8.77)" style="fill: #fefefe"/>
  <path d="M694.88,290.69a7.41,7.41,0,0,1,.71,5.11c-.32,2.29-2.65,4.67-5.39,3.51a4.86,4.86,0,0,0-4.17-.26c-.58.28-.87-.21-1.13-.6a13.31,13.31,0,0,1-2.14-5.53c-.2-1.39.17-1.75,1.57-1.53a38.24,38.24,0,0,0,5.22.68,14.8,14.8,0,0,0,4.73-.57c.39-.13.77-.25.6-.8Z" transform="translate(6 -8.77)" style="fill: #fefefe"/>
  <path d="M933.26,253.61c.55,1.18,1,2.18,1.49,3.17a56.19,56.19,0,0,0,6.07,10,19.21,19.21,0,0,1,1.87,3.07c.61,1.22.13,2.36-.36,3.44-.34.76-1.5.82-2.27.11a10.84,10.84,0,0,1-1.53-1.84,62,62,0,0,1-5.75-10.48c-.65-1.47-.77-2.73.49-4-.9-.38-1.91-.13-2.55-.8-.43-.45-.88-1.1.16-1.44A8.77,8.77,0,0,0,933.26,253.61Z" transform="translate(6 -8.77)" style="fill: #fdfdfd"/>
  <path d="M669.7,222.48c-1.31,6.21-2.61,12.43-3.94,18.64a12.43,12.43,0,0,1-.71,2c-.39,1-1,1.66-2.15,1.49a2.68,2.68,0,0,1-2.37-2.06,5.19,5.19,0,0,1,.73-3.89c1.41-2.58,2.86-5.15,4.19-7.77,1.41-2.8,2.71-5.66,4.06-8.49Z" transform="translate(6 -8.77)" style="fill: #fdfdfd"/>
  <path d="M1166.21,291.25a28.23,28.23,0,0,1,4.38-3c1.47-.71,2.35-.38,3.11,1.08a8.26,8.26,0,0,1,.88,2.95c.13,1.22.61,1.71,1.88,1.34.73-.21,1.66-.64,2.23.08.72.88.33,2,0,2.95a1.77,1.77,0,0,1-1.59,1.23,1.36,1.36,0,0,1-1.69-.84c-.65-1.3-2.08-1.36-3.31-1.59-1.78-.32-3.51-.62-3.79-2.89-.07-.54-.5-.52-.89-.53A1.11,1.11,0,0,1,1166.21,291.25Z" transform="translate(6 -8.77)" style="fill: #fdfdfd"/>
  <path d="M1143.29,304.39a69.41,69.41,0,0,1,10.28-5.75,5.07,5.07,0,0,1,1.13-.34c.46-.06,1-.13,1.25.4s-.14.73-.33,1.06a24.19,24.19,0,0,1-3.38,4.29c-.56.58-1,1.21-1.73.1-.32-.47-1.2-.1-1.82-.07A29.31,29.31,0,0,1,1143.29,304.39Z" transform="translate(6 -8.77)" style="fill: #f9f9f9"/>
  <path d="M1052.55,326.15a66.84,66.84,0,0,0-7.57-1.75,1.83,1.83,0,0,1-1.77-1.27,5.6,5.6,0,0,0-1.43-1.89.63.63,0,0,1,0-.86c.24-.31.49-.59,1-.35,2.44,1.26,5.17,1.5,7.74,2.28C1053.52,323.22,1053.47,323,1052.55,326.15Z" transform="translate(6 -8.77)" style="fill: #fbfbfb"/>
  <path d="M962.24,264.94a31.73,31.73,0,0,1-3.92,5.78,2.52,2.52,0,0,1-4-.36c-.24-.41-.4-.88-.66-1.27-.53-.82-.26-1.48.54-1.71,2.29-.69,4.28-2.19,6.72-2.43C961.24,264.92,961.55,264.94,962.24,264.94Z" transform="translate(6 -8.77)" style="fill: #fbfbfb"/>
  <path d="M968.94,249.72c-.21.74-.3,1.13-.43,1.5-1.42,4-.43,3-4.8,3.67-1.52.25-2.42-.35-2.62-1.44a2,2,0,0,1,1.53-2.38A19.92,19.92,0,0,1,968.94,249.72Z" transform="translate(6 -8.77)" style="fill: #fbfbfb"/>
  <path d="M1092.09,323.18c-3.24-1-6.52-1.05-9.72-1.6-.53-.09-1.2,0-1.22-.82a4,4,0,0,1,.4-2.31c.09-.13.45-.15.66-.11,3.21.65,6.44,1.26,9.08,3.4A1.56,1.56,0,0,1,1092.09,323.18Z" transform="translate(6 -8.77)" style="fill: #f6f6f6"/>
  <path d="M1082,306.32a14,14,0,0,1,9.67,5.59,28,28,0,0,0-8.58-1.21c-.72,0-.91-.5-.94-1.12C1082.06,308.55,1082,307.53,1082,306.32Z" transform="translate(6 -8.77)" style="fill: #f9f9f9"/>
  <path d="M1044.69,313.09V309c3.45,1.1,6.89,2.19,9.87,4.48a14.36,14.36,0,0,1-4.81-.14A39.54,39.54,0,0,0,1044.69,313.09Z" transform="translate(6 -8.77)" style="fill: #f7f7f7"/>
  <path d="M1075.66,287.74c.14-1.84.87-3.16.69-4.76,3.27,2.34,7,3.79,10.25,5.94a19,19,0,0,1-7.6-1.37A3.24,3.24,0,0,0,1075.66,287.74Z" transform="translate(6 -8.77)" style="fill: #f2f2f2"/>
  <path d="M930.92,288.75c.35-1-.18-1.76-.57-2.64a32.51,32.51,0,0,1-1-3.4c-.24-.79.22-1.17.8-1.5.77-.46,1,.22,1.21.66a13.78,13.78,0,0,1,2.07,4.74,3.91,3.91,0,0,1-.75,3.12c-.32.4-.65,1-1.31.78s-.4-.8-.45-1.26A2.94,2.94,0,0,1,930.92,288.75Z" transform="translate(6 -8.77)" style="fill: #f4f4f4"/>
  <path d="M754,319.28c0-.28-.05-.45,0-.58,1.41-3,1.4-3,4.41-1.63,1.15.52,2.36.92,3.5,1.45a1.17,1.17,0,0,1,.56,1.93c-.51.77-1.1.75-1.76.17a6.34,6.34,0,0,0-4.44-1.34Z" transform="translate(6 -8.77)" style="fill: #f4f4f4"/>
  <path d="M1014.64,277.71c3.21-1.76,6.64-3,9.73-5.36-.06.81-.08,1.28-.14,1.74-.24,2.08-.24,2.07-2.2,2.63-1.52.43-3,.94-4.57,1.28A3.91,3.91,0,0,1,1014.64,277.71Z" transform="translate(6 -8.77)" style="fill: #f2f2f2"/>
  <path d="M1079.71,294.77c2.09,1.52,4.46,1.84,6.7,2.58a4.46,4.46,0,0,1,2.92,2.63c-.52.63-1.07.21-1.53.09-1.92-.51-3.83-1.1-5.75-1.65C1079.76,297.77,1079.76,297.77,1079.71,294.77Z" transform="translate(6 -8.77)" style="fill: #f4f4f4"/>
  <path d="M1041.32,289.51c-.19-1.47-.34-2.64-.52-4.07,3.07,1.68,6.5,2.06,9.38,4.66C1047,290.33,1044.28,289,1041.32,289.51Z" transform="translate(6 -8.77)" style="fill: #f1f1f1"/>
  <path d="M1022.76,284.37c-.32,2.61-.31,2.64-2.43,3.18-1.53.39-3.09.69-4.64,1a.74.74,0,0,1-1-.45.82.82,0,0,1,.43-1.18c.87-.38,1.75-.74,2.65-1C1019.39,285.38,1021,284.92,1022.76,284.37Z" transform="translate(6 -8.77)" style="fill: #f1f1f1"/>
  <path d="M1101.66,277.16l-.09.44c-.59,2.88-2.7,3.71-5.28,4a5.77,5.77,0,0,1-2.5.25c2.46-2.21,4.86-3.94,7.91-4.63Z" transform="translate(6 -8.77)" style="fill: #f3f3f3"/>
  <path d="M1012.89,324c.33-2.78.89-3.21,4.51-3.7.56.37.34,1,.4,1.48.11.93-.17,1.45-1.23,1.54S1014.27,323.71,1012.89,324Z" transform="translate(6 -8.77)" style="fill: #f5f5f5"/>
  <path d="M1020.86,296c-.08.72-.16,1.19-.19,1.65a1,1,0,0,1-1,1c-1.5.1-3,.27-4.53.41C1015.47,297.5,1016.22,297.1,1020.86,296Z" transform="translate(6 -8.77)" style="fill: #ededed"/>
  <path d="M1018.7,307.87c-.45,3.32-.46,3.05-4,3.53C1014.27,309,1014.7,308.61,1018.7,307.87Z" transform="translate(6 -8.77)" style="fill: #ededed"/>
  <path d="M1098.49,288c-.53,3.24-3.13,4.47-5.51,2.82C1094.36,289.15,1096.28,288.61,1098.49,288Z" transform="translate(6 -8.77)" style="fill: #f5f5f5"/>
  <path d="M1116.37,291.56c-4.16,0-5.31-.57-5.93-3.08C1112.58,289.08,1114.58,289.63,1116.37,291.56Z" transform="translate(6 -8.77)" style="fill: #e4e4e4"/>
  <path d="M1116.7,306a3.41,3.41,0,0,1,2.87,1.13c.43.58.57,1.11-.39,1.37C1117.52,308.93,1117.08,308.55,1116.7,306Z" transform="translate(6 -8.77)" style="fill: #dedede"/>
  <path d="M1114,297.68a3.43,3.43,0,0,1,2.3.79c.42.33,1,.59,1,1.25,0,.4-.41.47-.71.5-.69.07-1.47.29-1.85-.6C1114.5,299.05,1114.31,298.47,1114,297.68Z" transform="translate(6 -8.77)" style="fill: #e1e1e1"/>
  <path d="M1012.94,335.7c.41-2.22,1-2.8,2.32-2.8a.62.62,0,0,1,.56.33c.17.26,0,.45-.14.63a1.51,1.51,0,0,1-.36.3Z" transform="translate(6 -8.77)" style="fill: #d0d0d0"/>
  <path d="M1046.77,299.7c-3.07-.62-3.07-.62-3.25-2.8C1044.88,297.43,1045.63,298.45,1046.77,299.7Z" transform="translate(6 -8.77)" style="fill: #d5d5d5"/>
  <path d="M1057.82,275.06l2.91-.75a1.33,1.33,0,0,1-.54,1.83C1059.32,276.59,1058.58,276.14,1057.82,275.06Z" transform="translate(6 -8.77)" style="fill: #dbdbdb"/>
  <path d="M928.31,276.25a.48.48,0,0,1-.54.6c-1.08,0-1-1-1.34-1.69a.45.45,0,0,1,.48-.62C927.89,274.67,927.86,275.68,928.31,276.25Z" transform="translate(6 -8.77)" style="fill: #d2d2d2"/>
  <path d="M961.1,315h-1.69c-.6,0-.91-.21-.75-.85s.5-.58.9-.39A2.54,2.54,0,0,1,961.1,315Z" transform="translate(6 -8.77)" style="fill: #c1c1c1"/>
  <path d="M1096,300.05c0,.68-.09,1.17-.71,1.15-.43,0-1.09,0-1.06-.6s.76-.67,1.22-.86A.37.37,0,0,1,1096,300.05Z" transform="translate(6 -8.77)" style="fill: #c8c8c8"/>
</svg>
