<svg xmlns="http://www.w3.org/2000/svg" width="115.97" height="152.76" viewBox="0 0 115.97 152.76"><g id="Layer_2" data-name="Layer 2"><g id="Layer_1-2" data-name="Layer 1"><path d="M0,123.72c.44-.4.9-.79,1.32-1.22L50.09,73.74c1.26-1.26,1.26-1.26,2.49,0,1.72,1.73,3.41,3.49,5.19,5.16.86.8.77,1.33,0,2.13Q47.15,91.52,36.61,102.1L1.41,137.29c-.42.42-.77.94-1.41,1.07Z" style="fill:#fecb00"/><path d="M25.2,152.76c.29-.33.55-.68.86-1l27.05-27.06c1.23-1.23,1.24-1.23,2.44,0,1.78,1.78,3.53,3.59,5.36,5.33.73.7.66,1.15,0,1.84Q51,141.66,41.2,151.52c-.4.39-.75.82-1.12,1.24Z" style="fill:#fecb00"/><path d="M0,39c.41-.38.83-.75,1.22-1.15q18.5-18.48,37-37c1.18-1.17,1.18-1.17,2.32,0,.61.63,1.22,1.26,1.86,1.87.45.42.46.79,0,1.2a4.83,4.83,0,0,0-.51.5L1.41,44.89C1,45.31.64,45.83,0,46Z" style="fill:#fecb00"/><path d="M74.16,152.76a9.69,9.69,0,0,1,.75-.92q19.5-19.53,39-39a6.13,6.13,0,0,1,.71-.64c.46-.32.74.06,1,.33s.45.57.12.93l-.75.77L77.78,151.44c-.42.42-.81.88-1.22,1.32Z" style="fill:#fecb00"/><path d="M0,97.56c.41-.38.84-.74,1.23-1.13q10.52-10.5,21-21c.34-.34.59-.93,1.25-.73.83.25.93,1,.21,1.73l-9.91,9.92Q7.49,92.64,1.18,99c-.36.36-.79.67-1.18,1Z" style="fill:#fecb00"/></g></g></svg>