<svg id="Layer_1" data-name="Layer 1" xmlns="http://www.w3.org/2000/svg" width="607.24" height="156.24" viewBox="0 0 607.24 156.24"><g id="Layer_2" data-name="Layer 2"><g id="Layer_1-2" data-name="Layer 1-2"><g style="isolation:isolate"><g style="isolation:isolate"><path d="M77.16,66.53H61.38L59,79.52H77v13H56.8l-4.87,27H38.51l4.87-27H29.65l-4.86,27H11.36l4.87-27H6.64v-13h12l2.36-13H6.79V53.4H23.16L27.74,28H41.16L36.59,53.4H50.31L54.88,28H68.31L63.74,53.4H77.16Zm-29.06,0H34.23l-2.36,13H45.59Z" style="fill:#fecb00"/></g><g style="isolation:isolate"><path d="M89,28h56.81V41.31h-21.4V119.5h-14V41.31H89Z" style="fill:#fecb00"/></g><g style="isolation:isolate"><path d="M215.84,117.88v1.62h-14v-1.62c0-13-1-23.61-5.91-33.79a28.88,28.88,0,0,1-10.17,1.77,24.62,24.62,0,0,1-15.64-5.46v39.1h-14V57.83c0-18.44,12.84-31.28,29.66-31.28s29.94,13,29.94,29.66a29,29,0,0,1-8.26,20.5C214.22,88.81,215.84,102.24,215.84,117.88ZM186,72.58c8.56,0,15.64-7.23,15.64-16.52a15.72,15.72,0,1,0-31.43,0C170.25,65.35,177.34,72.58,186,72.58Z" style="fill:#fecb00"/><path d="M317.94,73.76c0,28.77-19.92,47.07-44.27,47.07s-44.11-19.77-44.11-47.07S249,26.85,273.67,26.85C298.61,26.85,317.94,46.91,317.94,73.76Zm-14,0a39.21,39.21,0,0,0-2.21-13.57,47.32,47.32,0,0,1-28,9.59,46.85,46.85,0,0,1-27.88-9.59,40.15,40.15,0,0,0-2.21,13.57c0,20.95,13.57,33.79,30.09,33.79C290.79,107.55,303.92,94.71,303.92,73.76ZM252.72,49a35,35,0,0,0,21,7.23c7.38,0,15.64-2.66,21.25-7.38a29.52,29.52,0,0,0-21.25-8.71A28.26,28.26,0,0,0,252.72,49Z" style="fill:#fecb00"/><path d="M393.47,56.21c0,17-12.39,29.65-28.47,29.65a29.07,29.07,0,0,1-17.12-5.46v39.1h-14V57.83c0-18.44,12.83-31.28,29.65-31.28S393.47,39.54,393.47,56.21Zm-14-.15a15.72,15.72,0,1,0-31.43,0c0,9.29,7.08,16.52,15.79,16.52C372.37,72.58,379.46,65.35,379.46,56.06Z" style="fill:#fecb00"/><path d="M422.09,28V119.5h-14V28Z" style="fill:#fecb00"/><path d="M456.47,106.22h29.95V91.47H499v28H442.45V54.88c0-16.67,10.62-28.33,29.51-28.33,12.54,0,23.75,6.79,29.06,20.36L488,53c-3.39-9.59-9.29-13.13-16.23-13.13-9,0-15.34,5.61-15.34,16.08Z" style="fill:#fecb00"/><path d="M600.9,73.76c0,28.77-19.91,47.07-44.26,47.07s-44.11-19.77-44.11-47.07S532,26.85,556.64,26.85C581.58,26.85,600.9,46.91,600.9,73.76Zm-14,0a39,39,0,0,0-2.22-13.57,47.29,47.29,0,0,1-28,9.59,46.85,46.85,0,0,1-27.88-9.59,40.16,40.16,0,0,0-2.22,13.57c0,20.95,13.58,33.79,30.1,33.79C573.76,107.55,586.89,94.71,586.89,73.76ZM535.69,49a35,35,0,0,0,20.95,7.23c7.38,0,15.64-2.66,21.25-7.38a29.53,29.53,0,0,0-21.25-8.71A28.24,28.24,0,0,0,535.69,49Z" style="fill:#fecb00"/></g></g></g></g></svg>