<svg id="Layer_1" data-name="Layer 1" xmlns="http://www.w3.org/2000/svg" width="173.32" height="65.7" viewBox="0 0 173.32 65.7"><g style="isolation:isolate"><g style="isolation:isolate"><path d="M39.83,32.19H54.46v3.42H49V55.75H45.34V35.61H39.83Z" style="fill:#fecb00"/></g><g style="isolation:isolate"><path d="M72.51,55.33v.42H68.9v-.42c0-3.34-.27-6.08-1.52-8.7a7.33,7.33,0,0,1-2.62.46,6.33,6.33,0,0,1-4-1.41V55.75H57.12V39.87c0-4.75,3.31-8.06,7.64-8.06a7.59,7.59,0,0,1,7.71,7.64,7.47,7.47,0,0,1-2.13,5.28C72.09,47.85,72.51,51.3,72.51,55.33ZM64.83,43.67a4.22,4.22,0,1,0-4.06-4.26A4.13,4.13,0,0,0,64.83,43.67Z" style="fill:#fecb00"/><path d="M98.8,44c0,7.41-5.13,12.12-11.4,12.12S76,51,76,44s5-12.08,11.36-12.08S98.8,37.06,98.8,44Zm-3.61,0a10,10,0,0,0-.57-3.49,11.73,11.73,0,0,1-14.4,0A10.34,10.34,0,0,0,79.65,44c0,5.4,3.5,8.7,7.75,8.7C91.81,52.67,95.19,49.37,95.19,44ZM82,37.59a9,9,0,0,0,5.39,1.86,8.87,8.87,0,0,0,5.48-1.9,7.64,7.64,0,0,0-5.48-2.24A7.25,7.25,0,0,0,82,37.59Z" style="fill:#fecb00"/><path d="M118.26,39.45a7.34,7.34,0,0,1-7.33,7.64,7.47,7.47,0,0,1-4.41-1.41V55.75h-3.61V39.87c0-4.75,3.3-8.06,7.64-8.06A7.59,7.59,0,0,1,118.26,39.45Zm-3.61,0a4,4,0,1,0-8.09,0,4.05,4.05,0,1,0,8.09,0Z" style="fill:#fecb00"/><path d="M125.63,32.19V55.75H122V32.19Z" style="fill:#fecb00"/><path d="M134.49,52.33h7.71v-3.8h3.23v7.22H130.88V39.11c0-4.29,2.73-7.3,7.6-7.3A7.81,7.81,0,0,1,146,37.06l-3.34,1.55c-.88-2.47-2.4-3.38-4.18-3.38-2.32,0-3.95,1.45-3.95,4.14Z" style="fill:#fecb00"/><path d="M171.69,44c0,7.41-5.13,12.12-11.4,12.12S148.93,51,148.93,44s5-12.08,11.36-12.08S171.69,37.06,171.69,44Zm-3.61,0a10,10,0,0,0-.57-3.49A12.25,12.25,0,0,1,160.29,43a12.11,12.11,0,0,1-7.18-2.47,10.34,10.34,0,0,0-.57,3.49c0,5.4,3.49,8.7,7.75,8.7S168.08,49.37,168.08,44Zm-13.19-6.38a9,9,0,0,0,5.4,1.86,8.84,8.84,0,0,0,5.47-1.9,7.62,7.62,0,0,0-5.47-2.24A7.26,7.26,0,0,0,154.89,37.59Z" style="fill:#fecb00"/></g></g><path d="M33,39.8v5.51a.73.73,0,0,1-.35.6c-1.26,1-2.52,2-3.76,3.07-.32.28-.51.2-.79,0q-2.27-1.87-4.56-3.72a1.38,1.38,0,0,0-1.95-.14.93.93,0,0,0-.14.14c-1.49,1.21-3,2.41-4.43,3.65a.67.67,0,0,1-.95.05L16,48.91c-1.4-1.19-2.83-2.34-4.25-3.51-1-.81-1.44-.82-2.45,0-1.51,1.15-3,2.34-4.42,3.6-.3.25-.49.29-.8,0-1.24-1-2.5-2-3.75-3.07-.17-.14-.35-.25-.35-.52V39.83l3.15,2.58c1.08.89,1.54.9,2.63,0C7.19,41.27,8.61,40.14,10,39c.42-.37.65-.29,1,0,1.45,1.22,2.92,2.4,4.38,3.59a1.48,1.48,0,0,0,2.09.13.8.8,0,0,0,.13-.13L22,39c.37-.31.6-.38,1,0,1.43,1.23,2.91,2.41,4.38,3.6a1.51,1.51,0,0,0,2.13.15l.15-.15C30.74,41.66,31.79,40.78,33,39.8Z" style="fill:#fecb00"/><path d="M33,49.26A25.09,25.09,0,0,1,32.7,55a1.19,1.19,0,0,1-.46.72c-1.11.88-2.21,1.79-3.3,2.7a.5.5,0,0,1-.7.09l-.09-.09c-1.49-1.25-3-2.47-4.5-3.69a1.43,1.43,0,0,0-2-.2,1.89,1.89,0,0,0-.2.2c-1.45,1.17-2.9,2.34-4.32,3.55-.43.36-.7.41-1.16,0-1.39-1.2-2.83-2.35-4.26-3.51-.93-.76-1.41-.77-2.33,0-1.51,1.23-3,2.4-4.47,3.63a.54.54,0,0,1-.76.09l-.09-.09C3,57.49,1.9,56.61.81,55.74a1.48,1.48,0,0,1-.52-.93A25.87,25.87,0,0,1,0,49.25c1.06.87,2,1.65,3,2.45,1.26,1,1.64,1,2.91,0s2.78-2.26,4.15-3.41c.3-.25.48-.27.79,0,1.48,1.25,3,2.46,4.49,3.69a1.5,1.5,0,0,0,2.12.1.94.94,0,0,0,.1-.1c1.51-1.23,3-2.44,4.5-3.68a.54.54,0,0,1,.74-.11l.11.11c1.48,1.25,3,2.47,4.49,3.69a1.48,1.48,0,0,0,2.09.08l.08-.08Z" style="fill:#fecb00"/><path d="M1.55,31.61,3.38,33.1a1.46,1.46,0,0,0,2.06.16l.16-.16c1.49-1.21,3-2.41,4.44-3.65a.58.58,0,0,1,.81-.1.47.47,0,0,1,.1.1c1.47,1.23,3,2.44,4.44,3.64a1.44,1.44,0,0,0,2,.19l.19-.19c1.49-1.21,3-2.41,4.44-3.64a.59.59,0,0,1,.81-.11.57.57,0,0,1,.11.11c1.46,1.23,3,2.43,4.43,3.64a1.46,1.46,0,0,0,2.06.16l.16-.16,1.54-1.27c.23-.2.35-.15.45.12a18,18,0,0,1,1.1,4,.65.65,0,0,1-.28.69c-1.18,1-2.37,1.91-3.53,2.89a.53.53,0,0,1-.8,0c-1.48-1.25-3-2.47-4.49-3.69a1.45,1.45,0,0,0-2-.18l-.18.18C20,37,18.49,38.18,17.08,39.4a.76.76,0,0,1-1,.12l-.12-.12c-1.4-1.19-2.83-2.33-4.26-3.5-.91-.75-1.39-.76-2.33,0-1.47,1.19-2.94,2.38-4.38,3.6-.35.3-.55.3-.91,0-1.12-1-2.26-1.88-3.42-2.79a.74.74,0,0,1-.32-.81A17.34,17.34,0,0,1,1.55,31.61Z" style="fill:#fdcb00"/><path d="M4.14,61.84a1.84,1.84,0,0,0,1.51-.51C7.08,60.14,8.55,59,10,57.77c.44-.38.7-.3,1.09,0,1.42,1.2,2.87,2.37,4.32,3.55a1.47,1.47,0,0,0,2.07.21,1,1,0,0,0,.21-.21c1.48-1.21,3-2.41,4.43-3.64a.54.54,0,0,1,.77-.09.76.76,0,0,1,.09.09c1.42,1.2,2.88,2.36,4.32,3.54a1.86,1.86,0,0,0,1.57.6,13.32,13.32,0,0,1-5.46,3.23,12.89,12.89,0,0,1-4,.6,66.14,66.14,0,0,1-7.71-.15A13.39,13.39,0,0,1,4.14,61.84Z" style="fill:#fdcb00"/><path d="M30.06,29.07c0,.28-.3.37-.48.52-1,.87-1.06.87-2.09,0l-3.87-3.17a1.45,1.45,0,0,0-2-.18,1.53,1.53,0,0,0-.18.18c-1.48,1.21-3,2.41-4.44,3.64a.59.59,0,0,1-.81.11.57.57,0,0,1-.11-.11c-1.44-1.22-2.91-2.4-4.38-3.6a1.49,1.49,0,0,0-2.09-.24,1.36,1.36,0,0,0-.24.24C7.89,27.68,6.43,28.84,5,30c-.38.32-.61.4-1,0-1.16-1-1.2-1-.19-2.2A16,16,0,0,1,17.4,21.85a15.9,15.9,0,0,1,12.36,6.64l.25.36A.54.54,0,0,1,30.06,29.07Z" style="fill:#fecb00"/><path d="M16.51,0c.64,1.38,1.23,2.59,1.78,3.8a47.88,47.88,0,0,1,2.52,6.87c.11.39.11.61-.29.83A10,10,0,0,0,16.79,15c-.25.39-.38.32-.59,0a10.23,10.23,0,0,0-3.68-3.42.63.63,0,0,1-.39-.8l0-.07A60.71,60.71,0,0,1,16.51,0Z" style="fill:#7db138"/><path d="M3.66,11.89c3.2.31,6.24.89,8.8,2.95a7.17,7.17,0,0,1,2.36,3.71c.12.43,0,.63-.43.68a18.33,18.33,0,0,0-5.3,1.37c-.25.1-.39.1-.47-.2a19.12,19.12,0,0,0-4.88-8.25S3.7,12,3.66,11.89Z" style="fill:#7db138"/><path d="M29.31,12a22,22,0,0,0-4.19,6.3c-.28.67-.5,1.38-.72,2.07-.09.29-.19.39-.5.25a18.07,18.07,0,0,0-5.31-1.37c-.5,0-.53-.27-.41-.68A7,7,0,0,1,20.32,15C22.9,12.81,26.05,12.23,29.31,12Z" style="fill:#7db138"/><path d="M23.58,10.14C23.2,9,22.82,7.83,22.43,6.68a.27.27,0,0,1,.12-.35h0A22.51,22.51,0,0,1,26.9,4.94,26.22,26.22,0,0,0,23.58,10.14Z" style="fill:#7db038"/><path d="M9.41,10.11A25.22,25.22,0,0,0,6.11,5a13.61,13.61,0,0,1,3,.82c1.54.51,1.53.52,1,2C9.89,8.59,9.66,9.35,9.41,10.11Z" style="fill:#7db038"/></svg>