<svg xmlns="http://www.w3.org/2000/svg" width="33" height="27.02" viewBox="0 0 33 27.02"><g id="Layer_2" data-name="Layer 2"><g id="Layer_1-2" data-name="Layer 1"><path d="M33,1.11c0,2,0,3.73,0,5.52a.74.74,0,0,1-.35.59c-1.26,1-2.52,2-3.76,3.08-.32.27-.51.2-.79,0q-2.27-1.87-4.56-3.72a1.38,1.38,0,0,0-2.09,0C20,7.75,18.48,9,17,10.19c-.41.35-.65.32-1,0-1.4-1.19-2.83-2.34-4.25-3.5-1-.82-1.44-.83-2.45,0C7.81,7.87,6.34,9.06,4.9,10.27c-.3.24-.49.28-.8,0-1.24-1-2.5-2-3.75-3.08C.18,7.08,0,7,0,6.69c0-1.8,0-3.61,0-5.57L3.16,3.69c1.08.89,1.54.9,2.63,0C7.2,2.56,8.62,1.43,10,.25c.42-.37.65-.3,1,0,1.45,1.21,2.92,2.39,4.38,3.59a1.49,1.49,0,0,0,2.22,0C19.07,2.67,20.54,1.48,22,.27c.37-.32.6-.39,1,0,1.43,1.23,2.91,2.4,4.38,3.59a1.51,1.51,0,0,0,2.28,0C30.74,3,31.79,2.09,33,1.11Z" style="fill:#fecb00"/><path d="M33,10.57a24.67,24.67,0,0,1-.3,5.74,1.21,1.21,0,0,1-.46.72q-1.66,1.34-3.3,2.71a.5.5,0,0,1-.79,0c-1.49-1.24-3-2.46-4.5-3.68a1.43,1.43,0,0,0-2.21,0c-1.45,1.18-2.9,2.34-4.32,3.55-.43.37-.7.41-1.16,0-1.39-1.2-2.83-2.34-4.26-3.51-.93-.76-1.41-.76-2.33,0-1.48,1.21-3,2.41-4.44,3.64a.54.54,0,0,1-.85,0C3,18.8,1.9,17.92.81,17.05a1.48,1.48,0,0,1-.52-.92A26,26,0,0,1,0,10.57c1.06.86,2,1.65,3,2.45,1.26,1,1.64,1,2.91,0s2.78-2.26,4.15-3.42c.3-.25.48-.27.79,0,1.48,1.24,3,2.46,4.49,3.68a1.5,1.5,0,0,0,2.22,0c1.51-1.22,3-2.43,4.5-3.68a.54.54,0,0,1,.85,0c1.48,1.24,3,2.46,4.49,3.68a1.47,1.47,0,0,0,2.17,0C30.7,12.44,31.79,11.54,33,10.57Z" style="fill:#fecb00"/><path d="M4.14,23.16a1.85,1.85,0,0,0,1.51-.52c1.43-1.18,2.9-2.34,4.31-3.55.44-.38.7-.31,1.09,0,1.42,1.2,2.87,2.37,4.32,3.55a1.47,1.47,0,0,0,2.28,0c1.48-1.21,3-2.41,4.43-3.64a.55.55,0,0,1,.86,0c1.42,1.2,2.88,2.36,4.32,3.55a1.84,1.84,0,0,0,1.57.59,13.34,13.34,0,0,1-5.46,3.24,12.47,12.47,0,0,1-4,.59,68.37,68.37,0,0,1-7.71-.15A13.48,13.48,0,0,1,4.14,23.16Z" style="fill:#fdcb00"/></g></g></svg>