<svg xmlns="http://www.w3.org/2000/svg" width="211.83" height="211.78" viewBox="0 0 211.83 211.78"><g id="Layer_2" data-name="Layer 2"><g id="Layer_1-2" data-name="Layer 1"><path d="M211.82,106c.63,55.9-45.27,105.82-105.92,105.8A106,106,0,0,1,0,105.79C0,47.33,47.79-.28,106.56,0,166.22.29,212.44,49.43,211.82,106ZM135.58,77.6c-.16,2.14-1.45,3.34-2.63,4.51-4.53,4.5-9,9-13.7,13.39-8.9,8.26-17.93,16.4-26.9,24.58-1.64,1.49-3,3-3.16,5.47-.45,6-1.17,12.09-1.73,18.13a24.22,24.22,0,0,0-.07,4.66c.19,1.91,1.26,2.37,2.91,1.25a29.22,29.22,0,0,0,3.15-2.76c3.34-3.05,6.61-6.16,10-9.15,2.89-2.54,3.26-2.55,6.46-.35,6.29,4.33,12.49,8.77,18.49,13.5,5.19,4.09,8.47,2.94,10.22-3.31.17-.59.35-1.19.5-1.8,4.6-19.39,9.25-38.78,13.77-58.19a151.82,151.82,0,0,0,3.79-20.19c.43-4.61-1.12-6.05-5.62-5a26.18,26.18,0,0,0-3.1,1c-18.43,6.73-36.89,13.4-55.29,20.21-13.88,5.13-27.8,10.16-41.39,16a16.12,16.12,0,0,0-3.7,2c-2,1.57-1.78,3.67.43,4.88a17.5,17.5,0,0,0,3.06,1.14c5.78,1.87,11.61,3.58,17.32,5.65A10.12,10.12,0,0,0,78.05,112c17.38-11,34.88-21.77,52.36-32.59C131.82,78.54,133.11,77.22,135.58,77.6Z"/></g></g></svg>