<svg xmlns="http://www.w3.org/2000/svg" width="211.84" height="211.82" viewBox="0 0 211.84 211.82"><g id="Layer_2" data-name="Layer 2"><g id="Layer_1-2" data-name="Layer 1"><path d="M211.83,106.11c.49,56.33-45.71,105.66-106,105.71C47.51,211.86-.06,164,0,105.68S47.8-.19,106.22,0C166.44.2,212.53,49.68,211.83,106.11Zm-102-19.06q0,10,0,20.1c0,7.79.13,15.58,0,23.37-.27,12-9.76,20.75-21.28,20a20,20,0,0,1-18.67-21.16c.91-11.53,10.31-19.5,22-18.64,3.2.23,3.48.11,3.44-3.22-.06-5-.32-10-.56-14.93-.18-3.76-.59-4.18-4.52-4.22C77.08,88.27,66.1,93.15,57.58,103c-15.29,17.64-12.7,43.64,3.27,58.69,14.38,13.55,36.19,14.66,51,5.26,13-8.25,20.13-20.09,20.22-35.74.08-13.4,0-26.8,0-40.2a32.48,32.48,0,0,1,.15-4.19c.33-2.29,1.06-2.71,3.12-1.79,1.85.82,3.6,1.85,5.4,2.78,6.18,3.19,12.85,4.69,19.69,5.5,3.17.37,4-.2,4.08-2.89.11-5.45,0-10.91-.06-16.36,0-2.1-1.18-3-3.15-3.34-10-1.87-17.55-7.59-23.68-15.44a25.9,25.9,0,0,1-5.13-12.37c-.3-2-.69-4.15-3.48-4.15-5.46,0-10.91,0-16.36,0-1.92,0-2.81,1.07-2.83,2.94,0,1.25-.05,2.5-.05,3.74Q109.81,66.26,109.82,87.05Z"/></g></g></svg>