<svg xmlns="http://www.w3.org/2000/svg" width="211.94" height="211.59" viewBox="0 0 211.94 211.59"><g id="Layer_2" data-name="Layer 2"><g id="Layer_1-2" data-name="Layer 1"><path d="M106.13,0C163.37-.66,212,46.89,211.94,105.89c-.06,55.56-44.3,105.76-106.15,105.7C44.26,211.53-.56,161.1,0,104.61.59,46.79,48.62-.84,106.13,0Zm66.58,59.53c-3.55,1.4-6.29,2.45-9,3.56-4.17,1.7-7.63,1.52-11.54-1.61-10.83-8.66-30.75-7.06-39.45,7.95a29.12,29.12,0,0,0-3.81,16.12c.16,4.6-.55,5.1-5.15,4.51-.31,0-.61-.13-.92-.17C83.55,87.3,67.35,78.76,54,64.66c-2.29-2.42-2.91-2.31-4.15.6a14.3,14.3,0,0,0-.73,2.21c-2.45,10.16-.34,19.12,7,26.72C57.25,95.31,59,96,59.09,98.27c-3.07.28-5.68-.77-8.32-1.54-2-.57-2.64.3-2.5,2.09a18.18,18.18,0,0,0,.57,3.2c2.32,8.53,7.67,14.44,15.61,18.15,1.34.62,3.09.62,4,2.49A15.14,15.14,0,0,1,62.17,124c-3.51.21-3.9.86-2.18,3.91,4.24,7.56,10.84,11.82,19.25,13.45,1.14.22,2.57-.22,3.46,1.68-10.54,8.44-22.92,11.52-36.34,12.07.92,1.75,2.2,2.05,3.28,2.56,20.9,10,42.35,11,64,3,29.09-10.75,48.73-39.07,50-72.09.15-3.92,1-6.77,4.33-9.11a24.62,24.62,0,0,0,7.47-8.58c-4.57.52-8.14,2.83-12.8,1.89C166.79,68.86,170.74,65.53,172.71,59.54Z"/></g></g></svg>